G04 #@! TF.GenerationSoftware,KiCad,Pcbnew,(5.1.8)-1*
G04 #@! TF.CreationDate,2021-06-03T22:44:18-04:00*
G04 #@! TF.ProjectId,inkkeys,696e6b6b-6579-4732-9e6b-696361645f70,rev?*
G04 #@! TF.SameCoordinates,Original*
G04 #@! TF.FileFunction,Legend,Bot*
G04 #@! TF.FilePolarity,Positive*
%FSLAX46Y46*%
G04 Gerber Fmt 4.6, Leading zero omitted, Abs format (unit mm)*
G04 Created by KiCad (PCBNEW (5.1.8)-1) date 2021-06-03 22:44:18*
%MOMM*%
%LPD*%
G01*
G04 APERTURE LIST*
%ADD10C,0.250000*%
%ADD11C,0.100000*%
G04 #@! TA.AperFunction,Profile*
%ADD12C,0.100000*%
G04 #@! TD*
%ADD13C,0.120000*%
%ADD14C,0.127000*%
%ADD15C,0.150000*%
G04 APERTURE END LIST*
D10*
X169595238Y-72904761D02*
X170261904Y-71952380D01*
X170738095Y-72904761D02*
X170738095Y-70904761D01*
X169976190Y-70904761D01*
X169785714Y-71000000D01*
X169690476Y-71095238D01*
X169595238Y-71285714D01*
X169595238Y-71571428D01*
X169690476Y-71761904D01*
X169785714Y-71857142D01*
X169976190Y-71952380D01*
X170738095Y-71952380D01*
X168833333Y-72809523D02*
X168547619Y-72904761D01*
X168071428Y-72904761D01*
X167880952Y-72809523D01*
X167785714Y-72714285D01*
X167690476Y-72523809D01*
X167690476Y-72333333D01*
X167785714Y-72142857D01*
X167880952Y-72047619D01*
X168071428Y-71952380D01*
X168452380Y-71857142D01*
X168642857Y-71761904D01*
X168738095Y-71666666D01*
X168833333Y-71476190D01*
X168833333Y-71285714D01*
X168738095Y-71095238D01*
X168642857Y-71000000D01*
X168452380Y-70904761D01*
X167976190Y-70904761D01*
X167690476Y-71000000D01*
X167119047Y-70904761D02*
X165976190Y-70904761D01*
X166547619Y-72904761D02*
X166547619Y-70904761D01*
X191571428Y-83904761D02*
X192523809Y-83904761D01*
X192523809Y-81904761D01*
X190904761Y-82857142D02*
X190238095Y-82857142D01*
X189952380Y-83904761D02*
X190904761Y-83904761D01*
X190904761Y-81904761D01*
X189952380Y-81904761D01*
X189095238Y-83904761D02*
X189095238Y-81904761D01*
X188619047Y-81904761D01*
X188333333Y-82000000D01*
X188142857Y-82190476D01*
X188047619Y-82380952D01*
X187952380Y-82761904D01*
X187952380Y-83047619D01*
X188047619Y-83428571D01*
X188142857Y-83619047D01*
X188333333Y-83809523D01*
X188619047Y-83904761D01*
X189095238Y-83904761D01*
X185190476Y-81904761D02*
X184809523Y-81904761D01*
X184619047Y-82000000D01*
X184428571Y-82190476D01*
X184333333Y-82571428D01*
X184333333Y-83238095D01*
X184428571Y-83619047D01*
X184619047Y-83809523D01*
X184809523Y-83904761D01*
X185190476Y-83904761D01*
X185380952Y-83809523D01*
X185571428Y-83619047D01*
X185666666Y-83238095D01*
X185666666Y-82571428D01*
X185571428Y-82190476D01*
X185380952Y-82000000D01*
X185190476Y-81904761D01*
X182619047Y-82571428D02*
X182619047Y-83904761D01*
X183476190Y-82571428D02*
X183476190Y-83619047D01*
X183380952Y-83809523D01*
X183190476Y-83904761D01*
X182904761Y-83904761D01*
X182714285Y-83809523D01*
X182619047Y-83714285D01*
X181952380Y-82571428D02*
X181190476Y-82571428D01*
X181666666Y-81904761D02*
X181666666Y-83619047D01*
X181571428Y-83809523D01*
X181380952Y-83904761D01*
X181190476Y-83904761D01*
D11*
X193000000Y-80000000D02*
X195000000Y-80000000D01*
X193000000Y-86500000D02*
X193000000Y-80000000D01*
X195000000Y-86500000D02*
X193000000Y-86500000D01*
X191942857Y-73861904D02*
X192209523Y-73480952D01*
X192400000Y-73861904D02*
X192400000Y-73061904D01*
X192095238Y-73061904D01*
X192019047Y-73100000D01*
X191980952Y-73138095D01*
X191942857Y-73214285D01*
X191942857Y-73328571D01*
X191980952Y-73404761D01*
X192019047Y-73442857D01*
X192095238Y-73480952D01*
X192400000Y-73480952D01*
X191485714Y-73861904D02*
X191561904Y-73823809D01*
X191600000Y-73785714D01*
X191638095Y-73709523D01*
X191638095Y-73480952D01*
X191600000Y-73404761D01*
X191561904Y-73366666D01*
X191485714Y-73328571D01*
X191371428Y-73328571D01*
X191295238Y-73366666D01*
X191257142Y-73404761D01*
X191219047Y-73480952D01*
X191219047Y-73709523D01*
X191257142Y-73785714D01*
X191295238Y-73823809D01*
X191371428Y-73861904D01*
X191485714Y-73861904D01*
X190990476Y-73328571D02*
X190685714Y-73328571D01*
X190876190Y-73061904D02*
X190876190Y-73747619D01*
X190838095Y-73823809D01*
X190761904Y-73861904D01*
X190685714Y-73861904D01*
X190076190Y-73861904D02*
X190076190Y-73442857D01*
X190114285Y-73366666D01*
X190190476Y-73328571D01*
X190342857Y-73328571D01*
X190419047Y-73366666D01*
X190076190Y-73823809D02*
X190152380Y-73861904D01*
X190342857Y-73861904D01*
X190419047Y-73823809D01*
X190457142Y-73747619D01*
X190457142Y-73671428D01*
X190419047Y-73595238D01*
X190342857Y-73557142D01*
X190152380Y-73557142D01*
X190076190Y-73519047D01*
X189695238Y-73861904D02*
X189695238Y-73328571D01*
X189695238Y-73480952D02*
X189657142Y-73404761D01*
X189619047Y-73366666D01*
X189542857Y-73328571D01*
X189466666Y-73328571D01*
X189276190Y-73328571D02*
X189085714Y-73861904D01*
X188895238Y-73328571D02*
X189085714Y-73861904D01*
X189161904Y-74052380D01*
X189200000Y-74090476D01*
X189276190Y-74128571D01*
X187980952Y-73442857D02*
X187714285Y-73442857D01*
X187600000Y-73861904D02*
X187980952Y-73861904D01*
X187980952Y-73061904D01*
X187600000Y-73061904D01*
X187257142Y-73328571D02*
X187257142Y-73861904D01*
X187257142Y-73404761D02*
X187219047Y-73366666D01*
X187142857Y-73328571D01*
X187028571Y-73328571D01*
X186952380Y-73366666D01*
X186914285Y-73442857D01*
X186914285Y-73861904D01*
X186190476Y-73823809D02*
X186266666Y-73861904D01*
X186419047Y-73861904D01*
X186495238Y-73823809D01*
X186533333Y-73785714D01*
X186571428Y-73709523D01*
X186571428Y-73480952D01*
X186533333Y-73404761D01*
X186495238Y-73366666D01*
X186419047Y-73328571D01*
X186266666Y-73328571D01*
X186190476Y-73366666D01*
X185733333Y-73861904D02*
X185809523Y-73823809D01*
X185847619Y-73785714D01*
X185885714Y-73709523D01*
X185885714Y-73480952D01*
X185847619Y-73404761D01*
X185809523Y-73366666D01*
X185733333Y-73328571D01*
X185619047Y-73328571D01*
X185542857Y-73366666D01*
X185504761Y-73404761D01*
X185466666Y-73480952D01*
X185466666Y-73709523D01*
X185504761Y-73785714D01*
X185542857Y-73823809D01*
X185619047Y-73861904D01*
X185733333Y-73861904D01*
X184780952Y-73861904D02*
X184780952Y-73061904D01*
X184780952Y-73823809D02*
X184857142Y-73861904D01*
X185009523Y-73861904D01*
X185085714Y-73823809D01*
X185123809Y-73785714D01*
X185161904Y-73709523D01*
X185161904Y-73480952D01*
X185123809Y-73404761D01*
X185085714Y-73366666D01*
X185009523Y-73328571D01*
X184857142Y-73328571D01*
X184780952Y-73366666D01*
X184095238Y-73823809D02*
X184171428Y-73861904D01*
X184323809Y-73861904D01*
X184400000Y-73823809D01*
X184438095Y-73747619D01*
X184438095Y-73442857D01*
X184400000Y-73366666D01*
X184323809Y-73328571D01*
X184171428Y-73328571D01*
X184095238Y-73366666D01*
X184057142Y-73442857D01*
X184057142Y-73519047D01*
X184438095Y-73595238D01*
X183714285Y-73861904D02*
X183714285Y-73328571D01*
X183714285Y-73480952D02*
X183676190Y-73404761D01*
X183638095Y-73366666D01*
X183561904Y-73328571D01*
X183485714Y-73328571D01*
X195500000Y-74500000D02*
X195500000Y-73000000D01*
X180500000Y-74500000D02*
X195500000Y-74500000D01*
X180500000Y-73000000D02*
X180500000Y-74500000D01*
D10*
X123523809Y-82404761D02*
X123523809Y-80404761D01*
X122761904Y-80404761D01*
X122571428Y-80500000D01*
X122476190Y-80595238D01*
X122380952Y-80785714D01*
X122380952Y-81071428D01*
X122476190Y-81261904D01*
X122571428Y-81357142D01*
X122761904Y-81452380D01*
X123523809Y-81452380D01*
X121714285Y-80404761D02*
X121238095Y-82404761D01*
X120857142Y-80976190D01*
X120476190Y-82404761D01*
X120000000Y-80404761D01*
X118095238Y-82404761D02*
X118761904Y-81452380D01*
X119238095Y-82404761D02*
X119238095Y-80404761D01*
X118476190Y-80404761D01*
X118285714Y-80500000D01*
X118190476Y-80595238D01*
X118095238Y-80785714D01*
X118095238Y-81071428D01*
X118190476Y-81261904D01*
X118285714Y-81357142D01*
X118476190Y-81452380D01*
X119238095Y-81452380D01*
X115809523Y-82309523D02*
X115523809Y-82404761D01*
X115047619Y-82404761D01*
X114857142Y-82309523D01*
X114761904Y-82214285D01*
X114666666Y-82023809D01*
X114666666Y-81833333D01*
X114761904Y-81642857D01*
X114857142Y-81547619D01*
X115047619Y-81452380D01*
X115428571Y-81357142D01*
X115619047Y-81261904D01*
X115714285Y-81166666D01*
X115809523Y-80976190D01*
X115809523Y-80785714D01*
X115714285Y-80595238D01*
X115619047Y-80500000D01*
X115428571Y-80404761D01*
X114952380Y-80404761D01*
X114666666Y-80500000D01*
X114000000Y-80404761D02*
X113523809Y-82404761D01*
X113142857Y-80976190D01*
X112761904Y-82404761D01*
X112285714Y-80404761D01*
D11*
X112000000Y-86000000D02*
X110000000Y-86000000D01*
X112000000Y-79500000D02*
X112000000Y-86000000D01*
X110000000Y-79500000D02*
X112000000Y-79500000D01*
D10*
X117452380Y-77309523D02*
X117166666Y-77404761D01*
X116690476Y-77404761D01*
X116500000Y-77309523D01*
X116404761Y-77214285D01*
X116309523Y-77023809D01*
X116309523Y-76833333D01*
X116404761Y-76642857D01*
X116500000Y-76547619D01*
X116690476Y-76452380D01*
X117071428Y-76357142D01*
X117261904Y-76261904D01*
X117357142Y-76166666D01*
X117452380Y-75976190D01*
X117452380Y-75785714D01*
X117357142Y-75595238D01*
X117261904Y-75500000D01*
X117071428Y-75404761D01*
X116595238Y-75404761D01*
X116309523Y-75500000D01*
X115166666Y-77404761D02*
X115357142Y-77309523D01*
X115452380Y-77119047D01*
X115452380Y-75404761D01*
X114404761Y-77404761D02*
X114404761Y-76071428D01*
X114404761Y-75404761D02*
X114500000Y-75500000D01*
X114404761Y-75595238D01*
X114309523Y-75500000D01*
X114404761Y-75404761D01*
X114404761Y-75595238D01*
X112595238Y-77404761D02*
X112595238Y-75404761D01*
X112595238Y-77309523D02*
X112785714Y-77404761D01*
X113166666Y-77404761D01*
X113357142Y-77309523D01*
X113452380Y-77214285D01*
X113547619Y-77023809D01*
X113547619Y-76452380D01*
X113452380Y-76261904D01*
X113357142Y-76166666D01*
X113166666Y-76071428D01*
X112785714Y-76071428D01*
X112595238Y-76166666D01*
X110880952Y-77309523D02*
X111071428Y-77404761D01*
X111452380Y-77404761D01*
X111642857Y-77309523D01*
X111738095Y-77119047D01*
X111738095Y-76357142D01*
X111642857Y-76166666D01*
X111452380Y-76071428D01*
X111071428Y-76071428D01*
X110880952Y-76166666D01*
X110785714Y-76357142D01*
X110785714Y-76547619D01*
X111738095Y-76738095D01*
X109928571Y-77404761D02*
X109928571Y-76071428D01*
X109928571Y-76452380D02*
X109833333Y-76261904D01*
X109738095Y-76166666D01*
X109547619Y-76071428D01*
X109357142Y-76071428D01*
D11*
X118500000Y-75000000D02*
X118500000Y-73000000D01*
X108500000Y-75000000D02*
X118500000Y-75000000D01*
X108500000Y-73000000D02*
X108500000Y-75000000D01*
D10*
X133404761Y-75404761D02*
X133023809Y-75404761D01*
X132833333Y-75500000D01*
X132642857Y-75690476D01*
X132547619Y-76071428D01*
X132547619Y-76738095D01*
X132642857Y-77119047D01*
X132833333Y-77309523D01*
X133023809Y-77404761D01*
X133404761Y-77404761D01*
X133595238Y-77309523D01*
X133785714Y-77119047D01*
X133880952Y-76738095D01*
X133880952Y-76071428D01*
X133785714Y-75690476D01*
X133595238Y-75500000D01*
X133404761Y-75404761D01*
X130738095Y-77404761D02*
X131690476Y-77404761D01*
X131690476Y-75404761D01*
X130071428Y-76357142D02*
X129404761Y-76357142D01*
X129119047Y-77404761D02*
X130071428Y-77404761D01*
X130071428Y-75404761D01*
X129119047Y-75404761D01*
X128261904Y-77404761D02*
X128261904Y-75404761D01*
X127785714Y-75404761D01*
X127500000Y-75500000D01*
X127309523Y-75690476D01*
X127214285Y-75880952D01*
X127119047Y-76261904D01*
X127119047Y-76547619D01*
X127214285Y-76928571D01*
X127309523Y-77119047D01*
X127500000Y-77309523D01*
X127785714Y-77404761D01*
X128261904Y-77404761D01*
D11*
X140500000Y-75000000D02*
X140500000Y-73000000D01*
X120500000Y-75000000D02*
X140500000Y-75000000D01*
X120500000Y-73000000D02*
X120500000Y-75000000D01*
X187107142Y-125860714D02*
X187178571Y-125932142D01*
X187392857Y-126003571D01*
X187535714Y-126003571D01*
X187750000Y-125932142D01*
X187892857Y-125789285D01*
X187964285Y-125646428D01*
X188035714Y-125360714D01*
X188035714Y-125146428D01*
X187964285Y-124860714D01*
X187892857Y-124717857D01*
X187750000Y-124575000D01*
X187535714Y-124503571D01*
X187392857Y-124503571D01*
X187178571Y-124575000D01*
X187107142Y-124646428D01*
X186250000Y-126003571D02*
X186392857Y-125932142D01*
X186464285Y-125789285D01*
X186464285Y-124503571D01*
X185107142Y-125932142D02*
X185250000Y-126003571D01*
X185535714Y-126003571D01*
X185678571Y-125932142D01*
X185750000Y-125789285D01*
X185750000Y-125217857D01*
X185678571Y-125075000D01*
X185535714Y-125003571D01*
X185250000Y-125003571D01*
X185107142Y-125075000D01*
X185035714Y-125217857D01*
X185035714Y-125360714D01*
X185750000Y-125503571D01*
X184392857Y-126003571D02*
X184392857Y-125003571D01*
X184392857Y-125146428D02*
X184321428Y-125075000D01*
X184178571Y-125003571D01*
X183964285Y-125003571D01*
X183821428Y-125075000D01*
X183750000Y-125217857D01*
X183750000Y-126003571D01*
X183750000Y-125217857D02*
X183678571Y-125075000D01*
X183535714Y-125003571D01*
X183321428Y-125003571D01*
X183178571Y-125075000D01*
X183107142Y-125217857D01*
X183107142Y-126003571D01*
X181821428Y-125932142D02*
X181964285Y-126003571D01*
X182250000Y-126003571D01*
X182392857Y-125932142D01*
X182464285Y-125789285D01*
X182464285Y-125217857D01*
X182392857Y-125075000D01*
X182250000Y-125003571D01*
X181964285Y-125003571D01*
X181821428Y-125075000D01*
X181750000Y-125217857D01*
X181750000Y-125360714D01*
X182464285Y-125503571D01*
X181107142Y-125003571D02*
X181107142Y-126003571D01*
X181107142Y-125146428D02*
X181035714Y-125075000D01*
X180892857Y-125003571D01*
X180678571Y-125003571D01*
X180535714Y-125075000D01*
X180464285Y-125217857D01*
X180464285Y-126003571D01*
X179964285Y-125003571D02*
X179392857Y-125003571D01*
X179750000Y-124503571D02*
X179750000Y-125789285D01*
X179678571Y-125932142D01*
X179535714Y-126003571D01*
X179392857Y-126003571D01*
X178821428Y-125932142D02*
X178821428Y-126003571D01*
X178892857Y-126146428D01*
X178964285Y-126217857D01*
X176178571Y-125860714D02*
X176250000Y-125932142D01*
X176464285Y-126003571D01*
X176607142Y-126003571D01*
X176821428Y-125932142D01*
X176964285Y-125789285D01*
X177035714Y-125646428D01*
X177107142Y-125360714D01*
X177107142Y-125146428D01*
X177035714Y-124860714D01*
X176964285Y-124717857D01*
X176821428Y-124575000D01*
X176607142Y-124503571D01*
X176464285Y-124503571D01*
X176250000Y-124575000D01*
X176178571Y-124646428D01*
X175535714Y-126003571D02*
X175535714Y-124503571D01*
X174892857Y-126003571D02*
X174892857Y-125217857D01*
X174964285Y-125075000D01*
X175107142Y-125003571D01*
X175321428Y-125003571D01*
X175464285Y-125075000D01*
X175535714Y-125146428D01*
X174178571Y-126003571D02*
X174178571Y-125003571D01*
X174178571Y-125289285D02*
X174107142Y-125146428D01*
X174035714Y-125075000D01*
X173892857Y-125003571D01*
X173750000Y-125003571D01*
X173250000Y-126003571D02*
X173250000Y-125003571D01*
X173250000Y-124503571D02*
X173321428Y-124575000D01*
X173250000Y-124646428D01*
X173178571Y-124575000D01*
X173250000Y-124503571D01*
X173250000Y-124646428D01*
X172607142Y-125932142D02*
X172464285Y-126003571D01*
X172178571Y-126003571D01*
X172035714Y-125932142D01*
X171964285Y-125789285D01*
X171964285Y-125717857D01*
X172035714Y-125575000D01*
X172178571Y-125503571D01*
X172392857Y-125503571D01*
X172535714Y-125432142D01*
X172607142Y-125289285D01*
X172607142Y-125217857D01*
X172535714Y-125075000D01*
X172392857Y-125003571D01*
X172178571Y-125003571D01*
X172035714Y-125075000D01*
X171250000Y-125932142D02*
X171250000Y-126003571D01*
X171321428Y-126146428D01*
X171392857Y-126217857D01*
X168678571Y-124575000D02*
X168821428Y-124503571D01*
X169035714Y-124503571D01*
X169250000Y-124575000D01*
X169392857Y-124717857D01*
X169464285Y-124860714D01*
X169535714Y-125146428D01*
X169535714Y-125360714D01*
X169464285Y-125646428D01*
X169392857Y-125789285D01*
X169250000Y-125932142D01*
X169035714Y-126003571D01*
X168892857Y-126003571D01*
X168678571Y-125932142D01*
X168607142Y-125860714D01*
X168607142Y-125360714D01*
X168892857Y-125360714D01*
X167321428Y-126003571D02*
X167321428Y-125217857D01*
X167392857Y-125075000D01*
X167535714Y-125003571D01*
X167821428Y-125003571D01*
X167964285Y-125075000D01*
X167321428Y-125932142D02*
X167464285Y-126003571D01*
X167821428Y-126003571D01*
X167964285Y-125932142D01*
X168035714Y-125789285D01*
X168035714Y-125646428D01*
X167964285Y-125503571D01*
X167821428Y-125432142D01*
X167464285Y-125432142D01*
X167321428Y-125360714D01*
X166607142Y-126003571D02*
X166607142Y-124503571D01*
X166607142Y-125075000D02*
X166464285Y-125003571D01*
X166178571Y-125003571D01*
X166035714Y-125075000D01*
X165964285Y-125146428D01*
X165892857Y-125289285D01*
X165892857Y-125717857D01*
X165964285Y-125860714D01*
X166035714Y-125932142D01*
X166178571Y-126003571D01*
X166464285Y-126003571D01*
X166607142Y-125932142D01*
X164678571Y-125932142D02*
X164821428Y-126003571D01*
X165107142Y-126003571D01*
X165250000Y-125932142D01*
X165321428Y-125789285D01*
X165321428Y-125217857D01*
X165250000Y-125075000D01*
X165107142Y-125003571D01*
X164821428Y-125003571D01*
X164678571Y-125075000D01*
X164607142Y-125217857D01*
X164607142Y-125360714D01*
X165321428Y-125503571D01*
X163892857Y-125932142D02*
X163892857Y-126003571D01*
X163964285Y-126146428D01*
X164035714Y-126217857D01*
X162107142Y-126003571D02*
X162107142Y-124503571D01*
X162107142Y-125217857D02*
X161250000Y-125217857D01*
X161250000Y-126003571D02*
X161250000Y-124503571D01*
X159892857Y-126003571D02*
X159892857Y-125217857D01*
X159964285Y-125075000D01*
X160107142Y-125003571D01*
X160392857Y-125003571D01*
X160535714Y-125075000D01*
X159892857Y-125932142D02*
X160035714Y-126003571D01*
X160392857Y-126003571D01*
X160535714Y-125932142D01*
X160607142Y-125789285D01*
X160607142Y-125646428D01*
X160535714Y-125503571D01*
X160392857Y-125432142D01*
X160035714Y-125432142D01*
X159892857Y-125360714D01*
X159321428Y-125003571D02*
X158964285Y-126003571D01*
X158607142Y-125003571D02*
X158964285Y-126003571D01*
X159107142Y-126360714D01*
X159178571Y-126432142D01*
X159321428Y-126503571D01*
X157821428Y-126003571D02*
X157964285Y-125932142D01*
X158035714Y-125789285D01*
X158035714Y-124503571D01*
X156678571Y-125932142D02*
X156821428Y-126003571D01*
X157107142Y-126003571D01*
X157250000Y-125932142D01*
X157321428Y-125789285D01*
X157321428Y-125217857D01*
X157250000Y-125075000D01*
X157107142Y-125003571D01*
X156821428Y-125003571D01*
X156678571Y-125075000D01*
X156607142Y-125217857D01*
X156607142Y-125360714D01*
X157321428Y-125503571D01*
X156107142Y-125003571D02*
X155750000Y-126003571D01*
X155392857Y-125003571D02*
X155750000Y-126003571D01*
X155892857Y-126360714D01*
X155964285Y-126432142D01*
X156107142Y-126503571D01*
X154750000Y-125932142D02*
X154750000Y-126003571D01*
X154821428Y-126146428D01*
X154892857Y-126217857D01*
X152535714Y-124503571D02*
X152535714Y-125575000D01*
X152607142Y-125789285D01*
X152750000Y-125932142D01*
X152964285Y-126003571D01*
X153107142Y-126003571D01*
X151178571Y-126003571D02*
X151178571Y-125217857D01*
X151250000Y-125075000D01*
X151392857Y-125003571D01*
X151678571Y-125003571D01*
X151821428Y-125075000D01*
X151178571Y-125932142D02*
X151321428Y-126003571D01*
X151678571Y-126003571D01*
X151821428Y-125932142D01*
X151892857Y-125789285D01*
X151892857Y-125646428D01*
X151821428Y-125503571D01*
X151678571Y-125432142D01*
X151321428Y-125432142D01*
X151178571Y-125360714D01*
X149821428Y-125932142D02*
X149964285Y-126003571D01*
X150250000Y-126003571D01*
X150392857Y-125932142D01*
X150464285Y-125860714D01*
X150535714Y-125717857D01*
X150535714Y-125289285D01*
X150464285Y-125146428D01*
X150392857Y-125075000D01*
X150250000Y-125003571D01*
X149964285Y-125003571D01*
X149821428Y-125075000D01*
X149178571Y-126003571D02*
X149178571Y-124503571D01*
X149035714Y-125432142D02*
X148607142Y-126003571D01*
X148607142Y-125003571D02*
X149178571Y-125575000D01*
X147892857Y-125932142D02*
X147892857Y-126003571D01*
X147964285Y-126146428D01*
X148035714Y-126217857D01*
X146107142Y-126003571D02*
X146107142Y-124503571D01*
X145607142Y-125575000D01*
X145107142Y-124503571D01*
X145107142Y-126003571D01*
X143821428Y-125932142D02*
X143964285Y-126003571D01*
X144250000Y-126003571D01*
X144392857Y-125932142D01*
X144464285Y-125789285D01*
X144464285Y-125217857D01*
X144392857Y-125075000D01*
X144250000Y-125003571D01*
X143964285Y-125003571D01*
X143821428Y-125075000D01*
X143750000Y-125217857D01*
X143750000Y-125360714D01*
X144464285Y-125503571D01*
X142892857Y-126003571D02*
X143035714Y-125932142D01*
X143107142Y-125789285D01*
X143107142Y-124503571D01*
X142321428Y-126003571D02*
X142321428Y-125003571D01*
X142321428Y-124503571D02*
X142392857Y-124575000D01*
X142321428Y-124646428D01*
X142250000Y-124575000D01*
X142321428Y-124503571D01*
X142321428Y-124646428D01*
X141607142Y-125003571D02*
X141607142Y-126003571D01*
X141607142Y-125146428D02*
X141535714Y-125075000D01*
X141392857Y-125003571D01*
X141178571Y-125003571D01*
X141035714Y-125075000D01*
X140964285Y-125217857D01*
X140964285Y-126003571D01*
X139607142Y-126003571D02*
X139607142Y-124503571D01*
X139607142Y-125932142D02*
X139750000Y-126003571D01*
X140035714Y-126003571D01*
X140178571Y-125932142D01*
X140250000Y-125860714D01*
X140321428Y-125717857D01*
X140321428Y-125289285D01*
X140250000Y-125146428D01*
X140178571Y-125075000D01*
X140035714Y-125003571D01*
X139750000Y-125003571D01*
X139607142Y-125075000D01*
X138250000Y-126003571D02*
X138250000Y-125217857D01*
X138321428Y-125075000D01*
X138464285Y-125003571D01*
X138750000Y-125003571D01*
X138892857Y-125075000D01*
X138250000Y-125932142D02*
X138392857Y-126003571D01*
X138750000Y-126003571D01*
X138892857Y-125932142D01*
X138964285Y-125789285D01*
X138964285Y-125646428D01*
X138892857Y-125503571D01*
X138750000Y-125432142D01*
X138392857Y-125432142D01*
X138250000Y-125360714D01*
X137464285Y-125932142D02*
X137464285Y-126003571D01*
X137535714Y-126146428D01*
X137607142Y-126217857D01*
X135678571Y-126003571D02*
X135678571Y-124503571D01*
X134821428Y-126003571D01*
X134821428Y-124503571D01*
X133464285Y-126003571D02*
X133464285Y-125217857D01*
X133535714Y-125075000D01*
X133678571Y-125003571D01*
X133964285Y-125003571D01*
X134107142Y-125075000D01*
X133464285Y-125932142D02*
X133607142Y-126003571D01*
X133964285Y-126003571D01*
X134107142Y-125932142D01*
X134178571Y-125789285D01*
X134178571Y-125646428D01*
X134107142Y-125503571D01*
X133964285Y-125432142D01*
X133607142Y-125432142D01*
X133464285Y-125360714D01*
X132750000Y-126003571D02*
X132750000Y-124503571D01*
X132607142Y-125432142D02*
X132178571Y-126003571D01*
X132178571Y-125003571D02*
X132750000Y-125575000D01*
X130892857Y-125003571D02*
X130892857Y-126003571D01*
X131535714Y-125003571D02*
X131535714Y-125789285D01*
X131464285Y-125932142D01*
X131321428Y-126003571D01*
X131107142Y-126003571D01*
X130964285Y-125932142D01*
X130892857Y-125860714D01*
X129964285Y-126003571D02*
X130107142Y-125932142D01*
X130178571Y-125789285D01*
X130178571Y-124503571D01*
X129321428Y-125932142D02*
X129321428Y-126003571D01*
X129392857Y-126146428D01*
X129464285Y-126217857D01*
X126321428Y-126003571D02*
X126392857Y-126003571D01*
X126535714Y-125932142D01*
X126750000Y-125717857D01*
X127107142Y-125289285D01*
X127250000Y-125075000D01*
X127321428Y-124860714D01*
X127321428Y-124717857D01*
X127250000Y-124575000D01*
X127107142Y-124503571D01*
X127035714Y-124503571D01*
X126892857Y-124575000D01*
X126821428Y-124717857D01*
X126821428Y-124789285D01*
X126892857Y-124932142D01*
X126964285Y-125003571D01*
X127392857Y-125289285D01*
X127464285Y-125360714D01*
X127535714Y-125503571D01*
X127535714Y-125717857D01*
X127464285Y-125860714D01*
X127392857Y-125932142D01*
X127250000Y-126003571D01*
X127035714Y-126003571D01*
X126892857Y-125932142D01*
X126821428Y-125860714D01*
X126607142Y-125575000D01*
X126535714Y-125360714D01*
X126535714Y-125217857D01*
X124535714Y-126003571D02*
X124535714Y-124503571D01*
X123964285Y-124503571D01*
X123821428Y-124575000D01*
X123750000Y-124646428D01*
X123678571Y-124789285D01*
X123678571Y-125003571D01*
X123750000Y-125146428D01*
X123821428Y-125217857D01*
X123964285Y-125289285D01*
X124535714Y-125289285D01*
X122392857Y-126003571D02*
X122392857Y-125217857D01*
X122464285Y-125075000D01*
X122607142Y-125003571D01*
X122892857Y-125003571D01*
X123035714Y-125075000D01*
X122392857Y-125932142D02*
X122535714Y-126003571D01*
X122892857Y-126003571D01*
X123035714Y-125932142D01*
X123107142Y-125789285D01*
X123107142Y-125646428D01*
X123035714Y-125503571D01*
X122892857Y-125432142D01*
X122535714Y-125432142D01*
X122392857Y-125360714D01*
X121678571Y-126003571D02*
X121678571Y-125003571D01*
X121678571Y-125289285D02*
X121607142Y-125146428D01*
X121535714Y-125075000D01*
X121392857Y-125003571D01*
X121250000Y-125003571D01*
X120750000Y-126003571D02*
X120750000Y-124503571D01*
X120607142Y-125432142D02*
X120178571Y-126003571D01*
X120178571Y-125003571D02*
X120750000Y-125575000D01*
X118964285Y-125932142D02*
X119107142Y-126003571D01*
X119392857Y-126003571D01*
X119535714Y-125932142D01*
X119607142Y-125789285D01*
X119607142Y-125217857D01*
X119535714Y-125075000D01*
X119392857Y-125003571D01*
X119107142Y-125003571D01*
X118964285Y-125075000D01*
X118892857Y-125217857D01*
X118892857Y-125360714D01*
X119607142Y-125503571D01*
X118250000Y-126003571D02*
X118250000Y-125003571D01*
X118250000Y-125289285D02*
X118178571Y-125146428D01*
X118107142Y-125075000D01*
X117964285Y-125003571D01*
X117821428Y-125003571D01*
X167142857Y-127567857D02*
X167642857Y-127567857D01*
X167642857Y-128353571D02*
X167642857Y-126853571D01*
X166928571Y-126853571D01*
X166142857Y-128353571D02*
X166285714Y-128282142D01*
X166357142Y-128210714D01*
X166428571Y-128067857D01*
X166428571Y-127639285D01*
X166357142Y-127496428D01*
X166285714Y-127425000D01*
X166142857Y-127353571D01*
X165928571Y-127353571D01*
X165785714Y-127425000D01*
X165714285Y-127496428D01*
X165642857Y-127639285D01*
X165642857Y-128067857D01*
X165714285Y-128210714D01*
X165785714Y-128282142D01*
X165928571Y-128353571D01*
X166142857Y-128353571D01*
X165000000Y-128353571D02*
X165000000Y-127353571D01*
X165000000Y-127639285D02*
X164928571Y-127496428D01*
X164857142Y-127425000D01*
X164714285Y-127353571D01*
X164571428Y-127353571D01*
X164071428Y-128353571D02*
X164071428Y-127353571D01*
X164071428Y-127496428D02*
X164000000Y-127425000D01*
X163857142Y-127353571D01*
X163642857Y-127353571D01*
X163500000Y-127425000D01*
X163428571Y-127567857D01*
X163428571Y-128353571D01*
X163428571Y-127567857D02*
X163357142Y-127425000D01*
X163214285Y-127353571D01*
X163000000Y-127353571D01*
X162857142Y-127425000D01*
X162785714Y-127567857D01*
X162785714Y-128353571D01*
X161857142Y-128353571D02*
X162000000Y-128282142D01*
X162071428Y-128139285D01*
X162071428Y-126853571D01*
X160642857Y-128353571D02*
X160642857Y-127567857D01*
X160714285Y-127425000D01*
X160857142Y-127353571D01*
X161142857Y-127353571D01*
X161285714Y-127425000D01*
X160642857Y-128282142D02*
X160785714Y-128353571D01*
X161142857Y-128353571D01*
X161285714Y-128282142D01*
X161357142Y-128139285D01*
X161357142Y-127996428D01*
X161285714Y-127853571D01*
X161142857Y-127782142D01*
X160785714Y-127782142D01*
X160642857Y-127710714D01*
X159928571Y-128353571D02*
X159928571Y-126853571D01*
X159928571Y-127425000D02*
X159785714Y-127353571D01*
X159500000Y-127353571D01*
X159357142Y-127425000D01*
X159285714Y-127496428D01*
X159214285Y-127639285D01*
X159214285Y-128067857D01*
X159285714Y-128210714D01*
X159357142Y-128282142D01*
X159500000Y-128353571D01*
X159785714Y-128353571D01*
X159928571Y-128282142D01*
X158642857Y-128282142D02*
X158500000Y-128353571D01*
X158214285Y-128353571D01*
X158071428Y-128282142D01*
X158000000Y-128139285D01*
X158000000Y-128067857D01*
X158071428Y-127925000D01*
X158214285Y-127853571D01*
X158428571Y-127853571D01*
X158571428Y-127782142D01*
X158642857Y-127639285D01*
X158642857Y-127567857D01*
X158571428Y-127425000D01*
X158428571Y-127353571D01*
X158214285Y-127353571D01*
X158071428Y-127425000D01*
X156214285Y-128353571D02*
X156214285Y-126853571D01*
X156214285Y-127567857D02*
X155357142Y-127567857D01*
X155357142Y-128353571D02*
X155357142Y-126853571D01*
X154000000Y-128353571D02*
X154000000Y-127567857D01*
X154071428Y-127425000D01*
X154214285Y-127353571D01*
X154500000Y-127353571D01*
X154642857Y-127425000D01*
X154000000Y-128282142D02*
X154142857Y-128353571D01*
X154500000Y-128353571D01*
X154642857Y-128282142D01*
X154714285Y-128139285D01*
X154714285Y-127996428D01*
X154642857Y-127853571D01*
X154500000Y-127782142D01*
X154142857Y-127782142D01*
X154000000Y-127710714D01*
X152642857Y-128282142D02*
X152785714Y-128353571D01*
X153071428Y-128353571D01*
X153214285Y-128282142D01*
X153285714Y-128210714D01*
X153357142Y-128067857D01*
X153357142Y-127639285D01*
X153285714Y-127496428D01*
X153214285Y-127425000D01*
X153071428Y-127353571D01*
X152785714Y-127353571D01*
X152642857Y-127425000D01*
X152000000Y-128353571D02*
X152000000Y-126853571D01*
X151857142Y-127782142D02*
X151428571Y-128353571D01*
X151428571Y-127353571D02*
X152000000Y-127925000D01*
X150142857Y-128353571D02*
X150142857Y-127567857D01*
X150214285Y-127425000D01*
X150357142Y-127353571D01*
X150642857Y-127353571D01*
X150785714Y-127425000D01*
X150142857Y-128282142D02*
X150285714Y-128353571D01*
X150642857Y-128353571D01*
X150785714Y-128282142D01*
X150857142Y-128139285D01*
X150857142Y-127996428D01*
X150785714Y-127853571D01*
X150642857Y-127782142D01*
X150285714Y-127782142D01*
X150142857Y-127710714D01*
X149642857Y-127353571D02*
X149071428Y-127353571D01*
X149428571Y-126853571D02*
X149428571Y-128139285D01*
X149357142Y-128282142D01*
X149214285Y-128353571D01*
X149071428Y-128353571D01*
X148571428Y-128353571D02*
X148571428Y-126853571D01*
X147928571Y-128353571D02*
X147928571Y-127567857D01*
X148000000Y-127425000D01*
X148142857Y-127353571D01*
X148357142Y-127353571D01*
X148500000Y-127425000D01*
X148571428Y-127496428D01*
X147000000Y-128353571D02*
X147142857Y-128282142D01*
X147214285Y-128210714D01*
X147285714Y-128067857D01*
X147285714Y-127639285D01*
X147214285Y-127496428D01*
X147142857Y-127425000D01*
X147000000Y-127353571D01*
X146785714Y-127353571D01*
X146642857Y-127425000D01*
X146571428Y-127496428D01*
X146500000Y-127639285D01*
X146500000Y-128067857D01*
X146571428Y-128210714D01*
X146642857Y-128282142D01*
X146785714Y-128353571D01*
X147000000Y-128353571D01*
X145857142Y-127353571D02*
X145857142Y-128353571D01*
X145857142Y-127496428D02*
X145785714Y-127425000D01*
X145642857Y-127353571D01*
X145428571Y-127353571D01*
X145285714Y-127425000D01*
X145214285Y-127567857D01*
X145214285Y-128353571D01*
X143428571Y-126996428D02*
X143357142Y-126925000D01*
X143214285Y-126853571D01*
X142857142Y-126853571D01*
X142714285Y-126925000D01*
X142642857Y-126996428D01*
X142571428Y-127139285D01*
X142571428Y-127282142D01*
X142642857Y-127496428D01*
X143500000Y-128353571D01*
X142571428Y-128353571D01*
X141642857Y-126853571D02*
X141500000Y-126853571D01*
X141357142Y-126925000D01*
X141285714Y-126996428D01*
X141214285Y-127139285D01*
X141142857Y-127425000D01*
X141142857Y-127782142D01*
X141214285Y-128067857D01*
X141285714Y-128210714D01*
X141357142Y-128282142D01*
X141500000Y-128353571D01*
X141642857Y-128353571D01*
X141785714Y-128282142D01*
X141857142Y-128210714D01*
X141928571Y-128067857D01*
X142000000Y-127782142D01*
X142000000Y-127425000D01*
X141928571Y-127139285D01*
X141857142Y-126996428D01*
X141785714Y-126925000D01*
X141642857Y-126853571D01*
X140571428Y-126996428D02*
X140500000Y-126925000D01*
X140357142Y-126853571D01*
X140000000Y-126853571D01*
X139857142Y-126925000D01*
X139785714Y-126996428D01*
X139714285Y-127139285D01*
X139714285Y-127282142D01*
X139785714Y-127496428D01*
X140642857Y-128353571D01*
X139714285Y-128353571D01*
X138285714Y-128353571D02*
X139142857Y-128353571D01*
X138714285Y-128353571D02*
X138714285Y-126853571D01*
X138857142Y-127067857D01*
X139000000Y-127210714D01*
X139142857Y-127282142D01*
D12*
X202000000Y-60000000D02*
G75*
G02*
X208000000Y-66000000I0J-6000000D01*
G01*
X208000000Y-134000000D02*
G75*
G02*
X202000000Y-140000000I-6000000J0D01*
G01*
X103000000Y-140000000D02*
G75*
G02*
X97000000Y-134000000I0J6000000D01*
G01*
X97000000Y-66000000D02*
G75*
G02*
X103000000Y-60000000I6000000J0D01*
G01*
X97000000Y-134000000D02*
X97000000Y-66000000D01*
X202000000Y-140000000D02*
X103000000Y-140000000D01*
X208000000Y-66000000D02*
X208000000Y-134000000D01*
X103000000Y-60000000D02*
X202000000Y-60000000D01*
D13*
G04 #@! TO.C,SW12*
X164750000Y-67500000D02*
X164750000Y-66000000D01*
X166000000Y-63500000D02*
X170500000Y-63500000D01*
X171750000Y-66000000D02*
X171750000Y-67500000D01*
X170500000Y-70000000D02*
X166000000Y-70000000D01*
G04 #@! TO.C,C2*
X188910000Y-76288748D02*
X188910000Y-77711252D01*
X187090000Y-76288748D02*
X187090000Y-77711252D01*
G04 #@! TO.C,C1*
X183910000Y-76288748D02*
X183910000Y-77711252D01*
X182090000Y-76288748D02*
X182090000Y-77711252D01*
G04 #@! TO.C,D23*
X157650000Y-107250000D02*
X157650000Y-108400000D01*
X150350000Y-107250000D02*
X157650000Y-107250000D01*
X150350000Y-112750000D02*
X157650000Y-112750000D01*
G04 #@! TO.C,D20*
X106650000Y-131250000D02*
X106650000Y-132400000D01*
X99350000Y-131250000D02*
X106650000Y-131250000D01*
X99350000Y-136750000D02*
X106650000Y-136750000D01*
G04 #@! TO.C,D17*
X106650000Y-63250000D02*
X106650000Y-64400000D01*
X99350000Y-63250000D02*
X106650000Y-63250000D01*
X99350000Y-68750000D02*
X106650000Y-68750000D01*
G04 #@! TO.C,D14*
X205650000Y-63250000D02*
X205650000Y-64400000D01*
X198350000Y-63250000D02*
X205650000Y-63250000D01*
X198350000Y-68750000D02*
X205650000Y-68750000D01*
G04 #@! TO.C,D11*
X205650000Y-131250000D02*
X205650000Y-132400000D01*
X198350000Y-131250000D02*
X205650000Y-131250000D01*
X198350000Y-136750000D02*
X205650000Y-136750000D01*
G04 #@! TO.C,R10*
X113772936Y-84910000D02*
X115227064Y-84910000D01*
X113772936Y-83090000D02*
X115227064Y-83090000D01*
G04 #@! TO.C,R9*
X187090000Y-65272936D02*
X187090000Y-66727064D01*
X188910000Y-65272936D02*
X188910000Y-66727064D01*
G04 #@! TO.C,R8*
X184590000Y-76272936D02*
X184590000Y-77727064D01*
X186410000Y-76272936D02*
X186410000Y-77727064D01*
G04 #@! TO.C,R7*
X182090000Y-65272936D02*
X182090000Y-66727064D01*
X183910000Y-65272936D02*
X183910000Y-66727064D01*
G04 #@! TO.C,R6*
X179590000Y-76272936D02*
X179590000Y-77727064D01*
X181410000Y-76272936D02*
X181410000Y-77727064D01*
G04 #@! TO.C,R5*
X156977064Y-87590000D02*
X155522936Y-87590000D01*
X156977064Y-89410000D02*
X155522936Y-89410000D01*
G04 #@! TO.C,R4*
X156977064Y-85090000D02*
X155522936Y-85090000D01*
X156977064Y-86910000D02*
X155522936Y-86910000D01*
G04 #@! TO.C,R3*
X156977064Y-82590000D02*
X155522936Y-82590000D01*
X156977064Y-84410000D02*
X155522936Y-84410000D01*
G04 #@! TO.C,R2*
X156977064Y-80090000D02*
X155522936Y-80090000D01*
X156977064Y-81910000D02*
X155522936Y-81910000D01*
G04 #@! TO.C,R1*
X156977064Y-77590000D02*
X155522936Y-77590000D01*
X156977064Y-79410000D02*
X155522936Y-79410000D01*
G04 #@! TO.C,D10*
X185615000Y-114600000D02*
X185615000Y-110540000D01*
X185615000Y-110540000D02*
X187885000Y-110540000D01*
X187885000Y-110540000D02*
X187885000Y-114600000D01*
G04 #@! TO.C,D9*
X187885000Y-103900000D02*
X187885000Y-107960000D01*
X187885000Y-107960000D02*
X185615000Y-107960000D01*
X185615000Y-107960000D02*
X185615000Y-103900000D01*
G04 #@! TO.C,D8*
X166615000Y-114600000D02*
X166615000Y-110540000D01*
X166615000Y-110540000D02*
X168885000Y-110540000D01*
X168885000Y-110540000D02*
X168885000Y-114600000D01*
G04 #@! TO.C,D7*
X168885000Y-103900000D02*
X168885000Y-107960000D01*
X168885000Y-107960000D02*
X166615000Y-107960000D01*
X166615000Y-107960000D02*
X166615000Y-103900000D01*
G04 #@! TO.C,D6*
X145615000Y-114600000D02*
X145615000Y-110540000D01*
X145615000Y-110540000D02*
X147885000Y-110540000D01*
X147885000Y-110540000D02*
X147885000Y-114600000D01*
G04 #@! TO.C,D5*
X147885000Y-103900000D02*
X147885000Y-107960000D01*
X147885000Y-107960000D02*
X145615000Y-107960000D01*
X145615000Y-107960000D02*
X145615000Y-103900000D01*
G04 #@! TO.C,D4*
X128615000Y-114600000D02*
X128615000Y-110540000D01*
X128615000Y-110540000D02*
X130885000Y-110540000D01*
X130885000Y-110540000D02*
X130885000Y-114600000D01*
G04 #@! TO.C,D3*
X130885000Y-103900000D02*
X130885000Y-107960000D01*
X130885000Y-107960000D02*
X128615000Y-107960000D01*
X128615000Y-107960000D02*
X128615000Y-103900000D01*
G04 #@! TO.C,D2*
X109615000Y-114600000D02*
X109615000Y-110540000D01*
X109615000Y-110540000D02*
X111885000Y-110540000D01*
X111885000Y-110540000D02*
X111885000Y-114600000D01*
G04 #@! TO.C,D1*
X111885000Y-103900000D02*
X111885000Y-107960000D01*
X111885000Y-107960000D02*
X109615000Y-107960000D01*
X109615000Y-107960000D02*
X109615000Y-103900000D01*
G04 #@! TO.C,C4*
X194910000Y-77711252D02*
X194910000Y-76288748D01*
X193090000Y-77711252D02*
X193090000Y-76288748D01*
G04 #@! TO.C,C3*
X191910000Y-77711252D02*
X191910000Y-76288748D01*
X190090000Y-77711252D02*
X190090000Y-76288748D01*
D14*
G04 #@! TO.C,B1*
X161520000Y-59370000D02*
X161520000Y-92390000D01*
X161520000Y-92390000D02*
X143740000Y-92390000D01*
X143740000Y-92390000D02*
X143740000Y-59370000D01*
X143740000Y-59370000D02*
X161520000Y-59370000D01*
X156440000Y-59370000D02*
X156440000Y-58100000D01*
X156440000Y-58100000D02*
X148820000Y-58100000D01*
X148820000Y-58100000D02*
X148820000Y-59370000D01*
G04 #@! TD*
G04 #@! TO.C,SW12*
D15*
X170059523Y-62904761D02*
X169916666Y-62952380D01*
X169678571Y-62952380D01*
X169583333Y-62904761D01*
X169535714Y-62857142D01*
X169488095Y-62761904D01*
X169488095Y-62666666D01*
X169535714Y-62571428D01*
X169583333Y-62523809D01*
X169678571Y-62476190D01*
X169869047Y-62428571D01*
X169964285Y-62380952D01*
X170011904Y-62333333D01*
X170059523Y-62238095D01*
X170059523Y-62142857D01*
X170011904Y-62047619D01*
X169964285Y-62000000D01*
X169869047Y-61952380D01*
X169630952Y-61952380D01*
X169488095Y-62000000D01*
X169154761Y-61952380D02*
X168916666Y-62952380D01*
X168726190Y-62238095D01*
X168535714Y-62952380D01*
X168297619Y-61952380D01*
X167392857Y-62952380D02*
X167964285Y-62952380D01*
X167678571Y-62952380D02*
X167678571Y-61952380D01*
X167773809Y-62095238D01*
X167869047Y-62190476D01*
X167964285Y-62238095D01*
X167011904Y-62047619D02*
X166964285Y-62000000D01*
X166869047Y-61952380D01*
X166630952Y-61952380D01*
X166535714Y-62000000D01*
X166488095Y-62047619D01*
X166440476Y-62142857D01*
X166440476Y-62238095D01*
X166488095Y-62380952D01*
X167059523Y-62952380D01*
X166440476Y-62952380D01*
G04 #@! TO.C,C2*
X186507142Y-76833333D02*
X186554761Y-76785714D01*
X186602380Y-76642857D01*
X186602380Y-76547619D01*
X186554761Y-76404761D01*
X186459523Y-76309523D01*
X186364285Y-76261904D01*
X186173809Y-76214285D01*
X186030952Y-76214285D01*
X185840476Y-76261904D01*
X185745238Y-76309523D01*
X185650000Y-76404761D01*
X185602380Y-76547619D01*
X185602380Y-76642857D01*
X185650000Y-76785714D01*
X185697619Y-76833333D01*
X185697619Y-77214285D02*
X185650000Y-77261904D01*
X185602380Y-77357142D01*
X185602380Y-77595238D01*
X185650000Y-77690476D01*
X185697619Y-77738095D01*
X185792857Y-77785714D01*
X185888095Y-77785714D01*
X186030952Y-77738095D01*
X186602380Y-77166666D01*
X186602380Y-77785714D01*
G04 #@! TO.C,C1*
X181507142Y-76833333D02*
X181554761Y-76785714D01*
X181602380Y-76642857D01*
X181602380Y-76547619D01*
X181554761Y-76404761D01*
X181459523Y-76309523D01*
X181364285Y-76261904D01*
X181173809Y-76214285D01*
X181030952Y-76214285D01*
X180840476Y-76261904D01*
X180745238Y-76309523D01*
X180650000Y-76404761D01*
X180602380Y-76547619D01*
X180602380Y-76642857D01*
X180650000Y-76785714D01*
X180697619Y-76833333D01*
X181602380Y-77785714D02*
X181602380Y-77214285D01*
X181602380Y-77500000D02*
X180602380Y-77500000D01*
X180745238Y-77404761D01*
X180840476Y-77309523D01*
X180888095Y-77214285D01*
G04 #@! TO.C,D23*
X155214285Y-113952380D02*
X155214285Y-112952380D01*
X154976190Y-112952380D01*
X154833333Y-113000000D01*
X154738095Y-113095238D01*
X154690476Y-113190476D01*
X154642857Y-113380952D01*
X154642857Y-113523809D01*
X154690476Y-113714285D01*
X154738095Y-113809523D01*
X154833333Y-113904761D01*
X154976190Y-113952380D01*
X155214285Y-113952380D01*
X154261904Y-113047619D02*
X154214285Y-113000000D01*
X154119047Y-112952380D01*
X153880952Y-112952380D01*
X153785714Y-113000000D01*
X153738095Y-113047619D01*
X153690476Y-113142857D01*
X153690476Y-113238095D01*
X153738095Y-113380952D01*
X154309523Y-113952380D01*
X153690476Y-113952380D01*
X153357142Y-112952380D02*
X152738095Y-112952380D01*
X153071428Y-113333333D01*
X152928571Y-113333333D01*
X152833333Y-113380952D01*
X152785714Y-113428571D01*
X152738095Y-113523809D01*
X152738095Y-113761904D01*
X152785714Y-113857142D01*
X152833333Y-113904761D01*
X152928571Y-113952380D01*
X153214285Y-113952380D01*
X153309523Y-113904761D01*
X153357142Y-113857142D01*
X149564285Y-112052380D02*
X150135714Y-112052380D01*
X149850000Y-112052380D02*
X149850000Y-111052380D01*
X149945238Y-111195238D01*
X150040476Y-111290476D01*
X150135714Y-111338095D01*
G04 #@! TO.C,D20*
X104214285Y-137952380D02*
X104214285Y-136952380D01*
X103976190Y-136952380D01*
X103833333Y-137000000D01*
X103738095Y-137095238D01*
X103690476Y-137190476D01*
X103642857Y-137380952D01*
X103642857Y-137523809D01*
X103690476Y-137714285D01*
X103738095Y-137809523D01*
X103833333Y-137904761D01*
X103976190Y-137952380D01*
X104214285Y-137952380D01*
X103261904Y-137047619D02*
X103214285Y-137000000D01*
X103119047Y-136952380D01*
X102880952Y-136952380D01*
X102785714Y-137000000D01*
X102738095Y-137047619D01*
X102690476Y-137142857D01*
X102690476Y-137238095D01*
X102738095Y-137380952D01*
X103309523Y-137952380D01*
X102690476Y-137952380D01*
X102071428Y-136952380D02*
X101976190Y-136952380D01*
X101880952Y-137000000D01*
X101833333Y-137047619D01*
X101785714Y-137142857D01*
X101738095Y-137333333D01*
X101738095Y-137571428D01*
X101785714Y-137761904D01*
X101833333Y-137857142D01*
X101880952Y-137904761D01*
X101976190Y-137952380D01*
X102071428Y-137952380D01*
X102166666Y-137904761D01*
X102214285Y-137857142D01*
X102261904Y-137761904D01*
X102309523Y-137571428D01*
X102309523Y-137333333D01*
X102261904Y-137142857D01*
X102214285Y-137047619D01*
X102166666Y-137000000D01*
X102071428Y-136952380D01*
X98564285Y-136052380D02*
X99135714Y-136052380D01*
X98850000Y-136052380D02*
X98850000Y-135052380D01*
X98945238Y-135195238D01*
X99040476Y-135290476D01*
X99135714Y-135338095D01*
G04 #@! TO.C,D17*
X104214285Y-69952380D02*
X104214285Y-68952380D01*
X103976190Y-68952380D01*
X103833333Y-69000000D01*
X103738095Y-69095238D01*
X103690476Y-69190476D01*
X103642857Y-69380952D01*
X103642857Y-69523809D01*
X103690476Y-69714285D01*
X103738095Y-69809523D01*
X103833333Y-69904761D01*
X103976190Y-69952380D01*
X104214285Y-69952380D01*
X102690476Y-69952380D02*
X103261904Y-69952380D01*
X102976190Y-69952380D02*
X102976190Y-68952380D01*
X103071428Y-69095238D01*
X103166666Y-69190476D01*
X103261904Y-69238095D01*
X102357142Y-68952380D02*
X101690476Y-68952380D01*
X102119047Y-69952380D01*
X98564285Y-68052380D02*
X99135714Y-68052380D01*
X98850000Y-68052380D02*
X98850000Y-67052380D01*
X98945238Y-67195238D01*
X99040476Y-67290476D01*
X99135714Y-67338095D01*
G04 #@! TO.C,D14*
X203214285Y-69952380D02*
X203214285Y-68952380D01*
X202976190Y-68952380D01*
X202833333Y-69000000D01*
X202738095Y-69095238D01*
X202690476Y-69190476D01*
X202642857Y-69380952D01*
X202642857Y-69523809D01*
X202690476Y-69714285D01*
X202738095Y-69809523D01*
X202833333Y-69904761D01*
X202976190Y-69952380D01*
X203214285Y-69952380D01*
X201690476Y-69952380D02*
X202261904Y-69952380D01*
X201976190Y-69952380D02*
X201976190Y-68952380D01*
X202071428Y-69095238D01*
X202166666Y-69190476D01*
X202261904Y-69238095D01*
X200833333Y-69285714D02*
X200833333Y-69952380D01*
X201071428Y-68904761D02*
X201309523Y-69619047D01*
X200690476Y-69619047D01*
X197564285Y-68052380D02*
X198135714Y-68052380D01*
X197850000Y-68052380D02*
X197850000Y-67052380D01*
X197945238Y-67195238D01*
X198040476Y-67290476D01*
X198135714Y-67338095D01*
G04 #@! TO.C,D11*
X203214285Y-137952380D02*
X203214285Y-136952380D01*
X202976190Y-136952380D01*
X202833333Y-137000000D01*
X202738095Y-137095238D01*
X202690476Y-137190476D01*
X202642857Y-137380952D01*
X202642857Y-137523809D01*
X202690476Y-137714285D01*
X202738095Y-137809523D01*
X202833333Y-137904761D01*
X202976190Y-137952380D01*
X203214285Y-137952380D01*
X201690476Y-137952380D02*
X202261904Y-137952380D01*
X201976190Y-137952380D02*
X201976190Y-136952380D01*
X202071428Y-137095238D01*
X202166666Y-137190476D01*
X202261904Y-137238095D01*
X200738095Y-137952380D02*
X201309523Y-137952380D01*
X201023809Y-137952380D02*
X201023809Y-136952380D01*
X201119047Y-137095238D01*
X201214285Y-137190476D01*
X201309523Y-137238095D01*
X197564285Y-136052380D02*
X198135714Y-136052380D01*
X197850000Y-136052380D02*
X197850000Y-135052380D01*
X197945238Y-135195238D01*
X198040476Y-135290476D01*
X198135714Y-135338095D01*
G04 #@! TO.C,R10*
X115142857Y-86272380D02*
X115476190Y-85796190D01*
X115714285Y-86272380D02*
X115714285Y-85272380D01*
X115333333Y-85272380D01*
X115238095Y-85320000D01*
X115190476Y-85367619D01*
X115142857Y-85462857D01*
X115142857Y-85605714D01*
X115190476Y-85700952D01*
X115238095Y-85748571D01*
X115333333Y-85796190D01*
X115714285Y-85796190D01*
X114190476Y-86272380D02*
X114761904Y-86272380D01*
X114476190Y-86272380D02*
X114476190Y-85272380D01*
X114571428Y-85415238D01*
X114666666Y-85510476D01*
X114761904Y-85558095D01*
X113571428Y-85272380D02*
X113476190Y-85272380D01*
X113380952Y-85320000D01*
X113333333Y-85367619D01*
X113285714Y-85462857D01*
X113238095Y-85653333D01*
X113238095Y-85891428D01*
X113285714Y-86081904D01*
X113333333Y-86177142D01*
X113380952Y-86224761D01*
X113476190Y-86272380D01*
X113571428Y-86272380D01*
X113666666Y-86224761D01*
X113714285Y-86177142D01*
X113761904Y-86081904D01*
X113809523Y-85891428D01*
X113809523Y-85653333D01*
X113761904Y-85462857D01*
X113714285Y-85367619D01*
X113666666Y-85320000D01*
X113571428Y-85272380D01*
G04 #@! TO.C,R9*
X186632380Y-65833333D02*
X186156190Y-65500000D01*
X186632380Y-65261904D02*
X185632380Y-65261904D01*
X185632380Y-65642857D01*
X185680000Y-65738095D01*
X185727619Y-65785714D01*
X185822857Y-65833333D01*
X185965714Y-65833333D01*
X186060952Y-65785714D01*
X186108571Y-65738095D01*
X186156190Y-65642857D01*
X186156190Y-65261904D01*
X186632380Y-66309523D02*
X186632380Y-66500000D01*
X186584761Y-66595238D01*
X186537142Y-66642857D01*
X186394285Y-66738095D01*
X186203809Y-66785714D01*
X185822857Y-66785714D01*
X185727619Y-66738095D01*
X185680000Y-66690476D01*
X185632380Y-66595238D01*
X185632380Y-66404761D01*
X185680000Y-66309523D01*
X185727619Y-66261904D01*
X185822857Y-66214285D01*
X186060952Y-66214285D01*
X186156190Y-66261904D01*
X186203809Y-66309523D01*
X186251428Y-66404761D01*
X186251428Y-66595238D01*
X186203809Y-66690476D01*
X186156190Y-66738095D01*
X186060952Y-66785714D01*
G04 #@! TO.C,R8*
X184132380Y-76833333D02*
X183656190Y-76500000D01*
X184132380Y-76261904D02*
X183132380Y-76261904D01*
X183132380Y-76642857D01*
X183180000Y-76738095D01*
X183227619Y-76785714D01*
X183322857Y-76833333D01*
X183465714Y-76833333D01*
X183560952Y-76785714D01*
X183608571Y-76738095D01*
X183656190Y-76642857D01*
X183656190Y-76261904D01*
X183560952Y-77404761D02*
X183513333Y-77309523D01*
X183465714Y-77261904D01*
X183370476Y-77214285D01*
X183322857Y-77214285D01*
X183227619Y-77261904D01*
X183180000Y-77309523D01*
X183132380Y-77404761D01*
X183132380Y-77595238D01*
X183180000Y-77690476D01*
X183227619Y-77738095D01*
X183322857Y-77785714D01*
X183370476Y-77785714D01*
X183465714Y-77738095D01*
X183513333Y-77690476D01*
X183560952Y-77595238D01*
X183560952Y-77404761D01*
X183608571Y-77309523D01*
X183656190Y-77261904D01*
X183751428Y-77214285D01*
X183941904Y-77214285D01*
X184037142Y-77261904D01*
X184084761Y-77309523D01*
X184132380Y-77404761D01*
X184132380Y-77595238D01*
X184084761Y-77690476D01*
X184037142Y-77738095D01*
X183941904Y-77785714D01*
X183751428Y-77785714D01*
X183656190Y-77738095D01*
X183608571Y-77690476D01*
X183560952Y-77595238D01*
G04 #@! TO.C,R7*
X181632380Y-65833333D02*
X181156190Y-65500000D01*
X181632380Y-65261904D02*
X180632380Y-65261904D01*
X180632380Y-65642857D01*
X180680000Y-65738095D01*
X180727619Y-65785714D01*
X180822857Y-65833333D01*
X180965714Y-65833333D01*
X181060952Y-65785714D01*
X181108571Y-65738095D01*
X181156190Y-65642857D01*
X181156190Y-65261904D01*
X180632380Y-66166666D02*
X180632380Y-66833333D01*
X181632380Y-66404761D01*
G04 #@! TO.C,R6*
X179132380Y-76833333D02*
X178656190Y-76500000D01*
X179132380Y-76261904D02*
X178132380Y-76261904D01*
X178132380Y-76642857D01*
X178180000Y-76738095D01*
X178227619Y-76785714D01*
X178322857Y-76833333D01*
X178465714Y-76833333D01*
X178560952Y-76785714D01*
X178608571Y-76738095D01*
X178656190Y-76642857D01*
X178656190Y-76261904D01*
X178132380Y-77690476D02*
X178132380Y-77500000D01*
X178180000Y-77404761D01*
X178227619Y-77357142D01*
X178370476Y-77261904D01*
X178560952Y-77214285D01*
X178941904Y-77214285D01*
X179037142Y-77261904D01*
X179084761Y-77309523D01*
X179132380Y-77404761D01*
X179132380Y-77595238D01*
X179084761Y-77690476D01*
X179037142Y-77738095D01*
X178941904Y-77785714D01*
X178703809Y-77785714D01*
X178608571Y-77738095D01*
X178560952Y-77690476D01*
X178513333Y-77595238D01*
X178513333Y-77404761D01*
X178560952Y-77309523D01*
X178608571Y-77261904D01*
X178703809Y-77214285D01*
G04 #@! TO.C,R5*
X156416666Y-87132380D02*
X156750000Y-86656190D01*
X156988095Y-87132380D02*
X156988095Y-86132380D01*
X156607142Y-86132380D01*
X156511904Y-86180000D01*
X156464285Y-86227619D01*
X156416666Y-86322857D01*
X156416666Y-86465714D01*
X156464285Y-86560952D01*
X156511904Y-86608571D01*
X156607142Y-86656190D01*
X156988095Y-86656190D01*
X155511904Y-86132380D02*
X155988095Y-86132380D01*
X156035714Y-86608571D01*
X155988095Y-86560952D01*
X155892857Y-86513333D01*
X155654761Y-86513333D01*
X155559523Y-86560952D01*
X155511904Y-86608571D01*
X155464285Y-86703809D01*
X155464285Y-86941904D01*
X155511904Y-87037142D01*
X155559523Y-87084761D01*
X155654761Y-87132380D01*
X155892857Y-87132380D01*
X155988095Y-87084761D01*
X156035714Y-87037142D01*
G04 #@! TO.C,R4*
X156416666Y-84632380D02*
X156750000Y-84156190D01*
X156988095Y-84632380D02*
X156988095Y-83632380D01*
X156607142Y-83632380D01*
X156511904Y-83680000D01*
X156464285Y-83727619D01*
X156416666Y-83822857D01*
X156416666Y-83965714D01*
X156464285Y-84060952D01*
X156511904Y-84108571D01*
X156607142Y-84156190D01*
X156988095Y-84156190D01*
X155559523Y-83965714D02*
X155559523Y-84632380D01*
X155797619Y-83584761D02*
X156035714Y-84299047D01*
X155416666Y-84299047D01*
G04 #@! TO.C,R3*
X156416666Y-82132380D02*
X156750000Y-81656190D01*
X156988095Y-82132380D02*
X156988095Y-81132380D01*
X156607142Y-81132380D01*
X156511904Y-81180000D01*
X156464285Y-81227619D01*
X156416666Y-81322857D01*
X156416666Y-81465714D01*
X156464285Y-81560952D01*
X156511904Y-81608571D01*
X156607142Y-81656190D01*
X156988095Y-81656190D01*
X156083333Y-81132380D02*
X155464285Y-81132380D01*
X155797619Y-81513333D01*
X155654761Y-81513333D01*
X155559523Y-81560952D01*
X155511904Y-81608571D01*
X155464285Y-81703809D01*
X155464285Y-81941904D01*
X155511904Y-82037142D01*
X155559523Y-82084761D01*
X155654761Y-82132380D01*
X155940476Y-82132380D01*
X156035714Y-82084761D01*
X156083333Y-82037142D01*
G04 #@! TO.C,R2*
X156416666Y-79632380D02*
X156750000Y-79156190D01*
X156988095Y-79632380D02*
X156988095Y-78632380D01*
X156607142Y-78632380D01*
X156511904Y-78680000D01*
X156464285Y-78727619D01*
X156416666Y-78822857D01*
X156416666Y-78965714D01*
X156464285Y-79060952D01*
X156511904Y-79108571D01*
X156607142Y-79156190D01*
X156988095Y-79156190D01*
X156035714Y-78727619D02*
X155988095Y-78680000D01*
X155892857Y-78632380D01*
X155654761Y-78632380D01*
X155559523Y-78680000D01*
X155511904Y-78727619D01*
X155464285Y-78822857D01*
X155464285Y-78918095D01*
X155511904Y-79060952D01*
X156083333Y-79632380D01*
X155464285Y-79632380D01*
G04 #@! TO.C,R1*
X156416666Y-77132380D02*
X156750000Y-76656190D01*
X156988095Y-77132380D02*
X156988095Y-76132380D01*
X156607142Y-76132380D01*
X156511904Y-76180000D01*
X156464285Y-76227619D01*
X156416666Y-76322857D01*
X156416666Y-76465714D01*
X156464285Y-76560952D01*
X156511904Y-76608571D01*
X156607142Y-76656190D01*
X156988095Y-76656190D01*
X155464285Y-77132380D02*
X156035714Y-77132380D01*
X155750000Y-77132380D02*
X155750000Y-76132380D01*
X155845238Y-76275238D01*
X155940476Y-76370476D01*
X156035714Y-76418095D01*
G04 #@! TO.C,D10*
X185382380Y-111785714D02*
X184382380Y-111785714D01*
X184382380Y-112023809D01*
X184430000Y-112166666D01*
X184525238Y-112261904D01*
X184620476Y-112309523D01*
X184810952Y-112357142D01*
X184953809Y-112357142D01*
X185144285Y-112309523D01*
X185239523Y-112261904D01*
X185334761Y-112166666D01*
X185382380Y-112023809D01*
X185382380Y-111785714D01*
X185382380Y-113309523D02*
X185382380Y-112738095D01*
X185382380Y-113023809D02*
X184382380Y-113023809D01*
X184525238Y-112928571D01*
X184620476Y-112833333D01*
X184668095Y-112738095D01*
X184382380Y-113928571D02*
X184382380Y-114023809D01*
X184430000Y-114119047D01*
X184477619Y-114166666D01*
X184572857Y-114214285D01*
X184763333Y-114261904D01*
X185001428Y-114261904D01*
X185191904Y-114214285D01*
X185287142Y-114166666D01*
X185334761Y-114119047D01*
X185382380Y-114023809D01*
X185382380Y-113928571D01*
X185334761Y-113833333D01*
X185287142Y-113785714D01*
X185191904Y-113738095D01*
X185001428Y-113690476D01*
X184763333Y-113690476D01*
X184572857Y-113738095D01*
X184477619Y-113785714D01*
X184430000Y-113833333D01*
X184382380Y-113928571D01*
G04 #@! TO.C,D9*
X189022380Y-104761904D02*
X188022380Y-104761904D01*
X188022380Y-105000000D01*
X188070000Y-105142857D01*
X188165238Y-105238095D01*
X188260476Y-105285714D01*
X188450952Y-105333333D01*
X188593809Y-105333333D01*
X188784285Y-105285714D01*
X188879523Y-105238095D01*
X188974761Y-105142857D01*
X189022380Y-105000000D01*
X189022380Y-104761904D01*
X189022380Y-105809523D02*
X189022380Y-106000000D01*
X188974761Y-106095238D01*
X188927142Y-106142857D01*
X188784285Y-106238095D01*
X188593809Y-106285714D01*
X188212857Y-106285714D01*
X188117619Y-106238095D01*
X188070000Y-106190476D01*
X188022380Y-106095238D01*
X188022380Y-105904761D01*
X188070000Y-105809523D01*
X188117619Y-105761904D01*
X188212857Y-105714285D01*
X188450952Y-105714285D01*
X188546190Y-105761904D01*
X188593809Y-105809523D01*
X188641428Y-105904761D01*
X188641428Y-106095238D01*
X188593809Y-106190476D01*
X188546190Y-106238095D01*
X188450952Y-106285714D01*
G04 #@! TO.C,D8*
X166382380Y-112261904D02*
X165382380Y-112261904D01*
X165382380Y-112500000D01*
X165430000Y-112642857D01*
X165525238Y-112738095D01*
X165620476Y-112785714D01*
X165810952Y-112833333D01*
X165953809Y-112833333D01*
X166144285Y-112785714D01*
X166239523Y-112738095D01*
X166334761Y-112642857D01*
X166382380Y-112500000D01*
X166382380Y-112261904D01*
X165810952Y-113404761D02*
X165763333Y-113309523D01*
X165715714Y-113261904D01*
X165620476Y-113214285D01*
X165572857Y-113214285D01*
X165477619Y-113261904D01*
X165430000Y-113309523D01*
X165382380Y-113404761D01*
X165382380Y-113595238D01*
X165430000Y-113690476D01*
X165477619Y-113738095D01*
X165572857Y-113785714D01*
X165620476Y-113785714D01*
X165715714Y-113738095D01*
X165763333Y-113690476D01*
X165810952Y-113595238D01*
X165810952Y-113404761D01*
X165858571Y-113309523D01*
X165906190Y-113261904D01*
X166001428Y-113214285D01*
X166191904Y-113214285D01*
X166287142Y-113261904D01*
X166334761Y-113309523D01*
X166382380Y-113404761D01*
X166382380Y-113595238D01*
X166334761Y-113690476D01*
X166287142Y-113738095D01*
X166191904Y-113785714D01*
X166001428Y-113785714D01*
X165906190Y-113738095D01*
X165858571Y-113690476D01*
X165810952Y-113595238D01*
G04 #@! TO.C,D7*
X170022380Y-104761904D02*
X169022380Y-104761904D01*
X169022380Y-105000000D01*
X169070000Y-105142857D01*
X169165238Y-105238095D01*
X169260476Y-105285714D01*
X169450952Y-105333333D01*
X169593809Y-105333333D01*
X169784285Y-105285714D01*
X169879523Y-105238095D01*
X169974761Y-105142857D01*
X170022380Y-105000000D01*
X170022380Y-104761904D01*
X169022380Y-105666666D02*
X169022380Y-106333333D01*
X170022380Y-105904761D01*
G04 #@! TO.C,D6*
X145382380Y-112261904D02*
X144382380Y-112261904D01*
X144382380Y-112500000D01*
X144430000Y-112642857D01*
X144525238Y-112738095D01*
X144620476Y-112785714D01*
X144810952Y-112833333D01*
X144953809Y-112833333D01*
X145144285Y-112785714D01*
X145239523Y-112738095D01*
X145334761Y-112642857D01*
X145382380Y-112500000D01*
X145382380Y-112261904D01*
X144382380Y-113690476D02*
X144382380Y-113500000D01*
X144430000Y-113404761D01*
X144477619Y-113357142D01*
X144620476Y-113261904D01*
X144810952Y-113214285D01*
X145191904Y-113214285D01*
X145287142Y-113261904D01*
X145334761Y-113309523D01*
X145382380Y-113404761D01*
X145382380Y-113595238D01*
X145334761Y-113690476D01*
X145287142Y-113738095D01*
X145191904Y-113785714D01*
X144953809Y-113785714D01*
X144858571Y-113738095D01*
X144810952Y-113690476D01*
X144763333Y-113595238D01*
X144763333Y-113404761D01*
X144810952Y-113309523D01*
X144858571Y-113261904D01*
X144953809Y-113214285D01*
G04 #@! TO.C,D5*
X149022380Y-104761904D02*
X148022380Y-104761904D01*
X148022380Y-105000000D01*
X148070000Y-105142857D01*
X148165238Y-105238095D01*
X148260476Y-105285714D01*
X148450952Y-105333333D01*
X148593809Y-105333333D01*
X148784285Y-105285714D01*
X148879523Y-105238095D01*
X148974761Y-105142857D01*
X149022380Y-105000000D01*
X149022380Y-104761904D01*
X148022380Y-106238095D02*
X148022380Y-105761904D01*
X148498571Y-105714285D01*
X148450952Y-105761904D01*
X148403333Y-105857142D01*
X148403333Y-106095238D01*
X148450952Y-106190476D01*
X148498571Y-106238095D01*
X148593809Y-106285714D01*
X148831904Y-106285714D01*
X148927142Y-106238095D01*
X148974761Y-106190476D01*
X149022380Y-106095238D01*
X149022380Y-105857142D01*
X148974761Y-105761904D01*
X148927142Y-105714285D01*
G04 #@! TO.C,D4*
X128382380Y-112261904D02*
X127382380Y-112261904D01*
X127382380Y-112500000D01*
X127430000Y-112642857D01*
X127525238Y-112738095D01*
X127620476Y-112785714D01*
X127810952Y-112833333D01*
X127953809Y-112833333D01*
X128144285Y-112785714D01*
X128239523Y-112738095D01*
X128334761Y-112642857D01*
X128382380Y-112500000D01*
X128382380Y-112261904D01*
X127715714Y-113690476D02*
X128382380Y-113690476D01*
X127334761Y-113452380D02*
X128049047Y-113214285D01*
X128049047Y-113833333D01*
G04 #@! TO.C,D3*
X132022380Y-104761904D02*
X131022380Y-104761904D01*
X131022380Y-105000000D01*
X131070000Y-105142857D01*
X131165238Y-105238095D01*
X131260476Y-105285714D01*
X131450952Y-105333333D01*
X131593809Y-105333333D01*
X131784285Y-105285714D01*
X131879523Y-105238095D01*
X131974761Y-105142857D01*
X132022380Y-105000000D01*
X132022380Y-104761904D01*
X131022380Y-105666666D02*
X131022380Y-106285714D01*
X131403333Y-105952380D01*
X131403333Y-106095238D01*
X131450952Y-106190476D01*
X131498571Y-106238095D01*
X131593809Y-106285714D01*
X131831904Y-106285714D01*
X131927142Y-106238095D01*
X131974761Y-106190476D01*
X132022380Y-106095238D01*
X132022380Y-105809523D01*
X131974761Y-105714285D01*
X131927142Y-105666666D01*
G04 #@! TO.C,D2*
X109382380Y-112261904D02*
X108382380Y-112261904D01*
X108382380Y-112500000D01*
X108430000Y-112642857D01*
X108525238Y-112738095D01*
X108620476Y-112785714D01*
X108810952Y-112833333D01*
X108953809Y-112833333D01*
X109144285Y-112785714D01*
X109239523Y-112738095D01*
X109334761Y-112642857D01*
X109382380Y-112500000D01*
X109382380Y-112261904D01*
X108477619Y-113214285D02*
X108430000Y-113261904D01*
X108382380Y-113357142D01*
X108382380Y-113595238D01*
X108430000Y-113690476D01*
X108477619Y-113738095D01*
X108572857Y-113785714D01*
X108668095Y-113785714D01*
X108810952Y-113738095D01*
X109382380Y-113166666D01*
X109382380Y-113785714D01*
G04 #@! TO.C,D1*
X113022380Y-104761904D02*
X112022380Y-104761904D01*
X112022380Y-105000000D01*
X112070000Y-105142857D01*
X112165238Y-105238095D01*
X112260476Y-105285714D01*
X112450952Y-105333333D01*
X112593809Y-105333333D01*
X112784285Y-105285714D01*
X112879523Y-105238095D01*
X112974761Y-105142857D01*
X113022380Y-105000000D01*
X113022380Y-104761904D01*
X113022380Y-106285714D02*
X113022380Y-105714285D01*
X113022380Y-106000000D02*
X112022380Y-106000000D01*
X112165238Y-105904761D01*
X112260476Y-105809523D01*
X112308095Y-105714285D01*
G04 #@! TO.C,C4*
X196207142Y-76833333D02*
X196254761Y-76785714D01*
X196302380Y-76642857D01*
X196302380Y-76547619D01*
X196254761Y-76404761D01*
X196159523Y-76309523D01*
X196064285Y-76261904D01*
X195873809Y-76214285D01*
X195730952Y-76214285D01*
X195540476Y-76261904D01*
X195445238Y-76309523D01*
X195350000Y-76404761D01*
X195302380Y-76547619D01*
X195302380Y-76642857D01*
X195350000Y-76785714D01*
X195397619Y-76833333D01*
X195635714Y-77690476D02*
X196302380Y-77690476D01*
X195254761Y-77452380D02*
X195969047Y-77214285D01*
X195969047Y-77833333D01*
G04 #@! TO.C,C3*
X193207142Y-76833333D02*
X193254761Y-76785714D01*
X193302380Y-76642857D01*
X193302380Y-76547619D01*
X193254761Y-76404761D01*
X193159523Y-76309523D01*
X193064285Y-76261904D01*
X192873809Y-76214285D01*
X192730952Y-76214285D01*
X192540476Y-76261904D01*
X192445238Y-76309523D01*
X192350000Y-76404761D01*
X192302380Y-76547619D01*
X192302380Y-76642857D01*
X192350000Y-76785714D01*
X192397619Y-76833333D01*
X192302380Y-77166666D02*
X192302380Y-77785714D01*
X192683333Y-77452380D01*
X192683333Y-77595238D01*
X192730952Y-77690476D01*
X192778571Y-77738095D01*
X192873809Y-77785714D01*
X193111904Y-77785714D01*
X193207142Y-77738095D01*
X193254761Y-77690476D01*
X193302380Y-77595238D01*
X193302380Y-77309523D01*
X193254761Y-77214285D01*
X193207142Y-77166666D01*
G04 #@! TO.C,B1*
D14*
X152876742Y-60596457D02*
X152789657Y-60625485D01*
X152760628Y-60654514D01*
X152731600Y-60712571D01*
X152731600Y-60799657D01*
X152760628Y-60857714D01*
X152789657Y-60886742D01*
X152847714Y-60915771D01*
X153079942Y-60915771D01*
X153079942Y-60306171D01*
X152876742Y-60306171D01*
X152818685Y-60335200D01*
X152789657Y-60364228D01*
X152760628Y-60422285D01*
X152760628Y-60480342D01*
X152789657Y-60538400D01*
X152818685Y-60567428D01*
X152876742Y-60596457D01*
X153079942Y-60596457D01*
X152151028Y-60915771D02*
X152499371Y-60915771D01*
X152325200Y-60915771D02*
X152325200Y-60306171D01*
X152383257Y-60393257D01*
X152441314Y-60451314D01*
X152499371Y-60480342D01*
X155068400Y-91395771D02*
X155068400Y-90786171D01*
X154836171Y-90786171D01*
X154778114Y-90815200D01*
X154749085Y-90844228D01*
X154720057Y-90902285D01*
X154720057Y-90989371D01*
X154749085Y-91047428D01*
X154778114Y-91076457D01*
X154836171Y-91105485D01*
X155068400Y-91105485D01*
X154110457Y-91395771D02*
X154313657Y-91105485D01*
X154458800Y-91395771D02*
X154458800Y-90786171D01*
X154226571Y-90786171D01*
X154168514Y-90815200D01*
X154139485Y-90844228D01*
X154110457Y-90902285D01*
X154110457Y-90989371D01*
X154139485Y-91047428D01*
X154168514Y-91076457D01*
X154226571Y-91105485D01*
X154458800Y-91105485D01*
X153733085Y-90786171D02*
X153616971Y-90786171D01*
X153558914Y-90815200D01*
X153500857Y-90873257D01*
X153471828Y-90989371D01*
X153471828Y-91192571D01*
X153500857Y-91308685D01*
X153558914Y-91366742D01*
X153616971Y-91395771D01*
X153733085Y-91395771D01*
X153791142Y-91366742D01*
X153849200Y-91308685D01*
X153878228Y-91192571D01*
X153878228Y-90989371D01*
X153849200Y-90873257D01*
X153791142Y-90815200D01*
X153733085Y-90786171D01*
X152746114Y-91395771D02*
X152746114Y-90786171D01*
X152542914Y-91221600D01*
X152339714Y-90786171D01*
X152339714Y-91395771D01*
X152049428Y-91395771D02*
X152049428Y-90786171D01*
X151410800Y-91337714D02*
X151439828Y-91366742D01*
X151526914Y-91395771D01*
X151584971Y-91395771D01*
X151672057Y-91366742D01*
X151730114Y-91308685D01*
X151759142Y-91250628D01*
X151788171Y-91134514D01*
X151788171Y-91047428D01*
X151759142Y-90931314D01*
X151730114Y-90873257D01*
X151672057Y-90815200D01*
X151584971Y-90786171D01*
X151526914Y-90786171D01*
X151439828Y-90815200D01*
X151410800Y-90844228D01*
X150801200Y-91395771D02*
X151004400Y-91105485D01*
X151149542Y-91395771D02*
X151149542Y-90786171D01*
X150917314Y-90786171D01*
X150859257Y-90815200D01*
X150830228Y-90844228D01*
X150801200Y-90902285D01*
X150801200Y-90989371D01*
X150830228Y-91047428D01*
X150859257Y-91076457D01*
X150917314Y-91105485D01*
X151149542Y-91105485D01*
X150423828Y-90786171D02*
X150307714Y-90786171D01*
X150249657Y-90815200D01*
X150191600Y-90873257D01*
X150162571Y-90989371D01*
X150162571Y-91192571D01*
X150191600Y-91308685D01*
X150249657Y-91366742D01*
X150307714Y-91395771D01*
X150423828Y-91395771D01*
X150481885Y-91366742D01*
X150539942Y-91308685D01*
X150568971Y-91192571D01*
X150568971Y-90989371D01*
X150539942Y-90873257D01*
X150481885Y-90815200D01*
X150423828Y-90786171D01*
G04 #@! TD*
M02*
