M48
; DRILL file {KiCad (5.1.8)-1} date 06/03/21 22:45:01
; FORMAT={-:-/ absolute / inch / decimal}
; #@! TF.CreationDate,2021-06-03T22:45:01-04:00
; #@! TF.GenerationSoftware,Kicad,Pcbnew,(5.1.8)-1
FMAT,2
INCH
T1C0.0157
T2C0.0394
T3C0.0400
T4C0.0433
T5C0.0591
T6C0.0669
T7C0.1260
T8C0.1575
%
G90
G05
T1
X4.1634Y-5.1378
X4.1732Y-4.4488
X4.2323Y-5.2067
X4.2913Y-2.9134
X4.2913Y-2.9528
X4.2913Y-2.9921
X4.3307Y-2.9134
X4.3307Y-2.9528
X4.3307Y-2.9921
X4.3701Y-2.9134
X4.3701Y-2.9528
X4.3701Y-2.9921
X4.4094Y-2.9134
X4.4094Y-2.9528
X4.4094Y-2.9921
X4.4488Y-2.9134
X4.4488Y-2.9528
X4.4488Y-2.9921
X4.4882Y-4.4291
X4.6752Y-3.6319
X4.685Y-5.2067
X4.7244Y-3.6319
X4.7343Y-5.2067
X4.8425Y-3.8976
X4.8425Y-3.937
X4.8425Y-3.9764
X4.8425Y-4.0157
X4.8425Y-4.0157
X4.8425Y-4.6457
X4.8425Y-4.685
X4.8425Y-4.7244
X4.8819Y-3.8976
X4.8819Y-3.937
X4.8819Y-3.9764
X4.8819Y-4.0157
X4.8819Y-4.6457
X4.8819Y-4.685
X4.9213Y-3.8976
X4.9213Y-3.937
X4.9213Y-3.9764
X4.9213Y-4.0157
X4.9213Y-4.6457
X4.9213Y-4.8031
X4.9606Y-3.8976
X4.9606Y-3.937
X4.9606Y-3.9764
X4.9606Y-4.0157
X4.9606Y-4.7638
X4.9606Y-4.8031
X5.315Y-2.874
X5.315Y-2.9134
X5.315Y-2.9528
X5.315Y-2.9921
X5.315Y-3.0315
X5.315Y-3.0709
X5.3543Y-2.874
X5.3543Y-2.9134
X5.3543Y-2.9528
X5.3543Y-2.9921
X5.3543Y-3.0315
X5.3543Y-3.0709
X5.4232Y-3.6319
X5.4331Y-5.2067
X5.4724Y-3.6319
X5.4823Y-5.2067
X5.502Y-3.3858
X5.5906Y-3.9764
X5.5906Y-4.0157
X5.5906Y-4.6457
X5.5906Y-4.685
X5.5906Y-4.7244
X5.5906Y-4.7638
X5.6299Y-3.937
X5.6299Y-3.9764
X5.6299Y-4.0157
X5.6299Y-4.6457
X5.6299Y-4.685
X5.6299Y-4.7244
X5.6299Y-4.7638
X5.6398Y-3.7205
X5.6398Y-3.8189
X5.6693Y-3.8976
X5.6693Y-3.937
X5.6693Y-3.9764
X5.6693Y-4.0157
X5.6693Y-4.6457
X5.6693Y-4.685
X5.6693Y-4.7244
X5.6693Y-4.7638
X5.7087Y-3.8976
X5.7087Y-3.937
X5.7087Y-3.9764
X5.7087Y-4.0157
X5.7087Y-4.6457
X5.7087Y-4.685
X5.7087Y-4.7244
X5.7087Y-4.7244
X5.7087Y-4.7638
X5.7874Y-2.7559
X5.7874Y-2.7953
X5.8268Y-2.7559
X5.8268Y-2.7953
X5.8661Y-2.7559
X5.8661Y-2.7953
X5.9055Y-2.7559
X5.9055Y-2.7953
X5.9547Y-3.7303
X5.9547Y-3.8189
X6.0039Y-3.5728
X6.1614Y-4.1831
X6.1811Y-3.6319
X6.1811Y-5.2067
X6.2008Y-3.5827
X6.2205Y-2.874
X6.2205Y-4.1339
X6.2205Y-4.1732
X6.2303Y-3.6319
X6.2303Y-5.2067
X6.25Y-4.2717
X6.2598Y-4.0945
X6.2598Y-4.1339
X6.2598Y-4.1732
X6.2992Y-4.0157
X6.2992Y-4.0551
X6.2992Y-4.0945
X6.2992Y-4.1339
X6.2992Y-4.1732
X6.3386Y-4.0157
X6.3386Y-4.0551
X6.3386Y-4.0945
X6.3386Y-4.1339
X6.3386Y-4.1732
X6.3386Y-4.6457
X6.3386Y-4.685
X6.3386Y-4.7244
X6.3386Y-4.7638
X6.378Y-4.6457
X6.378Y-4.685
X6.378Y-4.7244
X6.378Y-4.7638
X6.3976Y-3.435
X6.3976Y-3.7008
X6.3976Y-4.2815
X6.4173Y-4.6457
X6.4173Y-4.685
X6.4173Y-4.7244
X6.4173Y-4.7638
X6.4567Y-2.9528
X6.4567Y-2.9921
X6.4567Y-3.0315
X6.4567Y-3.0709
X6.4567Y-3.1102
X6.4567Y-4.6457
X6.4567Y-4.685
X6.4567Y-4.7244
X6.4567Y-4.7638
X6.4862Y-3.6811
X6.4862Y-4.189
X6.4961Y-2.9528
X6.4961Y-2.9921
X6.4961Y-3.0315
X6.4961Y-3.0709
X6.4961Y-3.1102
X6.5256Y-3.4941
X6.5354Y-2.9528
X6.5354Y-2.9921
X6.5354Y-3.0315
X6.5354Y-3.0709
X6.5354Y-3.1102
X6.5551Y-3.6811
X6.5748Y-2.8346
X6.6831Y-4.1929
X6.7323Y-3.622
X6.9291Y-3.6319
X6.9291Y-5.2067
X6.9783Y-3.6319
X6.9783Y-5.2067
X7.0866Y-3.9764
X7.0866Y-4.0157
X7.0866Y-4.6457
X7.0866Y-4.685
X7.0866Y-4.7244
X7.0866Y-4.7638
X7.126Y-3.937
X7.126Y-3.9764
X7.126Y-4.0157
X7.126Y-4.6457
X7.126Y-4.685
X7.126Y-4.7244
X7.126Y-4.7638
X7.1654Y-3.8976
X7.1654Y-3.937
X7.1654Y-3.9764
X7.1654Y-4.0157
X7.1654Y-4.6457
X7.1654Y-4.685
X7.1654Y-4.7244
X7.1654Y-4.7638
X7.2047Y-3.1496
X7.2047Y-3.8976
X7.2047Y-3.937
X7.2047Y-3.9764
X7.2047Y-4.0157
X7.2047Y-4.6457
X7.2047Y-4.685
X7.2047Y-4.7244
X7.2047Y-4.7638
X7.4016Y-3.1496
X7.5197Y-2.6772
X7.5197Y-2.9134
X7.6083Y-5.2657
X7.6083Y-5.315
X7.6378Y-2.9134
X7.6772Y-3.6319
X7.7264Y-3.6319
X7.9528Y-5.2756
X7.9724Y-2.5295
X8.0413Y-2.4606
X8.0512Y-5.1378
X8.1299Y-5.2067
T2
X4.3701Y-2.7953
X4.4701Y-2.7953
X4.5701Y-2.7953
X7.7559Y-3.1102
X7.7559Y-3.2102
X7.7559Y-3.3102
X7.2047Y-2.7953
X7.3047Y-2.7953
X7.4047Y-2.7953
X7.5047Y-2.7953
X7.6047Y-2.7953
X4.8425Y-2.7953
X4.9425Y-2.7953
X5.0425Y-2.7953
X5.1425Y-2.7953
X5.2425Y-2.7953
X5.3425Y-2.7953
X5.4425Y-2.7953
X4.252Y-3.2071
X4.252Y-3.3071
T3
X5.7091Y-2.4874
X5.7091Y-2.5874
X5.7091Y-2.6874
X5.7091Y-2.7874
X5.7091Y-2.8874
X5.7091Y-2.9874
X5.7091Y-3.0874
X5.7091Y-3.1874
X5.7091Y-3.2874
X5.7091Y-3.3874
X5.7091Y-3.4874
X5.7091Y-3.5874
X6.3091Y-2.4874
X6.3091Y-2.5874
X6.3091Y-2.6874
X6.3091Y-2.7874
X6.3091Y-2.8874
X6.3091Y-2.9874
X6.3091Y-3.0874
X6.3091Y-3.1874
X6.3091Y-3.2874
X6.3091Y-3.3874
X6.3091Y-3.4874
X6.3091Y-3.5874
T4
X6.4961Y-2.5394
X6.4961Y-2.7165
X6.752Y-2.5394
X6.752Y-2.7165
T5
X5.8594Y-3.8732
X6.1094Y-3.7732
X4.3587Y-4.6232
X4.6087Y-4.5232
X5.1094Y-3.8736
X5.3594Y-3.7736
X7.3583Y-4.6236
X7.6083Y-4.5236
X4.3598Y-3.8728
X4.6098Y-3.7728
X6.6091Y-3.8728
X6.8591Y-3.7728
X5.1087Y-4.6224
X5.3587Y-4.5224
X7.3594Y-3.8724
X7.6094Y-3.7724
X6.6094Y-4.6236
X6.8594Y-4.5236
X5.8587Y-4.6228
X6.1087Y-4.5228
T6
X6.5591Y-3.9728
X6.9591Y-3.9728
X5.0587Y-4.7224
X5.4587Y-4.7224
X7.3094Y-3.9724
X7.7094Y-3.9724
X6.5594Y-4.7236
X6.9594Y-4.7236
X5.8087Y-4.7228
X6.2087Y-4.7228
X5.8094Y-3.9732
X6.2094Y-3.9732
X4.3087Y-4.7232
X4.7087Y-4.7232
X5.0594Y-3.9736
X5.4594Y-3.9736
X7.3083Y-4.7236
X7.7083Y-4.7236
X4.3098Y-3.9728
X4.7098Y-3.9728
T7
X3.9764Y-4.9606
X8.0315Y-4.9606
X8.0315Y-3.7402
X3.9764Y-3.7402
T8
X7.5083Y-4.7236
X5.2587Y-4.7224
X7.5094Y-3.9724
X6.7594Y-4.7236
X6.0094Y-3.9732
X4.5098Y-3.9728
X6.0087Y-4.7228
X4.5087Y-4.7232
X5.2594Y-3.9736
X6.7591Y-3.9728
T0
M30
