G04 #@! TF.GenerationSoftware,KiCad,Pcbnew,(5.1.8)-1*
G04 #@! TF.CreationDate,2021-06-03T22:44:18-04:00*
G04 #@! TF.ProjectId,inkkeys,696e6b6b-6579-4732-9e6b-696361645f70,rev?*
G04 #@! TF.SameCoordinates,Original*
G04 #@! TF.FileFunction,Paste,Bot*
G04 #@! TF.FilePolarity,Positive*
%FSLAX46Y46*%
G04 Gerber Fmt 4.6, Leading zero omitted, Abs format (unit mm)*
G04 Created by KiCad (PCBNEW (5.1.8)-1) date 2021-06-03 22:44:18*
%MOMM*%
%LPD*%
G01*
G04 APERTURE LIST*
G04 #@! TA.AperFunction,Profile*
%ADD10C,0.100000*%
G04 #@! TD*
%ADD11R,1.500000X1.000000*%
G04 APERTURE END LIST*
D10*
X202000000Y-60000000D02*
G75*
G02*
X208000000Y-66000000I0J-6000000D01*
G01*
X208000000Y-134000000D02*
G75*
G02*
X202000000Y-140000000I-6000000J0D01*
G01*
X103000000Y-140000000D02*
G75*
G02*
X97000000Y-134000000I0J6000000D01*
G01*
X97000000Y-66000000D02*
G75*
G02*
X103000000Y-60000000I6000000J0D01*
G01*
X97000000Y-134000000D02*
X97000000Y-66000000D01*
X202000000Y-140000000D02*
X103000000Y-140000000D01*
X208000000Y-66000000D02*
X208000000Y-134000000D01*
X103000000Y-60000000D02*
X202000000Y-60000000D01*
G04 #@! TO.C,C2*
G36*
G01*
X187349999Y-77900000D02*
X188650001Y-77900000D01*
G75*
G02*
X188900000Y-78149999I0J-249999D01*
G01*
X188900000Y-78975001D01*
G75*
G02*
X188650001Y-79225000I-249999J0D01*
G01*
X187349999Y-79225000D01*
G75*
G02*
X187100000Y-78975001I0J249999D01*
G01*
X187100000Y-78149999D01*
G75*
G02*
X187349999Y-77900000I249999J0D01*
G01*
G37*
G36*
G01*
X187349999Y-74775000D02*
X188650001Y-74775000D01*
G75*
G02*
X188900000Y-75024999I0J-249999D01*
G01*
X188900000Y-75850001D01*
G75*
G02*
X188650001Y-76100000I-249999J0D01*
G01*
X187349999Y-76100000D01*
G75*
G02*
X187100000Y-75850001I0J249999D01*
G01*
X187100000Y-75024999D01*
G75*
G02*
X187349999Y-74775000I249999J0D01*
G01*
G37*
G04 #@! TD*
G04 #@! TO.C,C1*
G36*
G01*
X182349999Y-77900000D02*
X183650001Y-77900000D01*
G75*
G02*
X183900000Y-78149999I0J-249999D01*
G01*
X183900000Y-78975001D01*
G75*
G02*
X183650001Y-79225000I-249999J0D01*
G01*
X182349999Y-79225000D01*
G75*
G02*
X182100000Y-78975001I0J249999D01*
G01*
X182100000Y-78149999D01*
G75*
G02*
X182349999Y-77900000I249999J0D01*
G01*
G37*
G36*
G01*
X182349999Y-74775000D02*
X183650001Y-74775000D01*
G75*
G02*
X183900000Y-75024999I0J-249999D01*
G01*
X183900000Y-75850001D01*
G75*
G02*
X183650001Y-76100000I-249999J0D01*
G01*
X182349999Y-76100000D01*
G75*
G02*
X182100000Y-75850001I0J249999D01*
G01*
X182100000Y-75024999D01*
G75*
G02*
X182349999Y-74775000I249999J0D01*
G01*
G37*
G04 #@! TD*
D11*
G04 #@! TO.C,D23*
X151550000Y-111600000D03*
X151550000Y-108400000D03*
X156450000Y-111600000D03*
X156450000Y-108400000D03*
G04 #@! TD*
G04 #@! TO.C,D20*
X100550000Y-135600000D03*
X100550000Y-132400000D03*
X105450000Y-135600000D03*
X105450000Y-132400000D03*
G04 #@! TD*
G04 #@! TO.C,D17*
X100550000Y-67600000D03*
X100550000Y-64400000D03*
X105450000Y-67600000D03*
X105450000Y-64400000D03*
G04 #@! TD*
G04 #@! TO.C,D14*
X199550000Y-67600000D03*
X199550000Y-64400000D03*
X204450000Y-67600000D03*
X204450000Y-64400000D03*
G04 #@! TD*
G04 #@! TO.C,D11*
X199550000Y-135600000D03*
X199550000Y-132400000D03*
X204450000Y-135600000D03*
X204450000Y-132400000D03*
G04 #@! TD*
G04 #@! TO.C,R10*
G36*
G01*
X115400000Y-84625000D02*
X115400000Y-83375000D01*
G75*
G02*
X115650000Y-83125000I250000J0D01*
G01*
X116450000Y-83125000D01*
G75*
G02*
X116700000Y-83375000I0J-250000D01*
G01*
X116700000Y-84625000D01*
G75*
G02*
X116450000Y-84875000I-250000J0D01*
G01*
X115650000Y-84875000D01*
G75*
G02*
X115400000Y-84625000I0J250000D01*
G01*
G37*
G36*
G01*
X112300000Y-84625000D02*
X112300000Y-83375000D01*
G75*
G02*
X112550000Y-83125000I250000J0D01*
G01*
X113350000Y-83125000D01*
G75*
G02*
X113600000Y-83375000I0J-250000D01*
G01*
X113600000Y-84625000D01*
G75*
G02*
X113350000Y-84875000I-250000J0D01*
G01*
X112550000Y-84875000D01*
G75*
G02*
X112300000Y-84625000I0J250000D01*
G01*
G37*
G04 #@! TD*
G04 #@! TO.C,R9*
G36*
G01*
X187375000Y-66900000D02*
X188625000Y-66900000D01*
G75*
G02*
X188875000Y-67150000I0J-250000D01*
G01*
X188875000Y-67950000D01*
G75*
G02*
X188625000Y-68200000I-250000J0D01*
G01*
X187375000Y-68200000D01*
G75*
G02*
X187125000Y-67950000I0J250000D01*
G01*
X187125000Y-67150000D01*
G75*
G02*
X187375000Y-66900000I250000J0D01*
G01*
G37*
G36*
G01*
X187375000Y-63800000D02*
X188625000Y-63800000D01*
G75*
G02*
X188875000Y-64050000I0J-250000D01*
G01*
X188875000Y-64850000D01*
G75*
G02*
X188625000Y-65100000I-250000J0D01*
G01*
X187375000Y-65100000D01*
G75*
G02*
X187125000Y-64850000I0J250000D01*
G01*
X187125000Y-64050000D01*
G75*
G02*
X187375000Y-63800000I250000J0D01*
G01*
G37*
G04 #@! TD*
G04 #@! TO.C,R8*
G36*
G01*
X184875000Y-77900000D02*
X186125000Y-77900000D01*
G75*
G02*
X186375000Y-78150000I0J-250000D01*
G01*
X186375000Y-78950000D01*
G75*
G02*
X186125000Y-79200000I-250000J0D01*
G01*
X184875000Y-79200000D01*
G75*
G02*
X184625000Y-78950000I0J250000D01*
G01*
X184625000Y-78150000D01*
G75*
G02*
X184875000Y-77900000I250000J0D01*
G01*
G37*
G36*
G01*
X184875000Y-74800000D02*
X186125000Y-74800000D01*
G75*
G02*
X186375000Y-75050000I0J-250000D01*
G01*
X186375000Y-75850000D01*
G75*
G02*
X186125000Y-76100000I-250000J0D01*
G01*
X184875000Y-76100000D01*
G75*
G02*
X184625000Y-75850000I0J250000D01*
G01*
X184625000Y-75050000D01*
G75*
G02*
X184875000Y-74800000I250000J0D01*
G01*
G37*
G04 #@! TD*
G04 #@! TO.C,R7*
G36*
G01*
X182375000Y-66900000D02*
X183625000Y-66900000D01*
G75*
G02*
X183875000Y-67150000I0J-250000D01*
G01*
X183875000Y-67950000D01*
G75*
G02*
X183625000Y-68200000I-250000J0D01*
G01*
X182375000Y-68200000D01*
G75*
G02*
X182125000Y-67950000I0J250000D01*
G01*
X182125000Y-67150000D01*
G75*
G02*
X182375000Y-66900000I250000J0D01*
G01*
G37*
G36*
G01*
X182375000Y-63800000D02*
X183625000Y-63800000D01*
G75*
G02*
X183875000Y-64050000I0J-250000D01*
G01*
X183875000Y-64850000D01*
G75*
G02*
X183625000Y-65100000I-250000J0D01*
G01*
X182375000Y-65100000D01*
G75*
G02*
X182125000Y-64850000I0J250000D01*
G01*
X182125000Y-64050000D01*
G75*
G02*
X182375000Y-63800000I250000J0D01*
G01*
G37*
G04 #@! TD*
G04 #@! TO.C,R6*
G36*
G01*
X179875000Y-77900000D02*
X181125000Y-77900000D01*
G75*
G02*
X181375000Y-78150000I0J-250000D01*
G01*
X181375000Y-78950000D01*
G75*
G02*
X181125000Y-79200000I-250000J0D01*
G01*
X179875000Y-79200000D01*
G75*
G02*
X179625000Y-78950000I0J250000D01*
G01*
X179625000Y-78150000D01*
G75*
G02*
X179875000Y-77900000I250000J0D01*
G01*
G37*
G36*
G01*
X179875000Y-74800000D02*
X181125000Y-74800000D01*
G75*
G02*
X181375000Y-75050000I0J-250000D01*
G01*
X181375000Y-75850000D01*
G75*
G02*
X181125000Y-76100000I-250000J0D01*
G01*
X179875000Y-76100000D01*
G75*
G02*
X179625000Y-75850000I0J250000D01*
G01*
X179625000Y-75050000D01*
G75*
G02*
X179875000Y-74800000I250000J0D01*
G01*
G37*
G04 #@! TD*
G04 #@! TO.C,R5*
G36*
G01*
X155350000Y-87875000D02*
X155350000Y-89125000D01*
G75*
G02*
X155100000Y-89375000I-250000J0D01*
G01*
X154300000Y-89375000D01*
G75*
G02*
X154050000Y-89125000I0J250000D01*
G01*
X154050000Y-87875000D01*
G75*
G02*
X154300000Y-87625000I250000J0D01*
G01*
X155100000Y-87625000D01*
G75*
G02*
X155350000Y-87875000I0J-250000D01*
G01*
G37*
G36*
G01*
X158450000Y-87875000D02*
X158450000Y-89125000D01*
G75*
G02*
X158200000Y-89375000I-250000J0D01*
G01*
X157400000Y-89375000D01*
G75*
G02*
X157150000Y-89125000I0J250000D01*
G01*
X157150000Y-87875000D01*
G75*
G02*
X157400000Y-87625000I250000J0D01*
G01*
X158200000Y-87625000D01*
G75*
G02*
X158450000Y-87875000I0J-250000D01*
G01*
G37*
G04 #@! TD*
G04 #@! TO.C,R4*
G36*
G01*
X155350000Y-85375000D02*
X155350000Y-86625000D01*
G75*
G02*
X155100000Y-86875000I-250000J0D01*
G01*
X154300000Y-86875000D01*
G75*
G02*
X154050000Y-86625000I0J250000D01*
G01*
X154050000Y-85375000D01*
G75*
G02*
X154300000Y-85125000I250000J0D01*
G01*
X155100000Y-85125000D01*
G75*
G02*
X155350000Y-85375000I0J-250000D01*
G01*
G37*
G36*
G01*
X158450000Y-85375000D02*
X158450000Y-86625000D01*
G75*
G02*
X158200000Y-86875000I-250000J0D01*
G01*
X157400000Y-86875000D01*
G75*
G02*
X157150000Y-86625000I0J250000D01*
G01*
X157150000Y-85375000D01*
G75*
G02*
X157400000Y-85125000I250000J0D01*
G01*
X158200000Y-85125000D01*
G75*
G02*
X158450000Y-85375000I0J-250000D01*
G01*
G37*
G04 #@! TD*
G04 #@! TO.C,R3*
G36*
G01*
X155350000Y-82875000D02*
X155350000Y-84125000D01*
G75*
G02*
X155100000Y-84375000I-250000J0D01*
G01*
X154300000Y-84375000D01*
G75*
G02*
X154050000Y-84125000I0J250000D01*
G01*
X154050000Y-82875000D01*
G75*
G02*
X154300000Y-82625000I250000J0D01*
G01*
X155100000Y-82625000D01*
G75*
G02*
X155350000Y-82875000I0J-250000D01*
G01*
G37*
G36*
G01*
X158450000Y-82875000D02*
X158450000Y-84125000D01*
G75*
G02*
X158200000Y-84375000I-250000J0D01*
G01*
X157400000Y-84375000D01*
G75*
G02*
X157150000Y-84125000I0J250000D01*
G01*
X157150000Y-82875000D01*
G75*
G02*
X157400000Y-82625000I250000J0D01*
G01*
X158200000Y-82625000D01*
G75*
G02*
X158450000Y-82875000I0J-250000D01*
G01*
G37*
G04 #@! TD*
G04 #@! TO.C,R2*
G36*
G01*
X155350000Y-80375000D02*
X155350000Y-81625000D01*
G75*
G02*
X155100000Y-81875000I-250000J0D01*
G01*
X154300000Y-81875000D01*
G75*
G02*
X154050000Y-81625000I0J250000D01*
G01*
X154050000Y-80375000D01*
G75*
G02*
X154300000Y-80125000I250000J0D01*
G01*
X155100000Y-80125000D01*
G75*
G02*
X155350000Y-80375000I0J-250000D01*
G01*
G37*
G36*
G01*
X158450000Y-80375000D02*
X158450000Y-81625000D01*
G75*
G02*
X158200000Y-81875000I-250000J0D01*
G01*
X157400000Y-81875000D01*
G75*
G02*
X157150000Y-81625000I0J250000D01*
G01*
X157150000Y-80375000D01*
G75*
G02*
X157400000Y-80125000I250000J0D01*
G01*
X158200000Y-80125000D01*
G75*
G02*
X158450000Y-80375000I0J-250000D01*
G01*
G37*
G04 #@! TD*
G04 #@! TO.C,R1*
G36*
G01*
X155350000Y-77875000D02*
X155350000Y-79125000D01*
G75*
G02*
X155100000Y-79375000I-250000J0D01*
G01*
X154300000Y-79375000D01*
G75*
G02*
X154050000Y-79125000I0J250000D01*
G01*
X154050000Y-77875000D01*
G75*
G02*
X154300000Y-77625000I250000J0D01*
G01*
X155100000Y-77625000D01*
G75*
G02*
X155350000Y-77875000I0J-250000D01*
G01*
G37*
G36*
G01*
X158450000Y-77875000D02*
X158450000Y-79125000D01*
G75*
G02*
X158200000Y-79375000I-250000J0D01*
G01*
X157400000Y-79375000D01*
G75*
G02*
X157150000Y-79125000I0J250000D01*
G01*
X157150000Y-77875000D01*
G75*
G02*
X157400000Y-77625000I250000J0D01*
G01*
X158200000Y-77625000D01*
G75*
G02*
X158450000Y-77875000I0J-250000D01*
G01*
G37*
G04 #@! TD*
G04 #@! TO.C,D10*
G36*
G01*
X186125000Y-113775000D02*
X187375000Y-113775000D01*
G75*
G02*
X187625000Y-114025000I0J-250000D01*
G01*
X187625000Y-114950000D01*
G75*
G02*
X187375000Y-115200000I-250000J0D01*
G01*
X186125000Y-115200000D01*
G75*
G02*
X185875000Y-114950000I0J250000D01*
G01*
X185875000Y-114025000D01*
G75*
G02*
X186125000Y-113775000I250000J0D01*
G01*
G37*
G36*
G01*
X186125000Y-110800000D02*
X187375000Y-110800000D01*
G75*
G02*
X187625000Y-111050000I0J-250000D01*
G01*
X187625000Y-111975000D01*
G75*
G02*
X187375000Y-112225000I-250000J0D01*
G01*
X186125000Y-112225000D01*
G75*
G02*
X185875000Y-111975000I0J250000D01*
G01*
X185875000Y-111050000D01*
G75*
G02*
X186125000Y-110800000I250000J0D01*
G01*
G37*
G04 #@! TD*
G04 #@! TO.C,D9*
G36*
G01*
X187375000Y-104725000D02*
X186125000Y-104725000D01*
G75*
G02*
X185875000Y-104475000I0J250000D01*
G01*
X185875000Y-103550000D01*
G75*
G02*
X186125000Y-103300000I250000J0D01*
G01*
X187375000Y-103300000D01*
G75*
G02*
X187625000Y-103550000I0J-250000D01*
G01*
X187625000Y-104475000D01*
G75*
G02*
X187375000Y-104725000I-250000J0D01*
G01*
G37*
G36*
G01*
X187375000Y-107700000D02*
X186125000Y-107700000D01*
G75*
G02*
X185875000Y-107450000I0J250000D01*
G01*
X185875000Y-106525000D01*
G75*
G02*
X186125000Y-106275000I250000J0D01*
G01*
X187375000Y-106275000D01*
G75*
G02*
X187625000Y-106525000I0J-250000D01*
G01*
X187625000Y-107450000D01*
G75*
G02*
X187375000Y-107700000I-250000J0D01*
G01*
G37*
G04 #@! TD*
G04 #@! TO.C,D8*
G36*
G01*
X167125000Y-113775000D02*
X168375000Y-113775000D01*
G75*
G02*
X168625000Y-114025000I0J-250000D01*
G01*
X168625000Y-114950000D01*
G75*
G02*
X168375000Y-115200000I-250000J0D01*
G01*
X167125000Y-115200000D01*
G75*
G02*
X166875000Y-114950000I0J250000D01*
G01*
X166875000Y-114025000D01*
G75*
G02*
X167125000Y-113775000I250000J0D01*
G01*
G37*
G36*
G01*
X167125000Y-110800000D02*
X168375000Y-110800000D01*
G75*
G02*
X168625000Y-111050000I0J-250000D01*
G01*
X168625000Y-111975000D01*
G75*
G02*
X168375000Y-112225000I-250000J0D01*
G01*
X167125000Y-112225000D01*
G75*
G02*
X166875000Y-111975000I0J250000D01*
G01*
X166875000Y-111050000D01*
G75*
G02*
X167125000Y-110800000I250000J0D01*
G01*
G37*
G04 #@! TD*
G04 #@! TO.C,D7*
G36*
G01*
X168375000Y-104725000D02*
X167125000Y-104725000D01*
G75*
G02*
X166875000Y-104475000I0J250000D01*
G01*
X166875000Y-103550000D01*
G75*
G02*
X167125000Y-103300000I250000J0D01*
G01*
X168375000Y-103300000D01*
G75*
G02*
X168625000Y-103550000I0J-250000D01*
G01*
X168625000Y-104475000D01*
G75*
G02*
X168375000Y-104725000I-250000J0D01*
G01*
G37*
G36*
G01*
X168375000Y-107700000D02*
X167125000Y-107700000D01*
G75*
G02*
X166875000Y-107450000I0J250000D01*
G01*
X166875000Y-106525000D01*
G75*
G02*
X167125000Y-106275000I250000J0D01*
G01*
X168375000Y-106275000D01*
G75*
G02*
X168625000Y-106525000I0J-250000D01*
G01*
X168625000Y-107450000D01*
G75*
G02*
X168375000Y-107700000I-250000J0D01*
G01*
G37*
G04 #@! TD*
G04 #@! TO.C,D6*
G36*
G01*
X146125000Y-113775000D02*
X147375000Y-113775000D01*
G75*
G02*
X147625000Y-114025000I0J-250000D01*
G01*
X147625000Y-114950000D01*
G75*
G02*
X147375000Y-115200000I-250000J0D01*
G01*
X146125000Y-115200000D01*
G75*
G02*
X145875000Y-114950000I0J250000D01*
G01*
X145875000Y-114025000D01*
G75*
G02*
X146125000Y-113775000I250000J0D01*
G01*
G37*
G36*
G01*
X146125000Y-110800000D02*
X147375000Y-110800000D01*
G75*
G02*
X147625000Y-111050000I0J-250000D01*
G01*
X147625000Y-111975000D01*
G75*
G02*
X147375000Y-112225000I-250000J0D01*
G01*
X146125000Y-112225000D01*
G75*
G02*
X145875000Y-111975000I0J250000D01*
G01*
X145875000Y-111050000D01*
G75*
G02*
X146125000Y-110800000I250000J0D01*
G01*
G37*
G04 #@! TD*
G04 #@! TO.C,D5*
G36*
G01*
X147375000Y-104725000D02*
X146125000Y-104725000D01*
G75*
G02*
X145875000Y-104475000I0J250000D01*
G01*
X145875000Y-103550000D01*
G75*
G02*
X146125000Y-103300000I250000J0D01*
G01*
X147375000Y-103300000D01*
G75*
G02*
X147625000Y-103550000I0J-250000D01*
G01*
X147625000Y-104475000D01*
G75*
G02*
X147375000Y-104725000I-250000J0D01*
G01*
G37*
G36*
G01*
X147375000Y-107700000D02*
X146125000Y-107700000D01*
G75*
G02*
X145875000Y-107450000I0J250000D01*
G01*
X145875000Y-106525000D01*
G75*
G02*
X146125000Y-106275000I250000J0D01*
G01*
X147375000Y-106275000D01*
G75*
G02*
X147625000Y-106525000I0J-250000D01*
G01*
X147625000Y-107450000D01*
G75*
G02*
X147375000Y-107700000I-250000J0D01*
G01*
G37*
G04 #@! TD*
G04 #@! TO.C,D4*
G36*
G01*
X129125000Y-113775000D02*
X130375000Y-113775000D01*
G75*
G02*
X130625000Y-114025000I0J-250000D01*
G01*
X130625000Y-114950000D01*
G75*
G02*
X130375000Y-115200000I-250000J0D01*
G01*
X129125000Y-115200000D01*
G75*
G02*
X128875000Y-114950000I0J250000D01*
G01*
X128875000Y-114025000D01*
G75*
G02*
X129125000Y-113775000I250000J0D01*
G01*
G37*
G36*
G01*
X129125000Y-110800000D02*
X130375000Y-110800000D01*
G75*
G02*
X130625000Y-111050000I0J-250000D01*
G01*
X130625000Y-111975000D01*
G75*
G02*
X130375000Y-112225000I-250000J0D01*
G01*
X129125000Y-112225000D01*
G75*
G02*
X128875000Y-111975000I0J250000D01*
G01*
X128875000Y-111050000D01*
G75*
G02*
X129125000Y-110800000I250000J0D01*
G01*
G37*
G04 #@! TD*
G04 #@! TO.C,D3*
G36*
G01*
X130375000Y-104725000D02*
X129125000Y-104725000D01*
G75*
G02*
X128875000Y-104475000I0J250000D01*
G01*
X128875000Y-103550000D01*
G75*
G02*
X129125000Y-103300000I250000J0D01*
G01*
X130375000Y-103300000D01*
G75*
G02*
X130625000Y-103550000I0J-250000D01*
G01*
X130625000Y-104475000D01*
G75*
G02*
X130375000Y-104725000I-250000J0D01*
G01*
G37*
G36*
G01*
X130375000Y-107700000D02*
X129125000Y-107700000D01*
G75*
G02*
X128875000Y-107450000I0J250000D01*
G01*
X128875000Y-106525000D01*
G75*
G02*
X129125000Y-106275000I250000J0D01*
G01*
X130375000Y-106275000D01*
G75*
G02*
X130625000Y-106525000I0J-250000D01*
G01*
X130625000Y-107450000D01*
G75*
G02*
X130375000Y-107700000I-250000J0D01*
G01*
G37*
G04 #@! TD*
G04 #@! TO.C,D2*
G36*
G01*
X110125000Y-113775000D02*
X111375000Y-113775000D01*
G75*
G02*
X111625000Y-114025000I0J-250000D01*
G01*
X111625000Y-114950000D01*
G75*
G02*
X111375000Y-115200000I-250000J0D01*
G01*
X110125000Y-115200000D01*
G75*
G02*
X109875000Y-114950000I0J250000D01*
G01*
X109875000Y-114025000D01*
G75*
G02*
X110125000Y-113775000I250000J0D01*
G01*
G37*
G36*
G01*
X110125000Y-110800000D02*
X111375000Y-110800000D01*
G75*
G02*
X111625000Y-111050000I0J-250000D01*
G01*
X111625000Y-111975000D01*
G75*
G02*
X111375000Y-112225000I-250000J0D01*
G01*
X110125000Y-112225000D01*
G75*
G02*
X109875000Y-111975000I0J250000D01*
G01*
X109875000Y-111050000D01*
G75*
G02*
X110125000Y-110800000I250000J0D01*
G01*
G37*
G04 #@! TD*
G04 #@! TO.C,D1*
G36*
G01*
X111375000Y-104725000D02*
X110125000Y-104725000D01*
G75*
G02*
X109875000Y-104475000I0J250000D01*
G01*
X109875000Y-103550000D01*
G75*
G02*
X110125000Y-103300000I250000J0D01*
G01*
X111375000Y-103300000D01*
G75*
G02*
X111625000Y-103550000I0J-250000D01*
G01*
X111625000Y-104475000D01*
G75*
G02*
X111375000Y-104725000I-250000J0D01*
G01*
G37*
G36*
G01*
X111375000Y-107700000D02*
X110125000Y-107700000D01*
G75*
G02*
X109875000Y-107450000I0J250000D01*
G01*
X109875000Y-106525000D01*
G75*
G02*
X110125000Y-106275000I250000J0D01*
G01*
X111375000Y-106275000D01*
G75*
G02*
X111625000Y-106525000I0J-250000D01*
G01*
X111625000Y-107450000D01*
G75*
G02*
X111375000Y-107700000I-250000J0D01*
G01*
G37*
G04 #@! TD*
G04 #@! TO.C,C4*
G36*
G01*
X194650001Y-76100000D02*
X193349999Y-76100000D01*
G75*
G02*
X193100000Y-75850001I0J249999D01*
G01*
X193100000Y-75024999D01*
G75*
G02*
X193349999Y-74775000I249999J0D01*
G01*
X194650001Y-74775000D01*
G75*
G02*
X194900000Y-75024999I0J-249999D01*
G01*
X194900000Y-75850001D01*
G75*
G02*
X194650001Y-76100000I-249999J0D01*
G01*
G37*
G36*
G01*
X194650001Y-79225000D02*
X193349999Y-79225000D01*
G75*
G02*
X193100000Y-78975001I0J249999D01*
G01*
X193100000Y-78149999D01*
G75*
G02*
X193349999Y-77900000I249999J0D01*
G01*
X194650001Y-77900000D01*
G75*
G02*
X194900000Y-78149999I0J-249999D01*
G01*
X194900000Y-78975001D01*
G75*
G02*
X194650001Y-79225000I-249999J0D01*
G01*
G37*
G04 #@! TD*
G04 #@! TO.C,C3*
G36*
G01*
X191650001Y-76100000D02*
X190349999Y-76100000D01*
G75*
G02*
X190100000Y-75850001I0J249999D01*
G01*
X190100000Y-75024999D01*
G75*
G02*
X190349999Y-74775000I249999J0D01*
G01*
X191650001Y-74775000D01*
G75*
G02*
X191900000Y-75024999I0J-249999D01*
G01*
X191900000Y-75850001D01*
G75*
G02*
X191650001Y-76100000I-249999J0D01*
G01*
G37*
G36*
G01*
X191650001Y-79225000D02*
X190349999Y-79225000D01*
G75*
G02*
X190100000Y-78975001I0J249999D01*
G01*
X190100000Y-78149999D01*
G75*
G02*
X190349999Y-77900000I249999J0D01*
G01*
X191650001Y-77900000D01*
G75*
G02*
X191900000Y-78149999I0J-249999D01*
G01*
X191900000Y-78975001D01*
G75*
G02*
X191650001Y-79225000I-249999J0D01*
G01*
G37*
G04 #@! TD*
M02*
