G04 #@! TF.GenerationSoftware,KiCad,Pcbnew,(5.1.8)-1*
G04 #@! TF.CreationDate,2021-06-03T22:44:18-04:00*
G04 #@! TF.ProjectId,inkkeys,696e6b6b-6579-4732-9e6b-696361645f70,rev?*
G04 #@! TF.SameCoordinates,Original*
G04 #@! TF.FileFunction,Soldermask,Top*
G04 #@! TF.FilePolarity,Negative*
%FSLAX46Y46*%
G04 Gerber Fmt 4.6, Leading zero omitted, Abs format (unit mm)*
G04 Created by KiCad (PCBNEW (5.1.8)-1) date 2021-06-03 22:44:18*
%MOMM*%
%LPD*%
G01*
G04 APERTURE LIST*
G04 #@! TA.AperFunction,Profile*
%ADD10C,0.100000*%
G04 #@! TD*
%ADD11C,2.000000*%
%ADD12O,1.700000X1.700000*%
%ADD13R,1.700000X1.700000*%
%ADD14C,3.200000*%
%ADD15C,1.700000*%
%ADD16C,4.000000*%
%ADD17C,2.200000*%
%ADD18R,1.500000X1.000000*%
%ADD19C,2.082800*%
G04 APERTURE END LIST*
D10*
X202000000Y-60000000D02*
G75*
G02*
X208000000Y-66000000I0J-6000000D01*
G01*
X208000000Y-134000000D02*
G75*
G02*
X202000000Y-140000000I-6000000J0D01*
G01*
X103000000Y-140000000D02*
G75*
G02*
X97000000Y-134000000I0J6000000D01*
G01*
X97000000Y-66000000D02*
G75*
G02*
X103000000Y-60000000I6000000J0D01*
G01*
X97000000Y-134000000D02*
X97000000Y-66000000D01*
X202000000Y-140000000D02*
X103000000Y-140000000D01*
X208000000Y-66000000D02*
X208000000Y-134000000D01*
X103000000Y-60000000D02*
X202000000Y-60000000D01*
X202000000Y-60000000D02*
G75*
G02*
X208000000Y-66000000I0J-6000000D01*
G01*
X208000000Y-134000000D02*
G75*
G02*
X202000000Y-140000000I-6000000J0D01*
G01*
X103000000Y-140000000D02*
G75*
G02*
X97000000Y-134000000I0J6000000D01*
G01*
X97000000Y-66000000D02*
G75*
G02*
X103000000Y-60000000I6000000J0D01*
G01*
X97000000Y-134000000D02*
X97000000Y-66000000D01*
X202000000Y-140000000D02*
X103000000Y-140000000D01*
X208000000Y-66000000D02*
X208000000Y-134000000D01*
X103000000Y-60000000D02*
X202000000Y-60000000D01*
D11*
G04 #@! TO.C,SW12*
X165000000Y-64500000D03*
X165000000Y-69000000D03*
X171500000Y-64500000D03*
X171500000Y-69000000D03*
G04 #@! TD*
D12*
G04 #@! TO.C,J3*
X197000000Y-84080000D03*
X197000000Y-81540000D03*
D13*
X197000000Y-79000000D03*
G04 #@! TD*
D12*
G04 #@! TO.C,J2*
X193160000Y-71000000D03*
X190620000Y-71000000D03*
X188080000Y-71000000D03*
X185540000Y-71000000D03*
D13*
X183000000Y-71000000D03*
G04 #@! TD*
D14*
G04 #@! TO.C,H4*
X204000000Y-126000000D03*
G04 #@! TD*
G04 #@! TO.C,H3*
X204000000Y-95000000D03*
G04 #@! TD*
G04 #@! TO.C,H2*
X101000000Y-126000000D03*
G04 #@! TD*
G04 #@! TO.C,H1*
X101000000Y-95000000D03*
G04 #@! TD*
D12*
G04 #@! TO.C,SW13*
X108000000Y-81460000D03*
D13*
X108000000Y-84000000D03*
G04 #@! TD*
D15*
G04 #@! TO.C,SW10*
X195790000Y-119980000D03*
X185630000Y-119980000D03*
D16*
X190710000Y-119980000D03*
D17*
X186900000Y-117440000D03*
X193250000Y-114900000D03*
G04 #@! TD*
D15*
G04 #@! TO.C,SW9*
X195820000Y-100900000D03*
X185660000Y-100900000D03*
D16*
X190740000Y-100900000D03*
D17*
X186930000Y-98360000D03*
X193280000Y-95820000D03*
G04 #@! TD*
D15*
G04 #@! TO.C,SW8*
X176770000Y-119980000D03*
X166610000Y-119980000D03*
D16*
X171690000Y-119980000D03*
D17*
X167880000Y-117440000D03*
X174230000Y-114900000D03*
G04 #@! TD*
D15*
G04 #@! TO.C,SW7*
X176760000Y-100910000D03*
X166600000Y-100910000D03*
D16*
X171680000Y-100910000D03*
D17*
X167870000Y-98370000D03*
X174220000Y-95830000D03*
G04 #@! TD*
D15*
G04 #@! TO.C,SW6*
X157700000Y-119960000D03*
X147540000Y-119960000D03*
D16*
X152620000Y-119960000D03*
D17*
X148810000Y-117420000D03*
X155160000Y-114880000D03*
G04 #@! TD*
D15*
G04 #@! TO.C,SW5*
X157720000Y-100920000D03*
X147560000Y-100920000D03*
D16*
X152640000Y-100920000D03*
D17*
X148830000Y-98380000D03*
X155180000Y-95840000D03*
G04 #@! TD*
D15*
G04 #@! TO.C,SW4*
X138650000Y-119950000D03*
X128490000Y-119950000D03*
D16*
X133570000Y-119950000D03*
D17*
X129760000Y-117410000D03*
X136110000Y-114870000D03*
G04 #@! TD*
D15*
G04 #@! TO.C,SW3*
X138670000Y-100930000D03*
X128510000Y-100930000D03*
D16*
X133590000Y-100930000D03*
D17*
X129780000Y-98390000D03*
X136130000Y-95850000D03*
G04 #@! TD*
D15*
G04 #@! TO.C,SW2*
X119600000Y-119970000D03*
X109440000Y-119970000D03*
D16*
X114520000Y-119970000D03*
D17*
X110710000Y-117430000D03*
X117060000Y-114890000D03*
G04 #@! TD*
D15*
G04 #@! TO.C,SW1*
X119630000Y-100910000D03*
X109470000Y-100910000D03*
D16*
X114550000Y-100910000D03*
D17*
X110740000Y-98370000D03*
X117090000Y-95830000D03*
G04 #@! TD*
D12*
G04 #@! TO.C,RV1*
X116080000Y-71000000D03*
X113540000Y-71000000D03*
D13*
X111000000Y-71000000D03*
G04 #@! TD*
D12*
G04 #@! TO.C,J1*
X138240000Y-71000000D03*
X135700000Y-71000000D03*
X133160000Y-71000000D03*
X130620000Y-71000000D03*
X128080000Y-71000000D03*
X125540000Y-71000000D03*
D13*
X123000000Y-71000000D03*
G04 #@! TD*
D18*
G04 #@! TO.C,D25*
X188050000Y-128900000D03*
X188050000Y-132100000D03*
X192950000Y-128900000D03*
X192950000Y-132100000D03*
G04 #@! TD*
G04 #@! TO.C,D24*
X188050000Y-88900000D03*
X188050000Y-92100000D03*
X192950000Y-88900000D03*
X192950000Y-92100000D03*
G04 #@! TD*
G04 #@! TO.C,D22*
X169050000Y-128900000D03*
X169050000Y-132100000D03*
X173950000Y-128900000D03*
X173950000Y-132100000D03*
G04 #@! TD*
G04 #@! TO.C,D21*
X169050000Y-88900000D03*
X169050000Y-92100000D03*
X173950000Y-88900000D03*
X173950000Y-92100000D03*
G04 #@! TD*
G04 #@! TO.C,D19*
X150050000Y-128900000D03*
X150050000Y-132100000D03*
X154950000Y-128900000D03*
X154950000Y-132100000D03*
G04 #@! TD*
G04 #@! TO.C,D18*
X150050000Y-88900000D03*
X150050000Y-92100000D03*
X154950000Y-88900000D03*
X154950000Y-92100000D03*
G04 #@! TD*
G04 #@! TO.C,D16*
X131050000Y-128900000D03*
X131050000Y-132100000D03*
X135950000Y-128900000D03*
X135950000Y-132100000D03*
G04 #@! TD*
G04 #@! TO.C,D15*
X131050000Y-88900000D03*
X131050000Y-92100000D03*
X135950000Y-88900000D03*
X135950000Y-92100000D03*
G04 #@! TD*
G04 #@! TO.C,D13*
X112050000Y-128900000D03*
X112050000Y-132100000D03*
X116950000Y-128900000D03*
X116950000Y-132100000D03*
G04 #@! TD*
G04 #@! TO.C,D12*
X112050000Y-88900000D03*
X112050000Y-92100000D03*
X116950000Y-88900000D03*
X116950000Y-92100000D03*
G04 #@! TD*
D19*
G04 #@! TO.C,B1*
X145010000Y-63180000D03*
X145010000Y-65720000D03*
X145010000Y-68260000D03*
X145010000Y-70800000D03*
X145010000Y-73340000D03*
X145010000Y-75880000D03*
X145010000Y-78420000D03*
X145010000Y-80960000D03*
X145010000Y-83500000D03*
X145010000Y-86040000D03*
X145010000Y-88580000D03*
X145010000Y-91120000D03*
X160250000Y-91120000D03*
X160250000Y-88580000D03*
X160250000Y-86040000D03*
X160250000Y-83500000D03*
X160250000Y-80960000D03*
X160250000Y-78420000D03*
X160250000Y-75880000D03*
X160250000Y-73340000D03*
X160250000Y-70800000D03*
X160250000Y-68260000D03*
X160250000Y-65720000D03*
X160250000Y-63180000D03*
G04 #@! TD*
M02*
