G04 #@! TF.GenerationSoftware,KiCad,Pcbnew,(5.1.8)-1*
G04 #@! TF.CreationDate,2021-06-03T22:44:18-04:00*
G04 #@! TF.ProjectId,inkkeys,696e6b6b-6579-4732-9e6b-696361645f70,rev?*
G04 #@! TF.SameCoordinates,Original*
G04 #@! TF.FileFunction,Legend,Top*
G04 #@! TF.FilePolarity,Positive*
%FSLAX46Y46*%
G04 Gerber Fmt 4.6, Leading zero omitted, Abs format (unit mm)*
G04 Created by KiCad (PCBNEW (5.1.8)-1) date 2021-06-03 22:44:18*
%MOMM*%
%LPD*%
G01*
G04 APERTURE LIST*
%ADD10C,0.152400*%
G04 #@! TA.AperFunction,Profile*
%ADD11C,0.100000*%
G04 #@! TD*
%ADD12C,0.010000*%
%ADD13C,0.120000*%
%ADD14C,0.150000*%
G04 APERTURE END LIST*
D10*
X118952380Y-84959619D02*
X118952380Y-83943619D01*
X118952380Y-84427428D02*
X119532952Y-84427428D01*
X119532952Y-84959619D02*
X119532952Y-83943619D01*
X120452190Y-84959619D02*
X120452190Y-84427428D01*
X120403809Y-84330666D01*
X120307047Y-84282285D01*
X120113523Y-84282285D01*
X120016761Y-84330666D01*
X120452190Y-84911238D02*
X120355428Y-84959619D01*
X120113523Y-84959619D01*
X120016761Y-84911238D01*
X119968380Y-84814476D01*
X119968380Y-84717714D01*
X120016761Y-84620952D01*
X120113523Y-84572571D01*
X120355428Y-84572571D01*
X120452190Y-84524190D01*
X121371428Y-84911238D02*
X121274666Y-84959619D01*
X121081142Y-84959619D01*
X120984380Y-84911238D01*
X120936000Y-84862857D01*
X120887619Y-84766095D01*
X120887619Y-84475809D01*
X120936000Y-84379047D01*
X120984380Y-84330666D01*
X121081142Y-84282285D01*
X121274666Y-84282285D01*
X121371428Y-84330666D01*
X121806857Y-84959619D02*
X121806857Y-83943619D01*
X121903619Y-84572571D02*
X122193904Y-84959619D01*
X122193904Y-84282285D02*
X121806857Y-84669333D01*
X123064761Y-84959619D02*
X123064761Y-84427428D01*
X123016380Y-84330666D01*
X122919619Y-84282285D01*
X122726095Y-84282285D01*
X122629333Y-84330666D01*
X123064761Y-84911238D02*
X122968000Y-84959619D01*
X122726095Y-84959619D01*
X122629333Y-84911238D01*
X122580952Y-84814476D01*
X122580952Y-84717714D01*
X122629333Y-84620952D01*
X122726095Y-84572571D01*
X122968000Y-84572571D01*
X123064761Y-84524190D01*
X123403428Y-84282285D02*
X123790476Y-84282285D01*
X123548571Y-83943619D02*
X123548571Y-84814476D01*
X123596952Y-84911238D01*
X123693714Y-84959619D01*
X123790476Y-84959619D01*
X124129142Y-84959619D02*
X124129142Y-83943619D01*
X124564571Y-84959619D02*
X124564571Y-84427428D01*
X124516190Y-84330666D01*
X124419428Y-84282285D01*
X124274285Y-84282285D01*
X124177523Y-84330666D01*
X124129142Y-84379047D01*
X125193523Y-84959619D02*
X125096761Y-84911238D01*
X125048380Y-84862857D01*
X125000000Y-84766095D01*
X125000000Y-84475809D01*
X125048380Y-84379047D01*
X125096761Y-84330666D01*
X125193523Y-84282285D01*
X125338666Y-84282285D01*
X125435428Y-84330666D01*
X125483809Y-84379047D01*
X125532190Y-84475809D01*
X125532190Y-84766095D01*
X125483809Y-84862857D01*
X125435428Y-84911238D01*
X125338666Y-84959619D01*
X125193523Y-84959619D01*
X125967619Y-84282285D02*
X125967619Y-84959619D01*
X125967619Y-84379047D02*
X126016000Y-84330666D01*
X126112761Y-84282285D01*
X126257904Y-84282285D01*
X126354666Y-84330666D01*
X126403047Y-84427428D01*
X126403047Y-84959619D01*
X127612571Y-84040380D02*
X127660952Y-83992000D01*
X127757714Y-83943619D01*
X127999619Y-83943619D01*
X128096380Y-83992000D01*
X128144761Y-84040380D01*
X128193142Y-84137142D01*
X128193142Y-84233904D01*
X128144761Y-84379047D01*
X127564190Y-84959619D01*
X128193142Y-84959619D01*
X128822095Y-83943619D02*
X128918857Y-83943619D01*
X129015619Y-83992000D01*
X129064000Y-84040380D01*
X129112380Y-84137142D01*
X129160761Y-84330666D01*
X129160761Y-84572571D01*
X129112380Y-84766095D01*
X129064000Y-84862857D01*
X129015619Y-84911238D01*
X128918857Y-84959619D01*
X128822095Y-84959619D01*
X128725333Y-84911238D01*
X128676952Y-84862857D01*
X128628571Y-84766095D01*
X128580190Y-84572571D01*
X128580190Y-84330666D01*
X128628571Y-84137142D01*
X128676952Y-84040380D01*
X128725333Y-83992000D01*
X128822095Y-83943619D01*
X129547809Y-84040380D02*
X129596190Y-83992000D01*
X129692952Y-83943619D01*
X129934857Y-83943619D01*
X130031619Y-83992000D01*
X130080000Y-84040380D01*
X130128380Y-84137142D01*
X130128380Y-84233904D01*
X130080000Y-84379047D01*
X129499428Y-84959619D01*
X130128380Y-84959619D01*
X131096000Y-84959619D02*
X130515428Y-84959619D01*
X130805714Y-84959619D02*
X130805714Y-83943619D01*
X130708952Y-84088761D01*
X130612190Y-84185523D01*
X130515428Y-84233904D01*
D11*
X202000000Y-60000000D02*
G75*
G02*
X208000000Y-66000000I0J-6000000D01*
G01*
X208000000Y-134000000D02*
G75*
G02*
X202000000Y-140000000I-6000000J0D01*
G01*
X103000000Y-140000000D02*
G75*
G02*
X97000000Y-134000000I0J6000000D01*
G01*
X97000000Y-66000000D02*
G75*
G02*
X103000000Y-60000000I6000000J0D01*
G01*
X97000000Y-134000000D02*
X97000000Y-66000000D01*
X202000000Y-140000000D02*
X103000000Y-140000000D01*
X208000000Y-66000000D02*
X208000000Y-134000000D01*
X103000000Y-60000000D02*
X202000000Y-60000000D01*
D12*
G04 #@! TO.C,G\u002A\u002A\u002A*
G36*
X120534687Y-74562783D02*
G01*
X120767212Y-74681970D01*
X121106190Y-74867483D01*
X121532459Y-75108579D01*
X122026852Y-75394515D01*
X122570205Y-75714547D01*
X122772552Y-75835107D01*
X124972042Y-77149547D01*
X127163019Y-75828123D01*
X127807835Y-75439080D01*
X128326129Y-75130021D01*
X128737372Y-74895138D01*
X129061034Y-74728626D01*
X129316586Y-74624676D01*
X129523499Y-74577483D01*
X129701244Y-74581239D01*
X129869291Y-74630138D01*
X130047111Y-74718374D01*
X130254175Y-74840138D01*
X130328064Y-74884211D01*
X130698964Y-75153886D01*
X130951632Y-75443587D01*
X131069120Y-75729655D01*
X131063071Y-75910342D01*
X131003542Y-76035247D01*
X130863264Y-76278763D01*
X130655826Y-76618881D01*
X130394820Y-77033594D01*
X130093836Y-77500894D01*
X129868975Y-77843969D01*
X129552597Y-78326430D01*
X129270048Y-78763346D01*
X129034029Y-79134583D01*
X128857238Y-79420005D01*
X128752376Y-79599477D01*
X128728547Y-79652119D01*
X128794459Y-79740499D01*
X128958503Y-79880420D01*
X129070445Y-79961996D01*
X129337494Y-80176227D01*
X129463653Y-80366585D01*
X129466981Y-80567586D01*
X129436694Y-80661956D01*
X129346406Y-80782279D01*
X129151216Y-80980070D01*
X128877253Y-81233492D01*
X128550644Y-81520708D01*
X128197516Y-81819880D01*
X127843998Y-82109170D01*
X127516217Y-82366743D01*
X127240301Y-82570761D01*
X127042378Y-82699385D01*
X126958332Y-82733334D01*
X126831037Y-82720150D01*
X126717467Y-82669211D01*
X126608806Y-82563435D01*
X126496238Y-82385740D01*
X126370948Y-82119045D01*
X126224120Y-81746268D01*
X126046939Y-81250328D01*
X125830589Y-80614142D01*
X125767732Y-80426340D01*
X125578399Y-79863276D01*
X125403510Y-79350365D01*
X125251059Y-78910483D01*
X125129042Y-78566507D01*
X125045455Y-78341313D01*
X125010865Y-78260800D01*
X124960990Y-78300668D01*
X124863753Y-78499052D01*
X124720595Y-78852316D01*
X124532956Y-79356827D01*
X124302277Y-80008952D01*
X124198659Y-80309209D01*
X123996483Y-80888044D01*
X123804437Y-81418153D01*
X123631207Y-81877077D01*
X123485484Y-82242353D01*
X123375954Y-82491522D01*
X123311924Y-82601576D01*
X123124372Y-82708535D01*
X123000320Y-82733334D01*
X122877661Y-82681360D01*
X122655024Y-82538676D01*
X122360684Y-82325137D01*
X122022916Y-82060598D01*
X121906320Y-81965142D01*
X121422071Y-81562125D01*
X121054555Y-81249904D01*
X120788345Y-81013410D01*
X120608013Y-80837576D01*
X120498132Y-80707333D01*
X120443272Y-80607613D01*
X120428008Y-80523348D01*
X120428000Y-80521273D01*
X120429754Y-80516695D01*
X121090115Y-80516695D01*
X122007891Y-81283294D01*
X122341295Y-81558932D01*
X122628531Y-81791034D01*
X122844778Y-81959950D01*
X122965210Y-82046028D01*
X122980108Y-82052947D01*
X123053040Y-81988531D01*
X123095293Y-81907834D01*
X123167796Y-81715866D01*
X123270886Y-81423386D01*
X123393915Y-81062862D01*
X123526234Y-80666763D01*
X123657195Y-80267556D01*
X123776149Y-79897710D01*
X123872448Y-79589694D01*
X123935443Y-79375975D01*
X123954486Y-79289022D01*
X123954273Y-79288718D01*
X123897673Y-79342225D01*
X123764597Y-79508490D01*
X123575277Y-79761264D01*
X123363037Y-80055809D01*
X123043973Y-80481074D01*
X122782706Y-80760613D01*
X122560156Y-80899574D01*
X122357242Y-80903108D01*
X122154883Y-80776362D01*
X121933999Y-80524487D01*
X121882811Y-80455263D01*
X121649602Y-80133328D01*
X121369859Y-80325012D01*
X121090115Y-80516695D01*
X120429754Y-80516695D01*
X120507913Y-80312722D01*
X120745232Y-80055896D01*
X121060911Y-79807741D01*
X121082896Y-79792064D01*
X122125514Y-79792064D01*
X122303167Y-80041555D01*
X122432650Y-80186433D01*
X122528216Y-80229202D01*
X122540668Y-80221023D01*
X122614059Y-80124448D01*
X122759724Y-79925381D01*
X122951785Y-79659317D01*
X123046277Y-79527438D01*
X123233189Y-79259030D01*
X123365265Y-79055646D01*
X123424635Y-78945589D01*
X123420519Y-78934772D01*
X123321903Y-78993520D01*
X123120181Y-79123757D01*
X122852148Y-79301566D01*
X122737257Y-79378866D01*
X122125514Y-79792064D01*
X121082896Y-79792064D01*
X121304827Y-79633814D01*
X120104413Y-77866271D01*
X119725115Y-77304478D01*
X119432888Y-76862413D01*
X119217060Y-76521528D01*
X119066960Y-76263276D01*
X119057515Y-76243981D01*
X119777130Y-76243981D01*
X119815980Y-76316986D01*
X119935918Y-76510151D01*
X120123742Y-76802980D01*
X120366253Y-77174979D01*
X120650251Y-77605653D01*
X120779696Y-77800563D01*
X121802291Y-79337116D01*
X123003036Y-78516391D01*
X123396305Y-78242801D01*
X123735240Y-77997870D01*
X123997071Y-77798802D01*
X124159027Y-77662801D01*
X124201382Y-77611000D01*
X124196187Y-77608343D01*
X125756946Y-77608343D01*
X125817856Y-77672647D01*
X125992269Y-77812129D01*
X126253035Y-78007674D01*
X126573007Y-78240166D01*
X126925037Y-78490489D01*
X127281977Y-78739529D01*
X127616679Y-78968170D01*
X127901994Y-79157296D01*
X128110775Y-79287792D01*
X128215874Y-79340543D01*
X128217334Y-79340745D01*
X128273853Y-79274349D01*
X128408236Y-79086096D01*
X128606559Y-78796427D01*
X128854898Y-78425784D01*
X129139330Y-77994609D01*
X129258663Y-77811958D01*
X129550316Y-77361468D01*
X129806034Y-76960945D01*
X130012834Y-76631189D01*
X130157730Y-76393001D01*
X130227737Y-76267180D01*
X130231869Y-76252980D01*
X130142477Y-76264468D01*
X129917259Y-76319755D01*
X129581692Y-76411126D01*
X129161258Y-76530863D01*
X128681436Y-76671248D01*
X128167705Y-76824565D01*
X127645544Y-76983097D01*
X127140433Y-77139125D01*
X126677852Y-77284934D01*
X126283280Y-77412805D01*
X125982196Y-77515022D01*
X125800080Y-77583866D01*
X125756946Y-77608343D01*
X124196187Y-77608343D01*
X124123874Y-77571363D01*
X123909292Y-77492056D01*
X123583087Y-77380941D01*
X123170707Y-77245884D01*
X122697604Y-77094747D01*
X122189228Y-76935394D01*
X121671029Y-76775689D01*
X121168457Y-76623496D01*
X120706964Y-76486679D01*
X120311998Y-76373100D01*
X120009011Y-76290624D01*
X119823452Y-76247115D01*
X119777130Y-76243981D01*
X119057515Y-76243981D01*
X118971914Y-76069109D01*
X118921251Y-75920481D01*
X118904298Y-75798844D01*
X118904000Y-75780085D01*
X118958869Y-75516451D01*
X119773984Y-75516451D01*
X119850471Y-75597707D01*
X120049193Y-75691562D01*
X120382153Y-75808087D01*
X120861347Y-75957354D01*
X121083807Y-76024612D01*
X121554104Y-76164636D01*
X121973405Y-76286329D01*
X122312635Y-76381504D01*
X122542720Y-76441970D01*
X122629334Y-76459897D01*
X122605001Y-76422174D01*
X122455870Y-76312840D01*
X122203141Y-76146064D01*
X121868015Y-75936012D01*
X121618935Y-75784721D01*
X120481537Y-75101654D01*
X120157948Y-75247572D01*
X119939723Y-75351455D01*
X119807735Y-75437724D01*
X119773984Y-75516451D01*
X118958869Y-75516451D01*
X118977690Y-75426023D01*
X119094500Y-75251116D01*
X119274055Y-75098664D01*
X119540904Y-74922708D01*
X119844597Y-74750887D01*
X120134686Y-74610839D01*
X120360719Y-74530205D01*
X120427783Y-74520667D01*
X120534687Y-74562783D01*
G37*
X120534687Y-74562783D02*
X120767212Y-74681970D01*
X121106190Y-74867483D01*
X121532459Y-75108579D01*
X122026852Y-75394515D01*
X122570205Y-75714547D01*
X122772552Y-75835107D01*
X124972042Y-77149547D01*
X127163019Y-75828123D01*
X127807835Y-75439080D01*
X128326129Y-75130021D01*
X128737372Y-74895138D01*
X129061034Y-74728626D01*
X129316586Y-74624676D01*
X129523499Y-74577483D01*
X129701244Y-74581239D01*
X129869291Y-74630138D01*
X130047111Y-74718374D01*
X130254175Y-74840138D01*
X130328064Y-74884211D01*
X130698964Y-75153886D01*
X130951632Y-75443587D01*
X131069120Y-75729655D01*
X131063071Y-75910342D01*
X131003542Y-76035247D01*
X130863264Y-76278763D01*
X130655826Y-76618881D01*
X130394820Y-77033594D01*
X130093836Y-77500894D01*
X129868975Y-77843969D01*
X129552597Y-78326430D01*
X129270048Y-78763346D01*
X129034029Y-79134583D01*
X128857238Y-79420005D01*
X128752376Y-79599477D01*
X128728547Y-79652119D01*
X128794459Y-79740499D01*
X128958503Y-79880420D01*
X129070445Y-79961996D01*
X129337494Y-80176227D01*
X129463653Y-80366585D01*
X129466981Y-80567586D01*
X129436694Y-80661956D01*
X129346406Y-80782279D01*
X129151216Y-80980070D01*
X128877253Y-81233492D01*
X128550644Y-81520708D01*
X128197516Y-81819880D01*
X127843998Y-82109170D01*
X127516217Y-82366743D01*
X127240301Y-82570761D01*
X127042378Y-82699385D01*
X126958332Y-82733334D01*
X126831037Y-82720150D01*
X126717467Y-82669211D01*
X126608806Y-82563435D01*
X126496238Y-82385740D01*
X126370948Y-82119045D01*
X126224120Y-81746268D01*
X126046939Y-81250328D01*
X125830589Y-80614142D01*
X125767732Y-80426340D01*
X125578399Y-79863276D01*
X125403510Y-79350365D01*
X125251059Y-78910483D01*
X125129042Y-78566507D01*
X125045455Y-78341313D01*
X125010865Y-78260800D01*
X124960990Y-78300668D01*
X124863753Y-78499052D01*
X124720595Y-78852316D01*
X124532956Y-79356827D01*
X124302277Y-80008952D01*
X124198659Y-80309209D01*
X123996483Y-80888044D01*
X123804437Y-81418153D01*
X123631207Y-81877077D01*
X123485484Y-82242353D01*
X123375954Y-82491522D01*
X123311924Y-82601576D01*
X123124372Y-82708535D01*
X123000320Y-82733334D01*
X122877661Y-82681360D01*
X122655024Y-82538676D01*
X122360684Y-82325137D01*
X122022916Y-82060598D01*
X121906320Y-81965142D01*
X121422071Y-81562125D01*
X121054555Y-81249904D01*
X120788345Y-81013410D01*
X120608013Y-80837576D01*
X120498132Y-80707333D01*
X120443272Y-80607613D01*
X120428008Y-80523348D01*
X120428000Y-80521273D01*
X120429754Y-80516695D01*
X121090115Y-80516695D01*
X122007891Y-81283294D01*
X122341295Y-81558932D01*
X122628531Y-81791034D01*
X122844778Y-81959950D01*
X122965210Y-82046028D01*
X122980108Y-82052947D01*
X123053040Y-81988531D01*
X123095293Y-81907834D01*
X123167796Y-81715866D01*
X123270886Y-81423386D01*
X123393915Y-81062862D01*
X123526234Y-80666763D01*
X123657195Y-80267556D01*
X123776149Y-79897710D01*
X123872448Y-79589694D01*
X123935443Y-79375975D01*
X123954486Y-79289022D01*
X123954273Y-79288718D01*
X123897673Y-79342225D01*
X123764597Y-79508490D01*
X123575277Y-79761264D01*
X123363037Y-80055809D01*
X123043973Y-80481074D01*
X122782706Y-80760613D01*
X122560156Y-80899574D01*
X122357242Y-80903108D01*
X122154883Y-80776362D01*
X121933999Y-80524487D01*
X121882811Y-80455263D01*
X121649602Y-80133328D01*
X121369859Y-80325012D01*
X121090115Y-80516695D01*
X120429754Y-80516695D01*
X120507913Y-80312722D01*
X120745232Y-80055896D01*
X121060911Y-79807741D01*
X121082896Y-79792064D01*
X122125514Y-79792064D01*
X122303167Y-80041555D01*
X122432650Y-80186433D01*
X122528216Y-80229202D01*
X122540668Y-80221023D01*
X122614059Y-80124448D01*
X122759724Y-79925381D01*
X122951785Y-79659317D01*
X123046277Y-79527438D01*
X123233189Y-79259030D01*
X123365265Y-79055646D01*
X123424635Y-78945589D01*
X123420519Y-78934772D01*
X123321903Y-78993520D01*
X123120181Y-79123757D01*
X122852148Y-79301566D01*
X122737257Y-79378866D01*
X122125514Y-79792064D01*
X121082896Y-79792064D01*
X121304827Y-79633814D01*
X120104413Y-77866271D01*
X119725115Y-77304478D01*
X119432888Y-76862413D01*
X119217060Y-76521528D01*
X119066960Y-76263276D01*
X119057515Y-76243981D01*
X119777130Y-76243981D01*
X119815980Y-76316986D01*
X119935918Y-76510151D01*
X120123742Y-76802980D01*
X120366253Y-77174979D01*
X120650251Y-77605653D01*
X120779696Y-77800563D01*
X121802291Y-79337116D01*
X123003036Y-78516391D01*
X123396305Y-78242801D01*
X123735240Y-77997870D01*
X123997071Y-77798802D01*
X124159027Y-77662801D01*
X124201382Y-77611000D01*
X124196187Y-77608343D01*
X125756946Y-77608343D01*
X125817856Y-77672647D01*
X125992269Y-77812129D01*
X126253035Y-78007674D01*
X126573007Y-78240166D01*
X126925037Y-78490489D01*
X127281977Y-78739529D01*
X127616679Y-78968170D01*
X127901994Y-79157296D01*
X128110775Y-79287792D01*
X128215874Y-79340543D01*
X128217334Y-79340745D01*
X128273853Y-79274349D01*
X128408236Y-79086096D01*
X128606559Y-78796427D01*
X128854898Y-78425784D01*
X129139330Y-77994609D01*
X129258663Y-77811958D01*
X129550316Y-77361468D01*
X129806034Y-76960945D01*
X130012834Y-76631189D01*
X130157730Y-76393001D01*
X130227737Y-76267180D01*
X130231869Y-76252980D01*
X130142477Y-76264468D01*
X129917259Y-76319755D01*
X129581692Y-76411126D01*
X129161258Y-76530863D01*
X128681436Y-76671248D01*
X128167705Y-76824565D01*
X127645544Y-76983097D01*
X127140433Y-77139125D01*
X126677852Y-77284934D01*
X126283280Y-77412805D01*
X125982196Y-77515022D01*
X125800080Y-77583866D01*
X125756946Y-77608343D01*
X124196187Y-77608343D01*
X124123874Y-77571363D01*
X123909292Y-77492056D01*
X123583087Y-77380941D01*
X123170707Y-77245884D01*
X122697604Y-77094747D01*
X122189228Y-76935394D01*
X121671029Y-76775689D01*
X121168457Y-76623496D01*
X120706964Y-76486679D01*
X120311998Y-76373100D01*
X120009011Y-76290624D01*
X119823452Y-76247115D01*
X119777130Y-76243981D01*
X119057515Y-76243981D01*
X118971914Y-76069109D01*
X118921251Y-75920481D01*
X118904298Y-75798844D01*
X118904000Y-75780085D01*
X118958869Y-75516451D01*
X119773984Y-75516451D01*
X119850471Y-75597707D01*
X120049193Y-75691562D01*
X120382153Y-75808087D01*
X120861347Y-75957354D01*
X121083807Y-76024612D01*
X121554104Y-76164636D01*
X121973405Y-76286329D01*
X122312635Y-76381504D01*
X122542720Y-76441970D01*
X122629334Y-76459897D01*
X122605001Y-76422174D01*
X122455870Y-76312840D01*
X122203141Y-76146064D01*
X121868015Y-75936012D01*
X121618935Y-75784721D01*
X120481537Y-75101654D01*
X120157948Y-75247572D01*
X119939723Y-75351455D01*
X119807735Y-75437724D01*
X119773984Y-75516451D01*
X118958869Y-75516451D01*
X118977690Y-75426023D01*
X119094500Y-75251116D01*
X119274055Y-75098664D01*
X119540904Y-74922708D01*
X119844597Y-74750887D01*
X120134686Y-74610839D01*
X120360719Y-74530205D01*
X120427783Y-74520667D01*
X120534687Y-74562783D01*
G36*
X172047044Y-66430553D02*
G01*
X172399735Y-66430566D01*
X172728718Y-66430594D01*
X173034838Y-66430642D01*
X173318942Y-66430715D01*
X173581875Y-66430817D01*
X173824484Y-66430954D01*
X174047614Y-66431131D01*
X174252112Y-66431353D01*
X174438822Y-66431625D01*
X174608592Y-66431951D01*
X174762267Y-66432337D01*
X174900692Y-66432787D01*
X175024714Y-66433307D01*
X175135180Y-66433902D01*
X175232933Y-66434576D01*
X175318821Y-66435335D01*
X175393690Y-66436183D01*
X175458385Y-66437126D01*
X175513752Y-66438168D01*
X175560637Y-66439315D01*
X175599886Y-66440571D01*
X175632346Y-66441942D01*
X175658861Y-66443432D01*
X175680278Y-66445046D01*
X175697442Y-66446790D01*
X175711200Y-66448668D01*
X175722398Y-66450685D01*
X175731881Y-66452847D01*
X175738092Y-66454487D01*
X175844755Y-66495194D01*
X175934497Y-66554083D01*
X176007675Y-66631605D01*
X176064646Y-66728212D01*
X176105765Y-66844356D01*
X176126756Y-66946767D01*
X176129178Y-66968305D01*
X176133605Y-67013946D01*
X176139934Y-67082480D01*
X176148061Y-67172696D01*
X176157881Y-67283385D01*
X176169290Y-67413338D01*
X176182183Y-67561343D01*
X176196457Y-67726192D01*
X176212008Y-67906674D01*
X176228730Y-68101581D01*
X176246520Y-68309701D01*
X176265273Y-68529825D01*
X176284886Y-68760743D01*
X176305254Y-69001246D01*
X176326272Y-69250123D01*
X176347837Y-69506165D01*
X176368988Y-69757950D01*
X176391529Y-70026635D01*
X176413888Y-70293137D01*
X176435940Y-70555977D01*
X176457562Y-70813678D01*
X176478629Y-71064762D01*
X176499018Y-71307753D01*
X176518604Y-71541172D01*
X176537264Y-71763542D01*
X176554873Y-71973386D01*
X176571308Y-72169225D01*
X176586445Y-72349583D01*
X176600159Y-72512983D01*
X176612327Y-72657945D01*
X176622824Y-72782994D01*
X176631527Y-72886651D01*
X176638312Y-72967439D01*
X176641647Y-73007139D01*
X176651321Y-73124334D01*
X176660265Y-73236676D01*
X176668249Y-73340968D01*
X176675041Y-73434012D01*
X176680410Y-73512610D01*
X176684126Y-73573564D01*
X176685958Y-73613678D01*
X176686112Y-73623089D01*
X176675668Y-73745541D01*
X176645874Y-73858346D01*
X176598200Y-73958768D01*
X176534112Y-74044066D01*
X176455077Y-74111503D01*
X176410279Y-74137737D01*
X176383319Y-74151241D01*
X176358181Y-74162930D01*
X176332895Y-74172934D01*
X176305492Y-74181385D01*
X176274002Y-74188413D01*
X176236457Y-74194150D01*
X176190886Y-74198727D01*
X176135319Y-74202274D01*
X176067789Y-74204923D01*
X175986324Y-74206805D01*
X175888955Y-74208052D01*
X175773713Y-74208793D01*
X175638629Y-74209161D01*
X175481733Y-74209286D01*
X175335091Y-74209300D01*
X174476500Y-74209300D01*
X174476500Y-75326900D01*
X174769267Y-75326900D01*
X174887961Y-75327649D01*
X174985064Y-75330301D01*
X175064354Y-75335460D01*
X175129607Y-75343732D01*
X175184600Y-75355723D01*
X175233111Y-75372038D01*
X175278915Y-75393281D01*
X175316883Y-75414671D01*
X175402835Y-75480432D01*
X175474493Y-75564714D01*
X175528429Y-75663080D01*
X175546235Y-75711490D01*
X175575050Y-75803150D01*
X175575050Y-78095500D01*
X175575064Y-78383188D01*
X175575084Y-78646604D01*
X175575079Y-78886877D01*
X175575014Y-79105133D01*
X175574857Y-79302502D01*
X175574575Y-79480111D01*
X175574136Y-79639088D01*
X175573507Y-79780561D01*
X175572654Y-79905658D01*
X175571546Y-80015507D01*
X175570148Y-80111237D01*
X175568430Y-80193974D01*
X175566357Y-80264848D01*
X175563896Y-80324986D01*
X175561016Y-80375517D01*
X175557684Y-80417567D01*
X175553865Y-80452266D01*
X175549529Y-80480741D01*
X175544641Y-80504120D01*
X175539170Y-80523532D01*
X175533081Y-80540104D01*
X175526344Y-80554964D01*
X175518924Y-80569241D01*
X175510789Y-80584062D01*
X175502235Y-80599927D01*
X175437288Y-80698390D01*
X175356840Y-80777165D01*
X175262384Y-80835440D01*
X175155415Y-80872403D01*
X175037426Y-80887242D01*
X174975488Y-80886157D01*
X174861386Y-80867072D01*
X174757614Y-80825694D01*
X174666145Y-80763717D01*
X174588950Y-80682834D01*
X174528002Y-80584740D01*
X174485273Y-80471126D01*
X174483246Y-80463522D01*
X174476426Y-80430414D01*
X174471272Y-80388041D01*
X174467610Y-80333020D01*
X174465263Y-80261971D01*
X174464059Y-80171514D01*
X174463800Y-80086731D01*
X174463800Y-79784600D01*
X173346200Y-79784600D01*
X173346200Y-80651881D01*
X173346176Y-80829295D01*
X173346020Y-80983248D01*
X173345601Y-81115681D01*
X173344788Y-81228534D01*
X173343450Y-81323745D01*
X173341459Y-81403256D01*
X173338682Y-81469005D01*
X173334991Y-81522933D01*
X173330254Y-81566979D01*
X173324341Y-81603084D01*
X173317123Y-81633186D01*
X173308468Y-81659226D01*
X173298246Y-81683143D01*
X173286328Y-81706878D01*
X173273747Y-81730229D01*
X173225485Y-81799175D01*
X173160163Y-81864777D01*
X173085772Y-81919501D01*
X173054275Y-81937160D01*
X173031265Y-81948687D01*
X173009401Y-81958864D01*
X172987030Y-81967773D01*
X172962499Y-81975496D01*
X172934153Y-81982116D01*
X172900340Y-81987714D01*
X172859407Y-81992373D01*
X172809701Y-81996175D01*
X172749568Y-81999202D01*
X172677354Y-82001537D01*
X172591407Y-82003262D01*
X172490073Y-82004458D01*
X172371699Y-82005209D01*
X172234632Y-82005596D01*
X172077219Y-82005702D01*
X171897806Y-82005609D01*
X171694739Y-82005399D01*
X171682500Y-82005385D01*
X171513281Y-82005080D01*
X171350282Y-82004561D01*
X171195434Y-82003848D01*
X171050671Y-82002960D01*
X170917926Y-82001915D01*
X170799131Y-82000733D01*
X170696219Y-81999434D01*
X170611123Y-81998035D01*
X170545776Y-81996556D01*
X170502109Y-81995016D01*
X170482709Y-81993556D01*
X170364690Y-81962536D01*
X170262426Y-81911598D01*
X170175967Y-81840786D01*
X170105365Y-81750144D01*
X170050668Y-81639715D01*
X170036695Y-81600700D01*
X170032156Y-81585379D01*
X170028226Y-81567670D01*
X170024850Y-81545657D01*
X170021971Y-81517425D01*
X170019533Y-81481061D01*
X170017479Y-81434650D01*
X170015753Y-81376277D01*
X170014298Y-81304028D01*
X170013057Y-81215989D01*
X170011976Y-81110245D01*
X170010997Y-80984881D01*
X170010063Y-80837984D01*
X170009119Y-80667639D01*
X170009100Y-80664075D01*
X170004512Y-79797300D01*
X168901200Y-79797300D01*
X168901012Y-80086225D01*
X168899553Y-80217587D01*
X168894763Y-80327084D01*
X168885739Y-80418134D01*
X168871578Y-80494155D01*
X168851379Y-80558566D01*
X168824238Y-80614784D01*
X168789254Y-80666229D01*
X168745524Y-80716318D01*
X168730683Y-80731473D01*
X168641763Y-80803846D01*
X168544138Y-80854286D01*
X168440966Y-80883320D01*
X168335405Y-80891475D01*
X168230614Y-80879277D01*
X168129749Y-80847254D01*
X168035969Y-80795932D01*
X167952432Y-80725837D01*
X167882296Y-80637498D01*
X167852390Y-80584963D01*
X167844016Y-80568557D01*
X167836356Y-80553381D01*
X167829376Y-80538293D01*
X167823045Y-80522153D01*
X167817332Y-80503820D01*
X167812204Y-80482154D01*
X167807630Y-80456013D01*
X167803579Y-80424257D01*
X167800018Y-80385745D01*
X167796916Y-80339336D01*
X167794241Y-80283890D01*
X167791962Y-80218266D01*
X167790047Y-80141322D01*
X167788463Y-80051919D01*
X167787180Y-79948915D01*
X167786166Y-79831169D01*
X167785896Y-79784600D01*
X171136400Y-79784600D01*
X171136400Y-80876800D01*
X172228600Y-80876800D01*
X172228600Y-79784600D01*
X171136400Y-79784600D01*
X167785896Y-79784600D01*
X167785389Y-79697542D01*
X167784817Y-79546892D01*
X167784418Y-79378078D01*
X167784162Y-79189959D01*
X167784015Y-78981395D01*
X167783947Y-78751246D01*
X167783926Y-78498369D01*
X167783920Y-78221625D01*
X167783916Y-78120900D01*
X167783974Y-77803850D01*
X167784185Y-77509214D01*
X167784547Y-77237235D01*
X167785058Y-76988155D01*
X167785718Y-76762216D01*
X167786525Y-76559663D01*
X167787070Y-76457200D01*
X168913900Y-76457200D01*
X168913900Y-78654300D01*
X174451100Y-78654300D01*
X174451100Y-76457200D01*
X168913900Y-76457200D01*
X167787070Y-76457200D01*
X167787477Y-76380736D01*
X167788574Y-76225679D01*
X167789814Y-76094735D01*
X167791195Y-75988147D01*
X167792717Y-75906156D01*
X167794377Y-75849006D01*
X167796176Y-75816939D01*
X167796748Y-75812210D01*
X167826897Y-75690731D01*
X167874915Y-75585590D01*
X167940085Y-75497954D01*
X168021692Y-75428991D01*
X168038197Y-75418575D01*
X168079149Y-75394792D01*
X168116532Y-75375956D01*
X168154079Y-75361434D01*
X168195524Y-75350594D01*
X168244600Y-75342804D01*
X168305040Y-75337430D01*
X168380579Y-75333841D01*
X168474949Y-75331405D01*
X168561475Y-75329935D01*
X168888500Y-75325002D01*
X168888500Y-74226132D01*
X168630804Y-74222000D01*
X170018800Y-74222000D01*
X170018800Y-75314200D01*
X173333500Y-75314200D01*
X173333500Y-74222000D01*
X170018800Y-74222000D01*
X168630804Y-74222000D01*
X168364625Y-74217732D01*
X168233678Y-74215784D01*
X168095294Y-74213994D01*
X167955043Y-74212418D01*
X167818495Y-74211108D01*
X167691219Y-74210119D01*
X167578785Y-74209504D01*
X167495330Y-74209316D01*
X167391962Y-74209222D01*
X167310321Y-74208775D01*
X167246735Y-74207715D01*
X167197532Y-74205781D01*
X167159040Y-74202713D01*
X167127585Y-74198250D01*
X167099496Y-74192130D01*
X167071101Y-74184094D01*
X167050830Y-74177747D01*
X166941225Y-74131132D01*
X166850195Y-74067327D01*
X166778209Y-73986951D01*
X166725734Y-73890625D01*
X166693236Y-73778970D01*
X166682422Y-73688600D01*
X166681616Y-73671956D01*
X166681114Y-73653906D01*
X166681001Y-73633329D01*
X166681364Y-73609106D01*
X166682288Y-73580114D01*
X166683860Y-73545233D01*
X166686166Y-73503342D01*
X166689291Y-73453321D01*
X166693322Y-73394048D01*
X166698345Y-73324404D01*
X166704446Y-73243266D01*
X166711711Y-73149515D01*
X166719057Y-73056775D01*
X167847049Y-73056775D01*
X167847100Y-73091700D01*
X171682500Y-73091700D01*
X172052432Y-73091696D01*
X172397807Y-73091682D01*
X172719466Y-73091652D01*
X173018252Y-73091601D01*
X173295008Y-73091525D01*
X173550575Y-73091417D01*
X173785796Y-73091274D01*
X174001513Y-73091089D01*
X174198568Y-73090858D01*
X174377805Y-73090576D01*
X174540064Y-73090237D01*
X174686188Y-73089836D01*
X174817021Y-73089369D01*
X174933403Y-73088830D01*
X175036177Y-73088214D01*
X175126186Y-73087516D01*
X175204272Y-73086731D01*
X175271277Y-73085853D01*
X175328043Y-73084879D01*
X175375414Y-73083801D01*
X175414230Y-73082617D01*
X175445335Y-73081319D01*
X175469570Y-73079904D01*
X175487779Y-73078366D01*
X175500802Y-73076700D01*
X175509484Y-73074901D01*
X175514665Y-73072963D01*
X175517188Y-73070883D01*
X175517896Y-73068654D01*
X175517900Y-73068454D01*
X175516865Y-73053486D01*
X175513839Y-73014625D01*
X175508940Y-72953292D01*
X175502285Y-72870906D01*
X175493991Y-72768886D01*
X175484177Y-72648652D01*
X175472960Y-72511625D01*
X175460458Y-72359224D01*
X175446787Y-72192868D01*
X175432067Y-72013977D01*
X175416413Y-71823972D01*
X175399945Y-71624272D01*
X175382780Y-71416296D01*
X175365034Y-71201464D01*
X175346826Y-70981197D01*
X175328274Y-70756913D01*
X175309495Y-70530033D01*
X175290606Y-70301977D01*
X175271726Y-70074163D01*
X175252971Y-69848012D01*
X175234460Y-69624944D01*
X175216310Y-69406378D01*
X175198639Y-69193734D01*
X175181563Y-68988432D01*
X175165202Y-68791891D01*
X175149672Y-68605532D01*
X175135091Y-68430773D01*
X175121577Y-68269036D01*
X175109247Y-68121739D01*
X175098219Y-67990302D01*
X175088611Y-67876145D01*
X175080539Y-67780688D01*
X175074122Y-67705350D01*
X175069478Y-67651551D01*
X175066723Y-67620712D01*
X175066145Y-67614825D01*
X175058206Y-67541800D01*
X168305856Y-67541800D01*
X168298588Y-67595775D01*
X168296753Y-67614241D01*
X168292971Y-67656462D01*
X168287360Y-67721015D01*
X168280039Y-67806474D01*
X168271125Y-67911415D01*
X168260736Y-68034413D01*
X168248990Y-68174044D01*
X168236004Y-68328882D01*
X168221896Y-68497504D01*
X168206784Y-68678485D01*
X168190787Y-68870400D01*
X168174020Y-69071824D01*
X168156604Y-69281334D01*
X168138654Y-69497504D01*
X168120290Y-69718909D01*
X168101628Y-69944126D01*
X168082787Y-70171729D01*
X168063884Y-70400294D01*
X168045037Y-70628397D01*
X168026365Y-70854612D01*
X168007984Y-71077516D01*
X167990013Y-71295683D01*
X167972569Y-71507688D01*
X167955770Y-71712109D01*
X167939734Y-71907518D01*
X167924579Y-72092493D01*
X167910422Y-72265609D01*
X167897382Y-72425440D01*
X167885576Y-72570563D01*
X167875122Y-72699552D01*
X167866137Y-72810984D01*
X167858740Y-72903432D01*
X167853048Y-72975474D01*
X167849180Y-73025684D01*
X167847252Y-73052638D01*
X167847049Y-73056775D01*
X166719057Y-73056775D01*
X166720226Y-73042029D01*
X166730077Y-72919689D01*
X166741351Y-72781372D01*
X166754133Y-72625958D01*
X166768509Y-72452327D01*
X166784565Y-72259357D01*
X166802388Y-72045928D01*
X166822064Y-71810919D01*
X166843678Y-71553210D01*
X166867317Y-71271679D01*
X166875522Y-71174000D01*
X166894351Y-70949747D01*
X166914027Y-70715140D01*
X166934279Y-70473430D01*
X166954835Y-70227870D01*
X166975424Y-69981710D01*
X166995774Y-69738203D01*
X167015614Y-69500600D01*
X167034671Y-69272153D01*
X167052674Y-69056114D01*
X167069351Y-68855734D01*
X167084432Y-68674266D01*
X167097251Y-68519700D01*
X167117034Y-68281105D01*
X167134880Y-68066488D01*
X167150914Y-67874510D01*
X167165262Y-67703833D01*
X167178047Y-67553118D01*
X167189395Y-67421028D01*
X167199430Y-67306222D01*
X167208278Y-67207364D01*
X167216064Y-67123114D01*
X167222912Y-67052134D01*
X167228947Y-66993085D01*
X167234295Y-66944630D01*
X167239080Y-66905429D01*
X167243426Y-66874144D01*
X167247460Y-66849437D01*
X167251306Y-66829969D01*
X167255088Y-66814402D01*
X167257032Y-66807537D01*
X167297530Y-66713533D01*
X167359117Y-66626719D01*
X167437674Y-66551180D01*
X167529082Y-66490998D01*
X167612150Y-66455509D01*
X167619693Y-66453145D01*
X167627974Y-66450936D01*
X167637836Y-66448875D01*
X167650125Y-66446959D01*
X167665683Y-66445180D01*
X167685356Y-66443535D01*
X167709987Y-66442019D01*
X167740420Y-66440625D01*
X167777500Y-66439349D01*
X167822071Y-66438185D01*
X167874977Y-66437129D01*
X167937063Y-66436175D01*
X168009171Y-66435317D01*
X168092147Y-66434552D01*
X168186835Y-66433873D01*
X168294079Y-66433276D01*
X168414723Y-66432755D01*
X168549611Y-66432304D01*
X168699587Y-66431920D01*
X168865496Y-66431596D01*
X169048182Y-66431328D01*
X169248489Y-66431110D01*
X169467260Y-66430936D01*
X169705341Y-66430803D01*
X169963576Y-66430705D01*
X170242808Y-66430635D01*
X170543882Y-66430591D01*
X170867641Y-66430565D01*
X171214931Y-66430553D01*
X171586595Y-66430550D01*
X171669800Y-66430550D01*
X172047044Y-66430553D01*
G37*
X172047044Y-66430553D02*
X172399735Y-66430566D01*
X172728718Y-66430594D01*
X173034838Y-66430642D01*
X173318942Y-66430715D01*
X173581875Y-66430817D01*
X173824484Y-66430954D01*
X174047614Y-66431131D01*
X174252112Y-66431353D01*
X174438822Y-66431625D01*
X174608592Y-66431951D01*
X174762267Y-66432337D01*
X174900692Y-66432787D01*
X175024714Y-66433307D01*
X175135180Y-66433902D01*
X175232933Y-66434576D01*
X175318821Y-66435335D01*
X175393690Y-66436183D01*
X175458385Y-66437126D01*
X175513752Y-66438168D01*
X175560637Y-66439315D01*
X175599886Y-66440571D01*
X175632346Y-66441942D01*
X175658861Y-66443432D01*
X175680278Y-66445046D01*
X175697442Y-66446790D01*
X175711200Y-66448668D01*
X175722398Y-66450685D01*
X175731881Y-66452847D01*
X175738092Y-66454487D01*
X175844755Y-66495194D01*
X175934497Y-66554083D01*
X176007675Y-66631605D01*
X176064646Y-66728212D01*
X176105765Y-66844356D01*
X176126756Y-66946767D01*
X176129178Y-66968305D01*
X176133605Y-67013946D01*
X176139934Y-67082480D01*
X176148061Y-67172696D01*
X176157881Y-67283385D01*
X176169290Y-67413338D01*
X176182183Y-67561343D01*
X176196457Y-67726192D01*
X176212008Y-67906674D01*
X176228730Y-68101581D01*
X176246520Y-68309701D01*
X176265273Y-68529825D01*
X176284886Y-68760743D01*
X176305254Y-69001246D01*
X176326272Y-69250123D01*
X176347837Y-69506165D01*
X176368988Y-69757950D01*
X176391529Y-70026635D01*
X176413888Y-70293137D01*
X176435940Y-70555977D01*
X176457562Y-70813678D01*
X176478629Y-71064762D01*
X176499018Y-71307753D01*
X176518604Y-71541172D01*
X176537264Y-71763542D01*
X176554873Y-71973386D01*
X176571308Y-72169225D01*
X176586445Y-72349583D01*
X176600159Y-72512983D01*
X176612327Y-72657945D01*
X176622824Y-72782994D01*
X176631527Y-72886651D01*
X176638312Y-72967439D01*
X176641647Y-73007139D01*
X176651321Y-73124334D01*
X176660265Y-73236676D01*
X176668249Y-73340968D01*
X176675041Y-73434012D01*
X176680410Y-73512610D01*
X176684126Y-73573564D01*
X176685958Y-73613678D01*
X176686112Y-73623089D01*
X176675668Y-73745541D01*
X176645874Y-73858346D01*
X176598200Y-73958768D01*
X176534112Y-74044066D01*
X176455077Y-74111503D01*
X176410279Y-74137737D01*
X176383319Y-74151241D01*
X176358181Y-74162930D01*
X176332895Y-74172934D01*
X176305492Y-74181385D01*
X176274002Y-74188413D01*
X176236457Y-74194150D01*
X176190886Y-74198727D01*
X176135319Y-74202274D01*
X176067789Y-74204923D01*
X175986324Y-74206805D01*
X175888955Y-74208052D01*
X175773713Y-74208793D01*
X175638629Y-74209161D01*
X175481733Y-74209286D01*
X175335091Y-74209300D01*
X174476500Y-74209300D01*
X174476500Y-75326900D01*
X174769267Y-75326900D01*
X174887961Y-75327649D01*
X174985064Y-75330301D01*
X175064354Y-75335460D01*
X175129607Y-75343732D01*
X175184600Y-75355723D01*
X175233111Y-75372038D01*
X175278915Y-75393281D01*
X175316883Y-75414671D01*
X175402835Y-75480432D01*
X175474493Y-75564714D01*
X175528429Y-75663080D01*
X175546235Y-75711490D01*
X175575050Y-75803150D01*
X175575050Y-78095500D01*
X175575064Y-78383188D01*
X175575084Y-78646604D01*
X175575079Y-78886877D01*
X175575014Y-79105133D01*
X175574857Y-79302502D01*
X175574575Y-79480111D01*
X175574136Y-79639088D01*
X175573507Y-79780561D01*
X175572654Y-79905658D01*
X175571546Y-80015507D01*
X175570148Y-80111237D01*
X175568430Y-80193974D01*
X175566357Y-80264848D01*
X175563896Y-80324986D01*
X175561016Y-80375517D01*
X175557684Y-80417567D01*
X175553865Y-80452266D01*
X175549529Y-80480741D01*
X175544641Y-80504120D01*
X175539170Y-80523532D01*
X175533081Y-80540104D01*
X175526344Y-80554964D01*
X175518924Y-80569241D01*
X175510789Y-80584062D01*
X175502235Y-80599927D01*
X175437288Y-80698390D01*
X175356840Y-80777165D01*
X175262384Y-80835440D01*
X175155415Y-80872403D01*
X175037426Y-80887242D01*
X174975488Y-80886157D01*
X174861386Y-80867072D01*
X174757614Y-80825694D01*
X174666145Y-80763717D01*
X174588950Y-80682834D01*
X174528002Y-80584740D01*
X174485273Y-80471126D01*
X174483246Y-80463522D01*
X174476426Y-80430414D01*
X174471272Y-80388041D01*
X174467610Y-80333020D01*
X174465263Y-80261971D01*
X174464059Y-80171514D01*
X174463800Y-80086731D01*
X174463800Y-79784600D01*
X173346200Y-79784600D01*
X173346200Y-80651881D01*
X173346176Y-80829295D01*
X173346020Y-80983248D01*
X173345601Y-81115681D01*
X173344788Y-81228534D01*
X173343450Y-81323745D01*
X173341459Y-81403256D01*
X173338682Y-81469005D01*
X173334991Y-81522933D01*
X173330254Y-81566979D01*
X173324341Y-81603084D01*
X173317123Y-81633186D01*
X173308468Y-81659226D01*
X173298246Y-81683143D01*
X173286328Y-81706878D01*
X173273747Y-81730229D01*
X173225485Y-81799175D01*
X173160163Y-81864777D01*
X173085772Y-81919501D01*
X173054275Y-81937160D01*
X173031265Y-81948687D01*
X173009401Y-81958864D01*
X172987030Y-81967773D01*
X172962499Y-81975496D01*
X172934153Y-81982116D01*
X172900340Y-81987714D01*
X172859407Y-81992373D01*
X172809701Y-81996175D01*
X172749568Y-81999202D01*
X172677354Y-82001537D01*
X172591407Y-82003262D01*
X172490073Y-82004458D01*
X172371699Y-82005209D01*
X172234632Y-82005596D01*
X172077219Y-82005702D01*
X171897806Y-82005609D01*
X171694739Y-82005399D01*
X171682500Y-82005385D01*
X171513281Y-82005080D01*
X171350282Y-82004561D01*
X171195434Y-82003848D01*
X171050671Y-82002960D01*
X170917926Y-82001915D01*
X170799131Y-82000733D01*
X170696219Y-81999434D01*
X170611123Y-81998035D01*
X170545776Y-81996556D01*
X170502109Y-81995016D01*
X170482709Y-81993556D01*
X170364690Y-81962536D01*
X170262426Y-81911598D01*
X170175967Y-81840786D01*
X170105365Y-81750144D01*
X170050668Y-81639715D01*
X170036695Y-81600700D01*
X170032156Y-81585379D01*
X170028226Y-81567670D01*
X170024850Y-81545657D01*
X170021971Y-81517425D01*
X170019533Y-81481061D01*
X170017479Y-81434650D01*
X170015753Y-81376277D01*
X170014298Y-81304028D01*
X170013057Y-81215989D01*
X170011976Y-81110245D01*
X170010997Y-80984881D01*
X170010063Y-80837984D01*
X170009119Y-80667639D01*
X170009100Y-80664075D01*
X170004512Y-79797300D01*
X168901200Y-79797300D01*
X168901012Y-80086225D01*
X168899553Y-80217587D01*
X168894763Y-80327084D01*
X168885739Y-80418134D01*
X168871578Y-80494155D01*
X168851379Y-80558566D01*
X168824238Y-80614784D01*
X168789254Y-80666229D01*
X168745524Y-80716318D01*
X168730683Y-80731473D01*
X168641763Y-80803846D01*
X168544138Y-80854286D01*
X168440966Y-80883320D01*
X168335405Y-80891475D01*
X168230614Y-80879277D01*
X168129749Y-80847254D01*
X168035969Y-80795932D01*
X167952432Y-80725837D01*
X167882296Y-80637498D01*
X167852390Y-80584963D01*
X167844016Y-80568557D01*
X167836356Y-80553381D01*
X167829376Y-80538293D01*
X167823045Y-80522153D01*
X167817332Y-80503820D01*
X167812204Y-80482154D01*
X167807630Y-80456013D01*
X167803579Y-80424257D01*
X167800018Y-80385745D01*
X167796916Y-80339336D01*
X167794241Y-80283890D01*
X167791962Y-80218266D01*
X167790047Y-80141322D01*
X167788463Y-80051919D01*
X167787180Y-79948915D01*
X167786166Y-79831169D01*
X167785896Y-79784600D01*
X171136400Y-79784600D01*
X171136400Y-80876800D01*
X172228600Y-80876800D01*
X172228600Y-79784600D01*
X171136400Y-79784600D01*
X167785896Y-79784600D01*
X167785389Y-79697542D01*
X167784817Y-79546892D01*
X167784418Y-79378078D01*
X167784162Y-79189959D01*
X167784015Y-78981395D01*
X167783947Y-78751246D01*
X167783926Y-78498369D01*
X167783920Y-78221625D01*
X167783916Y-78120900D01*
X167783974Y-77803850D01*
X167784185Y-77509214D01*
X167784547Y-77237235D01*
X167785058Y-76988155D01*
X167785718Y-76762216D01*
X167786525Y-76559663D01*
X167787070Y-76457200D01*
X168913900Y-76457200D01*
X168913900Y-78654300D01*
X174451100Y-78654300D01*
X174451100Y-76457200D01*
X168913900Y-76457200D01*
X167787070Y-76457200D01*
X167787477Y-76380736D01*
X167788574Y-76225679D01*
X167789814Y-76094735D01*
X167791195Y-75988147D01*
X167792717Y-75906156D01*
X167794377Y-75849006D01*
X167796176Y-75816939D01*
X167796748Y-75812210D01*
X167826897Y-75690731D01*
X167874915Y-75585590D01*
X167940085Y-75497954D01*
X168021692Y-75428991D01*
X168038197Y-75418575D01*
X168079149Y-75394792D01*
X168116532Y-75375956D01*
X168154079Y-75361434D01*
X168195524Y-75350594D01*
X168244600Y-75342804D01*
X168305040Y-75337430D01*
X168380579Y-75333841D01*
X168474949Y-75331405D01*
X168561475Y-75329935D01*
X168888500Y-75325002D01*
X168888500Y-74226132D01*
X168630804Y-74222000D01*
X170018800Y-74222000D01*
X170018800Y-75314200D01*
X173333500Y-75314200D01*
X173333500Y-74222000D01*
X170018800Y-74222000D01*
X168630804Y-74222000D01*
X168364625Y-74217732D01*
X168233678Y-74215784D01*
X168095294Y-74213994D01*
X167955043Y-74212418D01*
X167818495Y-74211108D01*
X167691219Y-74210119D01*
X167578785Y-74209504D01*
X167495330Y-74209316D01*
X167391962Y-74209222D01*
X167310321Y-74208775D01*
X167246735Y-74207715D01*
X167197532Y-74205781D01*
X167159040Y-74202713D01*
X167127585Y-74198250D01*
X167099496Y-74192130D01*
X167071101Y-74184094D01*
X167050830Y-74177747D01*
X166941225Y-74131132D01*
X166850195Y-74067327D01*
X166778209Y-73986951D01*
X166725734Y-73890625D01*
X166693236Y-73778970D01*
X166682422Y-73688600D01*
X166681616Y-73671956D01*
X166681114Y-73653906D01*
X166681001Y-73633329D01*
X166681364Y-73609106D01*
X166682288Y-73580114D01*
X166683860Y-73545233D01*
X166686166Y-73503342D01*
X166689291Y-73453321D01*
X166693322Y-73394048D01*
X166698345Y-73324404D01*
X166704446Y-73243266D01*
X166711711Y-73149515D01*
X166719057Y-73056775D01*
X167847049Y-73056775D01*
X167847100Y-73091700D01*
X171682500Y-73091700D01*
X172052432Y-73091696D01*
X172397807Y-73091682D01*
X172719466Y-73091652D01*
X173018252Y-73091601D01*
X173295008Y-73091525D01*
X173550575Y-73091417D01*
X173785796Y-73091274D01*
X174001513Y-73091089D01*
X174198568Y-73090858D01*
X174377805Y-73090576D01*
X174540064Y-73090237D01*
X174686188Y-73089836D01*
X174817021Y-73089369D01*
X174933403Y-73088830D01*
X175036177Y-73088214D01*
X175126186Y-73087516D01*
X175204272Y-73086731D01*
X175271277Y-73085853D01*
X175328043Y-73084879D01*
X175375414Y-73083801D01*
X175414230Y-73082617D01*
X175445335Y-73081319D01*
X175469570Y-73079904D01*
X175487779Y-73078366D01*
X175500802Y-73076700D01*
X175509484Y-73074901D01*
X175514665Y-73072963D01*
X175517188Y-73070883D01*
X175517896Y-73068654D01*
X175517900Y-73068454D01*
X175516865Y-73053486D01*
X175513839Y-73014625D01*
X175508940Y-72953292D01*
X175502285Y-72870906D01*
X175493991Y-72768886D01*
X175484177Y-72648652D01*
X175472960Y-72511625D01*
X175460458Y-72359224D01*
X175446787Y-72192868D01*
X175432067Y-72013977D01*
X175416413Y-71823972D01*
X175399945Y-71624272D01*
X175382780Y-71416296D01*
X175365034Y-71201464D01*
X175346826Y-70981197D01*
X175328274Y-70756913D01*
X175309495Y-70530033D01*
X175290606Y-70301977D01*
X175271726Y-70074163D01*
X175252971Y-69848012D01*
X175234460Y-69624944D01*
X175216310Y-69406378D01*
X175198639Y-69193734D01*
X175181563Y-68988432D01*
X175165202Y-68791891D01*
X175149672Y-68605532D01*
X175135091Y-68430773D01*
X175121577Y-68269036D01*
X175109247Y-68121739D01*
X175098219Y-67990302D01*
X175088611Y-67876145D01*
X175080539Y-67780688D01*
X175074122Y-67705350D01*
X175069478Y-67651551D01*
X175066723Y-67620712D01*
X175066145Y-67614825D01*
X175058206Y-67541800D01*
X168305856Y-67541800D01*
X168298588Y-67595775D01*
X168296753Y-67614241D01*
X168292971Y-67656462D01*
X168287360Y-67721015D01*
X168280039Y-67806474D01*
X168271125Y-67911415D01*
X168260736Y-68034413D01*
X168248990Y-68174044D01*
X168236004Y-68328882D01*
X168221896Y-68497504D01*
X168206784Y-68678485D01*
X168190787Y-68870400D01*
X168174020Y-69071824D01*
X168156604Y-69281334D01*
X168138654Y-69497504D01*
X168120290Y-69718909D01*
X168101628Y-69944126D01*
X168082787Y-70171729D01*
X168063884Y-70400294D01*
X168045037Y-70628397D01*
X168026365Y-70854612D01*
X168007984Y-71077516D01*
X167990013Y-71295683D01*
X167972569Y-71507688D01*
X167955770Y-71712109D01*
X167939734Y-71907518D01*
X167924579Y-72092493D01*
X167910422Y-72265609D01*
X167897382Y-72425440D01*
X167885576Y-72570563D01*
X167875122Y-72699552D01*
X167866137Y-72810984D01*
X167858740Y-72903432D01*
X167853048Y-72975474D01*
X167849180Y-73025684D01*
X167847252Y-73052638D01*
X167847049Y-73056775D01*
X166719057Y-73056775D01*
X166720226Y-73042029D01*
X166730077Y-72919689D01*
X166741351Y-72781372D01*
X166754133Y-72625958D01*
X166768509Y-72452327D01*
X166784565Y-72259357D01*
X166802388Y-72045928D01*
X166822064Y-71810919D01*
X166843678Y-71553210D01*
X166867317Y-71271679D01*
X166875522Y-71174000D01*
X166894351Y-70949747D01*
X166914027Y-70715140D01*
X166934279Y-70473430D01*
X166954835Y-70227870D01*
X166975424Y-69981710D01*
X166995774Y-69738203D01*
X167015614Y-69500600D01*
X167034671Y-69272153D01*
X167052674Y-69056114D01*
X167069351Y-68855734D01*
X167084432Y-68674266D01*
X167097251Y-68519700D01*
X167117034Y-68281105D01*
X167134880Y-68066488D01*
X167150914Y-67874510D01*
X167165262Y-67703833D01*
X167178047Y-67553118D01*
X167189395Y-67421028D01*
X167199430Y-67306222D01*
X167208278Y-67207364D01*
X167216064Y-67123114D01*
X167222912Y-67052134D01*
X167228947Y-66993085D01*
X167234295Y-66944630D01*
X167239080Y-66905429D01*
X167243426Y-66874144D01*
X167247460Y-66849437D01*
X167251306Y-66829969D01*
X167255088Y-66814402D01*
X167257032Y-66807537D01*
X167297530Y-66713533D01*
X167359117Y-66626719D01*
X167437674Y-66551180D01*
X167529082Y-66490998D01*
X167612150Y-66455509D01*
X167619693Y-66453145D01*
X167627974Y-66450936D01*
X167637836Y-66448875D01*
X167650125Y-66446959D01*
X167665683Y-66445180D01*
X167685356Y-66443535D01*
X167709987Y-66442019D01*
X167740420Y-66440625D01*
X167777500Y-66439349D01*
X167822071Y-66438185D01*
X167874977Y-66437129D01*
X167937063Y-66436175D01*
X168009171Y-66435317D01*
X168092147Y-66434552D01*
X168186835Y-66433873D01*
X168294079Y-66433276D01*
X168414723Y-66432755D01*
X168549611Y-66432304D01*
X168699587Y-66431920D01*
X168865496Y-66431596D01*
X169048182Y-66431328D01*
X169248489Y-66431110D01*
X169467260Y-66430936D01*
X169705341Y-66430803D01*
X169963576Y-66430705D01*
X170242808Y-66430635D01*
X170543882Y-66430591D01*
X170867641Y-66430565D01*
X171214931Y-66430553D01*
X171586595Y-66430550D01*
X171669800Y-66430550D01*
X172047044Y-66430553D01*
G36*
X180713263Y-82384571D02*
G01*
X180777116Y-82412658D01*
X180831621Y-82459268D01*
X180867328Y-82513342D01*
X180896350Y-82572250D01*
X180903124Y-84715338D01*
X180872268Y-84782738D01*
X180828070Y-84851569D01*
X180769114Y-84901422D01*
X180699075Y-84930576D01*
X180621628Y-84937311D01*
X180563372Y-84927322D01*
X180504807Y-84900221D01*
X180450581Y-84856392D01*
X180408885Y-84803327D01*
X180394120Y-84772530D01*
X180378266Y-84728686D01*
X180284751Y-84795779D01*
X180164611Y-84867674D01*
X180039399Y-84914730D01*
X179909495Y-84936868D01*
X179775279Y-84934006D01*
X179696200Y-84920987D01*
X179569691Y-84881293D01*
X179454989Y-84820209D01*
X179353057Y-84739314D01*
X179264859Y-84640190D01*
X179191361Y-84524414D01*
X179133528Y-84393568D01*
X179092322Y-84249232D01*
X179068710Y-84092984D01*
X179064465Y-83953045D01*
X179624726Y-83953045D01*
X179628031Y-84060809D01*
X179646783Y-84168697D01*
X179670296Y-84244341D01*
X179714335Y-84329398D01*
X179774285Y-84395891D01*
X179847332Y-84442424D01*
X179930664Y-84467596D01*
X180021467Y-84470008D01*
X180094776Y-84455455D01*
X180142580Y-84432204D01*
X180196052Y-84390603D01*
X180212616Y-84374842D01*
X180265955Y-84308067D01*
X180304510Y-84227198D01*
X180329440Y-84129175D01*
X180340231Y-84038030D01*
X180340344Y-83920544D01*
X180324035Y-83812958D01*
X180292922Y-83717157D01*
X180248627Y-83635028D01*
X180192767Y-83568456D01*
X180126963Y-83519328D01*
X180052834Y-83489531D01*
X179971999Y-83480949D01*
X179886079Y-83495469D01*
X179876872Y-83498395D01*
X179807152Y-83534414D01*
X179747262Y-83590843D01*
X179698138Y-83664302D01*
X179660716Y-83751410D01*
X179635934Y-83848784D01*
X179624726Y-83953045D01*
X179064465Y-83953045D01*
X179063656Y-83926406D01*
X179065186Y-83887443D01*
X179081255Y-83729617D01*
X179112702Y-83590170D01*
X179160533Y-83466540D01*
X179225754Y-83356164D01*
X179309370Y-83256480D01*
X179314938Y-83250838D01*
X179411830Y-83166323D01*
X179513499Y-83104158D01*
X179623806Y-83062795D01*
X179746611Y-83040682D01*
X179850643Y-83035800D01*
X179965780Y-83040495D01*
X180064105Y-83055927D01*
X180152660Y-83084113D01*
X180238488Y-83127069D01*
X180294926Y-83163029D01*
X180367721Y-83212718D01*
X180371685Y-82892484D01*
X180373026Y-82793356D01*
X180374489Y-82716196D01*
X180376369Y-82657572D01*
X180378961Y-82614051D01*
X180382560Y-82582203D01*
X180387460Y-82558594D01*
X180393955Y-82539794D01*
X180402340Y-82522371D01*
X180403668Y-82519872D01*
X180450024Y-82456248D01*
X180508444Y-82410846D01*
X180574645Y-82383726D01*
X180644346Y-82374947D01*
X180713263Y-82384571D01*
G37*
X180713263Y-82384571D02*
X180777116Y-82412658D01*
X180831621Y-82459268D01*
X180867328Y-82513342D01*
X180896350Y-82572250D01*
X180903124Y-84715338D01*
X180872268Y-84782738D01*
X180828070Y-84851569D01*
X180769114Y-84901422D01*
X180699075Y-84930576D01*
X180621628Y-84937311D01*
X180563372Y-84927322D01*
X180504807Y-84900221D01*
X180450581Y-84856392D01*
X180408885Y-84803327D01*
X180394120Y-84772530D01*
X180378266Y-84728686D01*
X180284751Y-84795779D01*
X180164611Y-84867674D01*
X180039399Y-84914730D01*
X179909495Y-84936868D01*
X179775279Y-84934006D01*
X179696200Y-84920987D01*
X179569691Y-84881293D01*
X179454989Y-84820209D01*
X179353057Y-84739314D01*
X179264859Y-84640190D01*
X179191361Y-84524414D01*
X179133528Y-84393568D01*
X179092322Y-84249232D01*
X179068710Y-84092984D01*
X179064465Y-83953045D01*
X179624726Y-83953045D01*
X179628031Y-84060809D01*
X179646783Y-84168697D01*
X179670296Y-84244341D01*
X179714335Y-84329398D01*
X179774285Y-84395891D01*
X179847332Y-84442424D01*
X179930664Y-84467596D01*
X180021467Y-84470008D01*
X180094776Y-84455455D01*
X180142580Y-84432204D01*
X180196052Y-84390603D01*
X180212616Y-84374842D01*
X180265955Y-84308067D01*
X180304510Y-84227198D01*
X180329440Y-84129175D01*
X180340231Y-84038030D01*
X180340344Y-83920544D01*
X180324035Y-83812958D01*
X180292922Y-83717157D01*
X180248627Y-83635028D01*
X180192767Y-83568456D01*
X180126963Y-83519328D01*
X180052834Y-83489531D01*
X179971999Y-83480949D01*
X179886079Y-83495469D01*
X179876872Y-83498395D01*
X179807152Y-83534414D01*
X179747262Y-83590843D01*
X179698138Y-83664302D01*
X179660716Y-83751410D01*
X179635934Y-83848784D01*
X179624726Y-83953045D01*
X179064465Y-83953045D01*
X179063656Y-83926406D01*
X179065186Y-83887443D01*
X179081255Y-83729617D01*
X179112702Y-83590170D01*
X179160533Y-83466540D01*
X179225754Y-83356164D01*
X179309370Y-83256480D01*
X179314938Y-83250838D01*
X179411830Y-83166323D01*
X179513499Y-83104158D01*
X179623806Y-83062795D01*
X179746611Y-83040682D01*
X179850643Y-83035800D01*
X179965780Y-83040495D01*
X180064105Y-83055927D01*
X180152660Y-83084113D01*
X180238488Y-83127069D01*
X180294926Y-83163029D01*
X180367721Y-83212718D01*
X180371685Y-82892484D01*
X180373026Y-82793356D01*
X180374489Y-82716196D01*
X180376369Y-82657572D01*
X180378961Y-82614051D01*
X180382560Y-82582203D01*
X180387460Y-82558594D01*
X180393955Y-82539794D01*
X180402340Y-82522371D01*
X180403668Y-82519872D01*
X180450024Y-82456248D01*
X180508444Y-82410846D01*
X180574645Y-82383726D01*
X180644346Y-82374947D01*
X180713263Y-82384571D01*
G36*
X178052305Y-83035055D02*
G01*
X178190001Y-83050431D01*
X178307633Y-83077154D01*
X178406946Y-83116145D01*
X178489686Y-83168324D01*
X178557597Y-83234612D01*
X178612424Y-83315928D01*
X178655913Y-83413194D01*
X178664181Y-83436971D01*
X178673070Y-83464399D01*
X178680290Y-83489721D01*
X178686077Y-83515996D01*
X178690667Y-83546285D01*
X178694297Y-83583649D01*
X178697204Y-83631148D01*
X178699623Y-83691842D01*
X178701791Y-83768792D01*
X178703945Y-83865058D01*
X178706287Y-83981950D01*
X178708666Y-84100422D01*
X178710839Y-84196604D01*
X178713041Y-84273602D01*
X178715510Y-84334521D01*
X178718484Y-84382468D01*
X178722198Y-84420548D01*
X178726890Y-84451868D01*
X178732797Y-84479533D01*
X178740156Y-84506649D01*
X178748402Y-84533747D01*
X178772069Y-84624678D01*
X178780089Y-84699159D01*
X178771831Y-84761226D01*
X178746667Y-84814913D01*
X178703968Y-84864254D01*
X178695689Y-84871818D01*
X178650247Y-84900852D01*
X178591967Y-84922882D01*
X178531836Y-84934699D01*
X178483762Y-84933689D01*
X178423509Y-84911561D01*
X178360659Y-84869144D01*
X178300677Y-84810239D01*
X178292990Y-84801100D01*
X178265722Y-84768186D01*
X178244351Y-84742882D01*
X178235761Y-84733129D01*
X178221035Y-84734365D01*
X178190546Y-84746953D01*
X178149851Y-84768440D01*
X178132169Y-84778850D01*
X178027942Y-84837612D01*
X177933542Y-84880214D01*
X177841458Y-84909058D01*
X177744178Y-84926546D01*
X177645150Y-84934599D01*
X177534144Y-84934750D01*
X177445221Y-84923832D01*
X177439101Y-84922486D01*
X177351289Y-84894436D01*
X177263035Y-84852206D01*
X177183160Y-84800665D01*
X177124148Y-84748663D01*
X177087255Y-84702867D01*
X177050205Y-84646736D01*
X177025199Y-84600736D01*
X177006763Y-84559869D01*
X176994966Y-84525883D01*
X176988342Y-84490826D01*
X176985426Y-84446749D01*
X176984751Y-84385702D01*
X176984750Y-84381385D01*
X176984991Y-84348709D01*
X177539720Y-84348709D01*
X177551593Y-84405587D01*
X177583407Y-84457495D01*
X177629965Y-84496858D01*
X177675030Y-84513463D01*
X177736176Y-84521179D01*
X177805630Y-84519852D01*
X177875621Y-84509325D01*
X177902634Y-84502324D01*
X177981079Y-84468052D01*
X178048588Y-84417146D01*
X178098856Y-84354584D01*
X178105953Y-84341761D01*
X178120441Y-84305039D01*
X178132418Y-84259006D01*
X178141308Y-84209195D01*
X178146539Y-84161138D01*
X178147537Y-84120369D01*
X178143728Y-84092420D01*
X178134537Y-84082824D01*
X178132760Y-84083271D01*
X178115052Y-84088139D01*
X178076942Y-84097490D01*
X178022819Y-84110283D01*
X177957073Y-84125478D01*
X177896415Y-84139262D01*
X177792099Y-84164231D01*
X177710259Y-84187414D01*
X177648154Y-84210027D01*
X177603037Y-84233287D01*
X177572164Y-84258408D01*
X177552792Y-84286606D01*
X177550069Y-84292690D01*
X177539720Y-84348709D01*
X176984991Y-84348709D01*
X176985201Y-84320279D01*
X176987678Y-84276476D01*
X176993859Y-84241882D01*
X177005426Y-84208402D01*
X177024060Y-84167943D01*
X177032739Y-84150276D01*
X177077361Y-84073032D01*
X177128107Y-84012412D01*
X177147039Y-83994786D01*
X177194402Y-83956248D01*
X177243149Y-83924120D01*
X177297524Y-83896699D01*
X177361770Y-83872285D01*
X177440132Y-83849174D01*
X177536852Y-83825666D01*
X177607050Y-83810326D01*
X177742600Y-83781189D01*
X177860212Y-83755133D01*
X177958594Y-83732468D01*
X178036458Y-83713501D01*
X178092514Y-83698541D01*
X178125474Y-83687896D01*
X178132306Y-83684673D01*
X178142583Y-83664726D01*
X178142080Y-83629857D01*
X178132130Y-83587469D01*
X178114067Y-83544964D01*
X178104172Y-83528547D01*
X178073011Y-83496039D01*
X178028427Y-83473881D01*
X177966803Y-83460905D01*
X177884521Y-83455940D01*
X177879230Y-83455876D01*
X177786911Y-83459931D01*
X177711459Y-83476117D01*
X177647444Y-83507339D01*
X177589436Y-83556500D01*
X177532006Y-83626505D01*
X177514936Y-83650753D01*
X177472610Y-83709314D01*
X177436976Y-83748989D01*
X177402733Y-83773284D01*
X177364579Y-83785702D01*
X177317211Y-83789747D01*
X177304457Y-83789862D01*
X177232665Y-83783248D01*
X177175184Y-83760919D01*
X177124253Y-83719143D01*
X177100396Y-83691761D01*
X177079585Y-83663678D01*
X177067815Y-83638306D01*
X177062644Y-83606755D01*
X177061629Y-83560133D01*
X177061688Y-83550821D01*
X177069485Y-83469072D01*
X177093179Y-83395940D01*
X177135330Y-83326162D01*
X177198501Y-83254476D01*
X177212743Y-83240540D01*
X177284089Y-83180564D01*
X177362715Y-83132441D01*
X177454494Y-83093191D01*
X177565302Y-83059833D01*
X177572642Y-83057965D01*
X177621528Y-83046756D01*
X177668740Y-83038915D01*
X177720546Y-83033898D01*
X177783215Y-83031158D01*
X177863014Y-83030151D01*
X177892800Y-83030105D01*
X178052305Y-83035055D01*
G37*
X178052305Y-83035055D02*
X178190001Y-83050431D01*
X178307633Y-83077154D01*
X178406946Y-83116145D01*
X178489686Y-83168324D01*
X178557597Y-83234612D01*
X178612424Y-83315928D01*
X178655913Y-83413194D01*
X178664181Y-83436971D01*
X178673070Y-83464399D01*
X178680290Y-83489721D01*
X178686077Y-83515996D01*
X178690667Y-83546285D01*
X178694297Y-83583649D01*
X178697204Y-83631148D01*
X178699623Y-83691842D01*
X178701791Y-83768792D01*
X178703945Y-83865058D01*
X178706287Y-83981950D01*
X178708666Y-84100422D01*
X178710839Y-84196604D01*
X178713041Y-84273602D01*
X178715510Y-84334521D01*
X178718484Y-84382468D01*
X178722198Y-84420548D01*
X178726890Y-84451868D01*
X178732797Y-84479533D01*
X178740156Y-84506649D01*
X178748402Y-84533747D01*
X178772069Y-84624678D01*
X178780089Y-84699159D01*
X178771831Y-84761226D01*
X178746667Y-84814913D01*
X178703968Y-84864254D01*
X178695689Y-84871818D01*
X178650247Y-84900852D01*
X178591967Y-84922882D01*
X178531836Y-84934699D01*
X178483762Y-84933689D01*
X178423509Y-84911561D01*
X178360659Y-84869144D01*
X178300677Y-84810239D01*
X178292990Y-84801100D01*
X178265722Y-84768186D01*
X178244351Y-84742882D01*
X178235761Y-84733129D01*
X178221035Y-84734365D01*
X178190546Y-84746953D01*
X178149851Y-84768440D01*
X178132169Y-84778850D01*
X178027942Y-84837612D01*
X177933542Y-84880214D01*
X177841458Y-84909058D01*
X177744178Y-84926546D01*
X177645150Y-84934599D01*
X177534144Y-84934750D01*
X177445221Y-84923832D01*
X177439101Y-84922486D01*
X177351289Y-84894436D01*
X177263035Y-84852206D01*
X177183160Y-84800665D01*
X177124148Y-84748663D01*
X177087255Y-84702867D01*
X177050205Y-84646736D01*
X177025199Y-84600736D01*
X177006763Y-84559869D01*
X176994966Y-84525883D01*
X176988342Y-84490826D01*
X176985426Y-84446749D01*
X176984751Y-84385702D01*
X176984750Y-84381385D01*
X176984991Y-84348709D01*
X177539720Y-84348709D01*
X177551593Y-84405587D01*
X177583407Y-84457495D01*
X177629965Y-84496858D01*
X177675030Y-84513463D01*
X177736176Y-84521179D01*
X177805630Y-84519852D01*
X177875621Y-84509325D01*
X177902634Y-84502324D01*
X177981079Y-84468052D01*
X178048588Y-84417146D01*
X178098856Y-84354584D01*
X178105953Y-84341761D01*
X178120441Y-84305039D01*
X178132418Y-84259006D01*
X178141308Y-84209195D01*
X178146539Y-84161138D01*
X178147537Y-84120369D01*
X178143728Y-84092420D01*
X178134537Y-84082824D01*
X178132760Y-84083271D01*
X178115052Y-84088139D01*
X178076942Y-84097490D01*
X178022819Y-84110283D01*
X177957073Y-84125478D01*
X177896415Y-84139262D01*
X177792099Y-84164231D01*
X177710259Y-84187414D01*
X177648154Y-84210027D01*
X177603037Y-84233287D01*
X177572164Y-84258408D01*
X177552792Y-84286606D01*
X177550069Y-84292690D01*
X177539720Y-84348709D01*
X176984991Y-84348709D01*
X176985201Y-84320279D01*
X176987678Y-84276476D01*
X176993859Y-84241882D01*
X177005426Y-84208402D01*
X177024060Y-84167943D01*
X177032739Y-84150276D01*
X177077361Y-84073032D01*
X177128107Y-84012412D01*
X177147039Y-83994786D01*
X177194402Y-83956248D01*
X177243149Y-83924120D01*
X177297524Y-83896699D01*
X177361770Y-83872285D01*
X177440132Y-83849174D01*
X177536852Y-83825666D01*
X177607050Y-83810326D01*
X177742600Y-83781189D01*
X177860212Y-83755133D01*
X177958594Y-83732468D01*
X178036458Y-83713501D01*
X178092514Y-83698541D01*
X178125474Y-83687896D01*
X178132306Y-83684673D01*
X178142583Y-83664726D01*
X178142080Y-83629857D01*
X178132130Y-83587469D01*
X178114067Y-83544964D01*
X178104172Y-83528547D01*
X178073011Y-83496039D01*
X178028427Y-83473881D01*
X177966803Y-83460905D01*
X177884521Y-83455940D01*
X177879230Y-83455876D01*
X177786911Y-83459931D01*
X177711459Y-83476117D01*
X177647444Y-83507339D01*
X177589436Y-83556500D01*
X177532006Y-83626505D01*
X177514936Y-83650753D01*
X177472610Y-83709314D01*
X177436976Y-83748989D01*
X177402733Y-83773284D01*
X177364579Y-83785702D01*
X177317211Y-83789747D01*
X177304457Y-83789862D01*
X177232665Y-83783248D01*
X177175184Y-83760919D01*
X177124253Y-83719143D01*
X177100396Y-83691761D01*
X177079585Y-83663678D01*
X177067815Y-83638306D01*
X177062644Y-83606755D01*
X177061629Y-83560133D01*
X177061688Y-83550821D01*
X177069485Y-83469072D01*
X177093179Y-83395940D01*
X177135330Y-83326162D01*
X177198501Y-83254476D01*
X177212743Y-83240540D01*
X177284089Y-83180564D01*
X177362715Y-83132441D01*
X177454494Y-83093191D01*
X177565302Y-83059833D01*
X177572642Y-83057965D01*
X177621528Y-83046756D01*
X177668740Y-83038915D01*
X177720546Y-83033898D01*
X177783215Y-83031158D01*
X177863014Y-83030151D01*
X177892800Y-83030105D01*
X178052305Y-83035055D01*
G36*
X173700631Y-83037019D02*
G01*
X173857613Y-83065599D01*
X174000610Y-83114296D01*
X174128555Y-83182280D01*
X174240384Y-83268720D01*
X174335032Y-83372784D01*
X174411432Y-83493643D01*
X174468519Y-83630465D01*
X174470809Y-83637591D01*
X174507909Y-83790134D01*
X174523689Y-83943133D01*
X174518939Y-84093898D01*
X174494449Y-84239739D01*
X174451008Y-84377965D01*
X174389407Y-84505886D01*
X174310434Y-84620811D01*
X174214879Y-84720052D01*
X174135166Y-84781008D01*
X174011219Y-84848949D01*
X173873479Y-84898610D01*
X173726775Y-84928986D01*
X173575936Y-84939071D01*
X173428452Y-84928253D01*
X173281522Y-84894761D01*
X173145400Y-84839992D01*
X173022120Y-84765630D01*
X172913715Y-84673356D01*
X172822222Y-84564853D01*
X172749673Y-84441804D01*
X172705435Y-84330250D01*
X172666659Y-84168282D01*
X172654435Y-84034815D01*
X173222422Y-84034815D01*
X173232206Y-84137512D01*
X173252215Y-84229447D01*
X173278545Y-84297033D01*
X173311892Y-84347484D01*
X173357371Y-84397639D01*
X173406713Y-84439229D01*
X173441450Y-84459906D01*
X173495267Y-84475556D01*
X173562992Y-84482686D01*
X173634495Y-84480980D01*
X173699644Y-84470124D01*
X173706676Y-84468155D01*
X173759930Y-84442022D01*
X173814625Y-84397522D01*
X173864991Y-84340642D01*
X173905258Y-84277370D01*
X173918606Y-84248256D01*
X173930553Y-84215879D01*
X173938888Y-84185095D01*
X173944247Y-84150307D01*
X173947264Y-84105920D01*
X173948573Y-84046340D01*
X173948819Y-83981950D01*
X173948400Y-83905073D01*
X173946746Y-83848094D01*
X173943260Y-83805521D01*
X173937347Y-83771861D01*
X173928410Y-83741618D01*
X173920458Y-83720592D01*
X173873639Y-83632316D01*
X173812339Y-83562680D01*
X173738748Y-83513303D01*
X173655058Y-83485803D01*
X173595323Y-83480424D01*
X173516017Y-83485473D01*
X173452208Y-83503040D01*
X173395772Y-83536310D01*
X173350483Y-83576357D01*
X173308920Y-83622193D01*
X173281010Y-83666787D01*
X173259072Y-83722691D01*
X173256975Y-83729188D01*
X173234552Y-83823950D01*
X173223119Y-83928060D01*
X173222422Y-84034815D01*
X172654435Y-84034815D01*
X172651637Y-84004277D01*
X172660150Y-83841334D01*
X172691976Y-83682550D01*
X172746897Y-83531025D01*
X172764871Y-83493323D01*
X172837742Y-83375644D01*
X172929390Y-83273295D01*
X173037543Y-83187381D01*
X173159934Y-83119010D01*
X173294292Y-83069288D01*
X173438350Y-83039321D01*
X173589838Y-83030216D01*
X173700631Y-83037019D01*
G37*
X173700631Y-83037019D02*
X173857613Y-83065599D01*
X174000610Y-83114296D01*
X174128555Y-83182280D01*
X174240384Y-83268720D01*
X174335032Y-83372784D01*
X174411432Y-83493643D01*
X174468519Y-83630465D01*
X174470809Y-83637591D01*
X174507909Y-83790134D01*
X174523689Y-83943133D01*
X174518939Y-84093898D01*
X174494449Y-84239739D01*
X174451008Y-84377965D01*
X174389407Y-84505886D01*
X174310434Y-84620811D01*
X174214879Y-84720052D01*
X174135166Y-84781008D01*
X174011219Y-84848949D01*
X173873479Y-84898610D01*
X173726775Y-84928986D01*
X173575936Y-84939071D01*
X173428452Y-84928253D01*
X173281522Y-84894761D01*
X173145400Y-84839992D01*
X173022120Y-84765630D01*
X172913715Y-84673356D01*
X172822222Y-84564853D01*
X172749673Y-84441804D01*
X172705435Y-84330250D01*
X172666659Y-84168282D01*
X172654435Y-84034815D01*
X173222422Y-84034815D01*
X173232206Y-84137512D01*
X173252215Y-84229447D01*
X173278545Y-84297033D01*
X173311892Y-84347484D01*
X173357371Y-84397639D01*
X173406713Y-84439229D01*
X173441450Y-84459906D01*
X173495267Y-84475556D01*
X173562992Y-84482686D01*
X173634495Y-84480980D01*
X173699644Y-84470124D01*
X173706676Y-84468155D01*
X173759930Y-84442022D01*
X173814625Y-84397522D01*
X173864991Y-84340642D01*
X173905258Y-84277370D01*
X173918606Y-84248256D01*
X173930553Y-84215879D01*
X173938888Y-84185095D01*
X173944247Y-84150307D01*
X173947264Y-84105920D01*
X173948573Y-84046340D01*
X173948819Y-83981950D01*
X173948400Y-83905073D01*
X173946746Y-83848094D01*
X173943260Y-83805521D01*
X173937347Y-83771861D01*
X173928410Y-83741618D01*
X173920458Y-83720592D01*
X173873639Y-83632316D01*
X173812339Y-83562680D01*
X173738748Y-83513303D01*
X173655058Y-83485803D01*
X173595323Y-83480424D01*
X173516017Y-83485473D01*
X173452208Y-83503040D01*
X173395772Y-83536310D01*
X173350483Y-83576357D01*
X173308920Y-83622193D01*
X173281010Y-83666787D01*
X173259072Y-83722691D01*
X173256975Y-83729188D01*
X173234552Y-83823950D01*
X173223119Y-83928060D01*
X173222422Y-84034815D01*
X172654435Y-84034815D01*
X172651637Y-84004277D01*
X172660150Y-83841334D01*
X172691976Y-83682550D01*
X172746897Y-83531025D01*
X172764871Y-83493323D01*
X172837742Y-83375644D01*
X172929390Y-83273295D01*
X173037543Y-83187381D01*
X173159934Y-83119010D01*
X173294292Y-83069288D01*
X173438350Y-83039321D01*
X173589838Y-83030216D01*
X173700631Y-83037019D01*
G36*
X171629889Y-83031827D02*
G01*
X171694360Y-83050723D01*
X171750584Y-83087027D01*
X171794259Y-83141030D01*
X171802247Y-83156342D01*
X171823969Y-83202118D01*
X171877059Y-83148732D01*
X171920712Y-83111865D01*
X171972894Y-83077309D01*
X172000000Y-83063018D01*
X172079385Y-83038406D01*
X172169250Y-83030564D01*
X172263968Y-83038148D01*
X172357914Y-83059811D01*
X172445461Y-83094207D01*
X172520984Y-83139989D01*
X172578857Y-83195811D01*
X172584114Y-83202797D01*
X172620093Y-83272011D01*
X172631663Y-83344188D01*
X172619004Y-83415929D01*
X172582296Y-83483834D01*
X172568270Y-83501088D01*
X172517507Y-83547970D01*
X172462426Y-83575356D01*
X172399013Y-83583996D01*
X172323254Y-83574639D01*
X172262187Y-83558237D01*
X172189951Y-83539287D01*
X172126576Y-83531156D01*
X172071523Y-83535067D01*
X172024254Y-83552242D01*
X171984232Y-83583903D01*
X171950918Y-83631273D01*
X171923774Y-83695573D01*
X171902263Y-83778026D01*
X171885846Y-83879854D01*
X171873985Y-84002279D01*
X171866143Y-84146523D01*
X171861781Y-84313808D01*
X171860419Y-84470900D01*
X171859881Y-84559372D01*
X171858601Y-84626484D01*
X171856252Y-84676273D01*
X171852509Y-84712775D01*
X171847046Y-84740028D01*
X171839537Y-84762068D01*
X171836342Y-84769350D01*
X171790745Y-84841900D01*
X171730376Y-84895943D01*
X171708215Y-84908886D01*
X171658624Y-84925797D01*
X171597279Y-84934856D01*
X171536643Y-84934931D01*
X171497845Y-84928021D01*
X171440070Y-84898586D01*
X171386540Y-84850480D01*
X171343769Y-84790328D01*
X171327116Y-84754314D01*
X171321409Y-84738466D01*
X171316589Y-84722486D01*
X171312595Y-84704227D01*
X171309365Y-84681538D01*
X171306835Y-84652272D01*
X171304943Y-84614280D01*
X171303627Y-84565414D01*
X171302823Y-84503523D01*
X171302469Y-84426461D01*
X171302504Y-84332078D01*
X171302863Y-84218225D01*
X171303485Y-84082754D01*
X171304094Y-83964046D01*
X171304922Y-83810633D01*
X171305729Y-83680511D01*
X171306596Y-83571570D01*
X171307607Y-83481702D01*
X171308843Y-83408796D01*
X171310385Y-83350743D01*
X171312317Y-83305435D01*
X171314721Y-83270762D01*
X171317678Y-83244615D01*
X171321271Y-83224884D01*
X171325582Y-83209460D01*
X171330693Y-83196235D01*
X171334306Y-83188200D01*
X171375520Y-83124453D01*
X171429986Y-83076650D01*
X171493402Y-83045083D01*
X171561470Y-83030044D01*
X171629889Y-83031827D01*
G37*
X171629889Y-83031827D02*
X171694360Y-83050723D01*
X171750584Y-83087027D01*
X171794259Y-83141030D01*
X171802247Y-83156342D01*
X171823969Y-83202118D01*
X171877059Y-83148732D01*
X171920712Y-83111865D01*
X171972894Y-83077309D01*
X172000000Y-83063018D01*
X172079385Y-83038406D01*
X172169250Y-83030564D01*
X172263968Y-83038148D01*
X172357914Y-83059811D01*
X172445461Y-83094207D01*
X172520984Y-83139989D01*
X172578857Y-83195811D01*
X172584114Y-83202797D01*
X172620093Y-83272011D01*
X172631663Y-83344188D01*
X172619004Y-83415929D01*
X172582296Y-83483834D01*
X172568270Y-83501088D01*
X172517507Y-83547970D01*
X172462426Y-83575356D01*
X172399013Y-83583996D01*
X172323254Y-83574639D01*
X172262187Y-83558237D01*
X172189951Y-83539287D01*
X172126576Y-83531156D01*
X172071523Y-83535067D01*
X172024254Y-83552242D01*
X171984232Y-83583903D01*
X171950918Y-83631273D01*
X171923774Y-83695573D01*
X171902263Y-83778026D01*
X171885846Y-83879854D01*
X171873985Y-84002279D01*
X171866143Y-84146523D01*
X171861781Y-84313808D01*
X171860419Y-84470900D01*
X171859881Y-84559372D01*
X171858601Y-84626484D01*
X171856252Y-84676273D01*
X171852509Y-84712775D01*
X171847046Y-84740028D01*
X171839537Y-84762068D01*
X171836342Y-84769350D01*
X171790745Y-84841900D01*
X171730376Y-84895943D01*
X171708215Y-84908886D01*
X171658624Y-84925797D01*
X171597279Y-84934856D01*
X171536643Y-84934931D01*
X171497845Y-84928021D01*
X171440070Y-84898586D01*
X171386540Y-84850480D01*
X171343769Y-84790328D01*
X171327116Y-84754314D01*
X171321409Y-84738466D01*
X171316589Y-84722486D01*
X171312595Y-84704227D01*
X171309365Y-84681538D01*
X171306835Y-84652272D01*
X171304943Y-84614280D01*
X171303627Y-84565414D01*
X171302823Y-84503523D01*
X171302469Y-84426461D01*
X171302504Y-84332078D01*
X171302863Y-84218225D01*
X171303485Y-84082754D01*
X171304094Y-83964046D01*
X171304922Y-83810633D01*
X171305729Y-83680511D01*
X171306596Y-83571570D01*
X171307607Y-83481702D01*
X171308843Y-83408796D01*
X171310385Y-83350743D01*
X171312317Y-83305435D01*
X171314721Y-83270762D01*
X171317678Y-83244615D01*
X171321271Y-83224884D01*
X171325582Y-83209460D01*
X171330693Y-83196235D01*
X171334306Y-83188200D01*
X171375520Y-83124453D01*
X171429986Y-83076650D01*
X171493402Y-83045083D01*
X171561470Y-83030044D01*
X171629889Y-83031827D01*
G36*
X169671974Y-82385274D02*
G01*
X169713252Y-82402870D01*
X169713817Y-82403161D01*
X169776587Y-82448782D01*
X169827215Y-82511667D01*
X169860242Y-82584576D01*
X169865230Y-82604079D01*
X169869105Y-82635717D01*
X169872438Y-82690851D01*
X169875179Y-82767581D01*
X169877276Y-82864006D01*
X169878681Y-82978227D01*
X169879343Y-83108345D01*
X169879386Y-83141200D01*
X169879672Y-83613650D01*
X170142911Y-83344586D01*
X170211535Y-83275205D01*
X170276445Y-83211011D01*
X170334993Y-83154513D01*
X170384534Y-83108216D01*
X170422420Y-83074630D01*
X170446004Y-83056260D01*
X170449250Y-83054391D01*
X170491745Y-83040999D01*
X170546407Y-83033854D01*
X170566617Y-83033260D01*
X170645600Y-83044366D01*
X170713387Y-83075848D01*
X170766751Y-83124947D01*
X170802461Y-83188904D01*
X170815848Y-83246119D01*
X170815662Y-83292907D01*
X170803491Y-83340950D01*
X170777780Y-83392495D01*
X170736973Y-83449787D01*
X170679513Y-83515073D01*
X170603846Y-83590598D01*
X170529302Y-83659769D01*
X170423854Y-83755366D01*
X170657708Y-84122658D01*
X170727951Y-84233077D01*
X170785741Y-84324390D01*
X170832292Y-84398898D01*
X170868819Y-84458903D01*
X170896537Y-84506708D01*
X170916662Y-84544613D01*
X170930407Y-84574922D01*
X170938989Y-84599935D01*
X170943621Y-84621955D01*
X170945519Y-84643284D01*
X170945898Y-84666224D01*
X170945900Y-84668700D01*
X170934628Y-84747165D01*
X170903260Y-84815919D01*
X170855463Y-84872113D01*
X170794906Y-84912897D01*
X170725258Y-84935423D01*
X170650186Y-84936841D01*
X170611261Y-84928597D01*
X170578928Y-84915288D01*
X170545705Y-84893065D01*
X170509997Y-84859951D01*
X170470211Y-84813969D01*
X170424752Y-84753143D01*
X170372026Y-84675494D01*
X170310439Y-84579047D01*
X170249108Y-84479455D01*
X170200655Y-84399979D01*
X170155928Y-84326897D01*
X170116794Y-84263236D01*
X170085121Y-84212028D01*
X170062778Y-84176303D01*
X170051633Y-84159089D01*
X170051370Y-84158724D01*
X170041862Y-84150235D01*
X170028979Y-84151660D01*
X170008408Y-84165359D01*
X169975835Y-84193688D01*
X169958839Y-84209310D01*
X169881605Y-84280816D01*
X169876797Y-84499683D01*
X169874695Y-84581475D01*
X169872154Y-84642335D01*
X169868645Y-84686729D01*
X169863637Y-84719124D01*
X169856602Y-84743988D01*
X169847009Y-84765787D01*
X169844714Y-84770216D01*
X169795822Y-84840143D01*
X169734169Y-84892831D01*
X169663890Y-84926393D01*
X169589121Y-84938942D01*
X169513996Y-84928592D01*
X169504450Y-84925476D01*
X169434838Y-84888085D01*
X169378874Y-84830830D01*
X169350302Y-84781800D01*
X169319872Y-84715333D01*
X169323261Y-83650141D01*
X169326650Y-82584950D01*
X169359297Y-82521450D01*
X169405929Y-82453665D01*
X169465371Y-82407706D01*
X169538676Y-82382882D01*
X169577736Y-82378347D01*
X169630978Y-82377861D01*
X169671974Y-82385274D01*
G37*
X169671974Y-82385274D02*
X169713252Y-82402870D01*
X169713817Y-82403161D01*
X169776587Y-82448782D01*
X169827215Y-82511667D01*
X169860242Y-82584576D01*
X169865230Y-82604079D01*
X169869105Y-82635717D01*
X169872438Y-82690851D01*
X169875179Y-82767581D01*
X169877276Y-82864006D01*
X169878681Y-82978227D01*
X169879343Y-83108345D01*
X169879386Y-83141200D01*
X169879672Y-83613650D01*
X170142911Y-83344586D01*
X170211535Y-83275205D01*
X170276445Y-83211011D01*
X170334993Y-83154513D01*
X170384534Y-83108216D01*
X170422420Y-83074630D01*
X170446004Y-83056260D01*
X170449250Y-83054391D01*
X170491745Y-83040999D01*
X170546407Y-83033854D01*
X170566617Y-83033260D01*
X170645600Y-83044366D01*
X170713387Y-83075848D01*
X170766751Y-83124947D01*
X170802461Y-83188904D01*
X170815848Y-83246119D01*
X170815662Y-83292907D01*
X170803491Y-83340950D01*
X170777780Y-83392495D01*
X170736973Y-83449787D01*
X170679513Y-83515073D01*
X170603846Y-83590598D01*
X170529302Y-83659769D01*
X170423854Y-83755366D01*
X170657708Y-84122658D01*
X170727951Y-84233077D01*
X170785741Y-84324390D01*
X170832292Y-84398898D01*
X170868819Y-84458903D01*
X170896537Y-84506708D01*
X170916662Y-84544613D01*
X170930407Y-84574922D01*
X170938989Y-84599935D01*
X170943621Y-84621955D01*
X170945519Y-84643284D01*
X170945898Y-84666224D01*
X170945900Y-84668700D01*
X170934628Y-84747165D01*
X170903260Y-84815919D01*
X170855463Y-84872113D01*
X170794906Y-84912897D01*
X170725258Y-84935423D01*
X170650186Y-84936841D01*
X170611261Y-84928597D01*
X170578928Y-84915288D01*
X170545705Y-84893065D01*
X170509997Y-84859951D01*
X170470211Y-84813969D01*
X170424752Y-84753143D01*
X170372026Y-84675494D01*
X170310439Y-84579047D01*
X170249108Y-84479455D01*
X170200655Y-84399979D01*
X170155928Y-84326897D01*
X170116794Y-84263236D01*
X170085121Y-84212028D01*
X170062778Y-84176303D01*
X170051633Y-84159089D01*
X170051370Y-84158724D01*
X170041862Y-84150235D01*
X170028979Y-84151660D01*
X170008408Y-84165359D01*
X169975835Y-84193688D01*
X169958839Y-84209310D01*
X169881605Y-84280816D01*
X169876797Y-84499683D01*
X169874695Y-84581475D01*
X169872154Y-84642335D01*
X169868645Y-84686729D01*
X169863637Y-84719124D01*
X169856602Y-84743988D01*
X169847009Y-84765787D01*
X169844714Y-84770216D01*
X169795822Y-84840143D01*
X169734169Y-84892831D01*
X169663890Y-84926393D01*
X169589121Y-84938942D01*
X169513996Y-84928592D01*
X169504450Y-84925476D01*
X169434838Y-84888085D01*
X169378874Y-84830830D01*
X169350302Y-84781800D01*
X169319872Y-84715333D01*
X169323261Y-83650141D01*
X169326650Y-82584950D01*
X169359297Y-82521450D01*
X169405929Y-82453665D01*
X169465371Y-82407706D01*
X169538676Y-82382882D01*
X169577736Y-82378347D01*
X169630978Y-82377861D01*
X169671974Y-82385274D01*
G36*
X168252785Y-83032758D02*
G01*
X168310558Y-83035391D01*
X168358285Y-83040845D01*
X168403635Y-83050047D01*
X168454275Y-83063923D01*
X168463050Y-83066540D01*
X168585426Y-83110959D01*
X168690278Y-83166744D01*
X168784376Y-83237864D01*
X168831493Y-83282412D01*
X168906945Y-83369515D01*
X168958011Y-83454484D01*
X168985403Y-83539094D01*
X168989835Y-83625122D01*
X168984579Y-83664494D01*
X168961503Y-83722820D01*
X168918663Y-83773776D01*
X168861406Y-83813794D01*
X168795082Y-83839309D01*
X168725039Y-83846752D01*
X168712551Y-83845908D01*
X168666854Y-83837490D01*
X168626071Y-83819592D01*
X168585813Y-83788937D01*
X168541691Y-83742253D01*
X168494799Y-83683499D01*
X168431232Y-83607111D01*
X168371608Y-83552190D01*
X168311632Y-83516177D01*
X168247009Y-83496513D01*
X168173443Y-83490639D01*
X168171159Y-83490649D01*
X168077386Y-83502425D01*
X167995934Y-83536029D01*
X167927504Y-83590701D01*
X167872797Y-83665682D01*
X167832514Y-83760213D01*
X167807356Y-83873534D01*
X167805620Y-83886494D01*
X167798467Y-84011139D01*
X167808822Y-84126490D01*
X167835753Y-84230088D01*
X167878332Y-84319476D01*
X167935627Y-84392193D01*
X168006709Y-84445781D01*
X168019776Y-84452653D01*
X168068815Y-84468274D01*
X168132585Y-84476780D01*
X168201910Y-84478117D01*
X168267615Y-84472229D01*
X168320523Y-84459061D01*
X168330868Y-84454530D01*
X168385690Y-84418099D01*
X168442314Y-84364955D01*
X168493775Y-84302220D01*
X168520840Y-84260230D01*
X168568025Y-84192718D01*
X168623671Y-84137173D01*
X168681982Y-84098980D01*
X168704064Y-84089994D01*
X168772860Y-84079983D01*
X168841977Y-84092799D01*
X168906220Y-84126477D01*
X168960392Y-84179050D01*
X168968447Y-84190043D01*
X168989840Y-84223347D01*
X169002087Y-84252380D01*
X169007687Y-84286583D01*
X169009136Y-84335397D01*
X169009150Y-84343900D01*
X169002511Y-84424193D01*
X168980993Y-84497126D01*
X168942188Y-84567642D01*
X168883689Y-84640682D01*
X168845023Y-84680967D01*
X168738473Y-84769626D01*
X168616725Y-84840400D01*
X168484591Y-84891056D01*
X168346878Y-84919357D01*
X168327635Y-84921389D01*
X168250672Y-84928218D01*
X168191873Y-84932314D01*
X168144165Y-84933814D01*
X168100477Y-84932855D01*
X168053734Y-84929572D01*
X168027778Y-84927177D01*
X167875279Y-84900967D01*
X167736256Y-84853686D01*
X167611823Y-84786332D01*
X167503097Y-84699898D01*
X167411192Y-84595383D01*
X167337226Y-84473781D01*
X167282313Y-84336089D01*
X167257618Y-84239660D01*
X167246152Y-84161538D01*
X167239678Y-84068876D01*
X167238231Y-83970573D01*
X167241843Y-83875530D01*
X167250547Y-83792646D01*
X167255845Y-83763048D01*
X167298599Y-83610167D01*
X167358754Y-83473531D01*
X167435518Y-83354260D01*
X167528100Y-83253476D01*
X167635707Y-83172298D01*
X167697523Y-83138115D01*
X167797338Y-83093510D01*
X167890705Y-83062473D01*
X167985961Y-83043161D01*
X168091442Y-83033729D01*
X168177300Y-83032021D01*
X168252785Y-83032758D01*
G37*
X168252785Y-83032758D02*
X168310558Y-83035391D01*
X168358285Y-83040845D01*
X168403635Y-83050047D01*
X168454275Y-83063923D01*
X168463050Y-83066540D01*
X168585426Y-83110959D01*
X168690278Y-83166744D01*
X168784376Y-83237864D01*
X168831493Y-83282412D01*
X168906945Y-83369515D01*
X168958011Y-83454484D01*
X168985403Y-83539094D01*
X168989835Y-83625122D01*
X168984579Y-83664494D01*
X168961503Y-83722820D01*
X168918663Y-83773776D01*
X168861406Y-83813794D01*
X168795082Y-83839309D01*
X168725039Y-83846752D01*
X168712551Y-83845908D01*
X168666854Y-83837490D01*
X168626071Y-83819592D01*
X168585813Y-83788937D01*
X168541691Y-83742253D01*
X168494799Y-83683499D01*
X168431232Y-83607111D01*
X168371608Y-83552190D01*
X168311632Y-83516177D01*
X168247009Y-83496513D01*
X168173443Y-83490639D01*
X168171159Y-83490649D01*
X168077386Y-83502425D01*
X167995934Y-83536029D01*
X167927504Y-83590701D01*
X167872797Y-83665682D01*
X167832514Y-83760213D01*
X167807356Y-83873534D01*
X167805620Y-83886494D01*
X167798467Y-84011139D01*
X167808822Y-84126490D01*
X167835753Y-84230088D01*
X167878332Y-84319476D01*
X167935627Y-84392193D01*
X168006709Y-84445781D01*
X168019776Y-84452653D01*
X168068815Y-84468274D01*
X168132585Y-84476780D01*
X168201910Y-84478117D01*
X168267615Y-84472229D01*
X168320523Y-84459061D01*
X168330868Y-84454530D01*
X168385690Y-84418099D01*
X168442314Y-84364955D01*
X168493775Y-84302220D01*
X168520840Y-84260230D01*
X168568025Y-84192718D01*
X168623671Y-84137173D01*
X168681982Y-84098980D01*
X168704064Y-84089994D01*
X168772860Y-84079983D01*
X168841977Y-84092799D01*
X168906220Y-84126477D01*
X168960392Y-84179050D01*
X168968447Y-84190043D01*
X168989840Y-84223347D01*
X169002087Y-84252380D01*
X169007687Y-84286583D01*
X169009136Y-84335397D01*
X169009150Y-84343900D01*
X169002511Y-84424193D01*
X168980993Y-84497126D01*
X168942188Y-84567642D01*
X168883689Y-84640682D01*
X168845023Y-84680967D01*
X168738473Y-84769626D01*
X168616725Y-84840400D01*
X168484591Y-84891056D01*
X168346878Y-84919357D01*
X168327635Y-84921389D01*
X168250672Y-84928218D01*
X168191873Y-84932314D01*
X168144165Y-84933814D01*
X168100477Y-84932855D01*
X168053734Y-84929572D01*
X168027778Y-84927177D01*
X167875279Y-84900967D01*
X167736256Y-84853686D01*
X167611823Y-84786332D01*
X167503097Y-84699898D01*
X167411192Y-84595383D01*
X167337226Y-84473781D01*
X167282313Y-84336089D01*
X167257618Y-84239660D01*
X167246152Y-84161538D01*
X167239678Y-84068876D01*
X167238231Y-83970573D01*
X167241843Y-83875530D01*
X167250547Y-83792646D01*
X167255845Y-83763048D01*
X167298599Y-83610167D01*
X167358754Y-83473531D01*
X167435518Y-83354260D01*
X167528100Y-83253476D01*
X167635707Y-83172298D01*
X167697523Y-83138115D01*
X167797338Y-83093510D01*
X167890705Y-83062473D01*
X167985961Y-83043161D01*
X168091442Y-83033729D01*
X168177300Y-83032021D01*
X168252785Y-83032758D01*
G36*
X166167523Y-83033071D02*
G01*
X166264785Y-83038396D01*
X166346850Y-83048284D01*
X166418734Y-83063540D01*
X166485453Y-83084968D01*
X166547631Y-83111313D01*
X166637592Y-83163342D01*
X166710318Y-83228683D01*
X166768107Y-83310266D01*
X166813254Y-83411022D01*
X166833669Y-83476178D01*
X166841363Y-83505757D01*
X166847510Y-83534844D01*
X166852306Y-83566738D01*
X166855944Y-83604742D01*
X166858619Y-83652155D01*
X166860525Y-83712278D01*
X166861858Y-83788412D01*
X166862810Y-83883857D01*
X166863462Y-83981950D01*
X166864349Y-84099834D01*
X166865584Y-84195289D01*
X166867312Y-84271282D01*
X166869680Y-84330784D01*
X166872835Y-84376762D01*
X166876921Y-84412187D01*
X166882087Y-84440027D01*
X166886902Y-84458200D01*
X166900509Y-84507409D01*
X166915577Y-84568052D01*
X166928250Y-84624271D01*
X166938159Y-84673858D01*
X166942149Y-84707204D01*
X166939911Y-84732840D01*
X166931137Y-84759295D01*
X166922671Y-84778967D01*
X166884686Y-84836823D01*
X166828727Y-84886324D01*
X166762109Y-84921503D01*
X166738716Y-84929038D01*
X166669992Y-84934870D01*
X166599038Y-84917855D01*
X166529535Y-84879847D01*
X166465162Y-84822701D01*
X166423786Y-84770348D01*
X166403346Y-84742634D01*
X166388481Y-84726583D01*
X166385452Y-84724986D01*
X166372018Y-84731089D01*
X166342025Y-84747568D01*
X166300590Y-84771556D01*
X166272979Y-84787991D01*
X166174152Y-84842698D01*
X166082967Y-84882133D01*
X165990116Y-84909945D01*
X165929400Y-84922631D01*
X165792974Y-84937968D01*
X165664722Y-84932234D01*
X165599200Y-84920904D01*
X165481572Y-84883972D01*
X165377305Y-84827884D01*
X165288880Y-84754478D01*
X165218775Y-84665594D01*
X165193311Y-84619913D01*
X165151430Y-84508901D01*
X165134064Y-84397911D01*
X165136072Y-84365607D01*
X165701181Y-84365607D01*
X165716243Y-84419956D01*
X165747658Y-84467358D01*
X165791242Y-84499984D01*
X165844761Y-84516033D01*
X165912770Y-84521497D01*
X165986747Y-84516534D01*
X166058166Y-84501303D01*
X166078148Y-84494635D01*
X166142933Y-84461706D01*
X166202307Y-84415101D01*
X166249991Y-84360850D01*
X166279706Y-84304981D01*
X166281500Y-84299362D01*
X166290791Y-84259374D01*
X166299728Y-84206636D01*
X166305388Y-84161465D01*
X166309517Y-84115848D01*
X166309658Y-84090442D01*
X166304853Y-84080238D01*
X166294146Y-84080227D01*
X166290078Y-84081334D01*
X166249742Y-84092457D01*
X166196762Y-84105815D01*
X166127538Y-84122277D01*
X166038465Y-84142714D01*
X165997262Y-84152018D01*
X165912913Y-84171914D01*
X165849482Y-84189443D01*
X165802815Y-84206311D01*
X165768758Y-84224222D01*
X165743159Y-84244881D01*
X165727321Y-84262808D01*
X165704273Y-84310997D01*
X165701181Y-84365607D01*
X165136072Y-84365607D01*
X165140817Y-84289303D01*
X165171294Y-84185435D01*
X165225099Y-84088669D01*
X165296012Y-84006845D01*
X165340246Y-83967773D01*
X165385962Y-83934927D01*
X165437003Y-83906740D01*
X165497214Y-83881645D01*
X165570441Y-83858075D01*
X165660528Y-83834462D01*
X165771318Y-83809239D01*
X165791336Y-83804925D01*
X165894009Y-83782792D01*
X165978088Y-83764285D01*
X166049862Y-83747935D01*
X166115622Y-83732278D01*
X166181659Y-83715846D01*
X166254261Y-83697172D01*
X166261126Y-83695385D01*
X166307103Y-83683408D01*
X166296891Y-83628744D01*
X166281063Y-83565491D01*
X166258220Y-83520018D01*
X166224329Y-83489308D01*
X166175354Y-83470344D01*
X166107262Y-83460108D01*
X166067851Y-83457473D01*
X165969202Y-83457879D01*
X165887511Y-83471724D01*
X165817861Y-83501525D01*
X165755329Y-83549800D01*
X165694995Y-83619067D01*
X165662377Y-83664928D01*
X165619150Y-83722813D01*
X165578766Y-83760498D01*
X165535127Y-83781559D01*
X165482136Y-83789571D01*
X165449456Y-83789782D01*
X165389792Y-83782029D01*
X165335800Y-83758879D01*
X165323798Y-83751682D01*
X165268238Y-83706537D01*
X165234162Y-83651837D01*
X165219291Y-83583314D01*
X165218200Y-83553999D01*
X165230397Y-83456149D01*
X165266258Y-83365041D01*
X165324686Y-83281759D01*
X165404581Y-83207386D01*
X165504847Y-83143002D01*
X165624386Y-83089692D01*
X165719850Y-83059294D01*
X165761577Y-83048869D01*
X165802072Y-83041371D01*
X165846772Y-83036343D01*
X165901115Y-83033328D01*
X165970536Y-83031868D01*
X166050050Y-83031505D01*
X166167523Y-83033071D01*
G37*
X166167523Y-83033071D02*
X166264785Y-83038396D01*
X166346850Y-83048284D01*
X166418734Y-83063540D01*
X166485453Y-83084968D01*
X166547631Y-83111313D01*
X166637592Y-83163342D01*
X166710318Y-83228683D01*
X166768107Y-83310266D01*
X166813254Y-83411022D01*
X166833669Y-83476178D01*
X166841363Y-83505757D01*
X166847510Y-83534844D01*
X166852306Y-83566738D01*
X166855944Y-83604742D01*
X166858619Y-83652155D01*
X166860525Y-83712278D01*
X166861858Y-83788412D01*
X166862810Y-83883857D01*
X166863462Y-83981950D01*
X166864349Y-84099834D01*
X166865584Y-84195289D01*
X166867312Y-84271282D01*
X166869680Y-84330784D01*
X166872835Y-84376762D01*
X166876921Y-84412187D01*
X166882087Y-84440027D01*
X166886902Y-84458200D01*
X166900509Y-84507409D01*
X166915577Y-84568052D01*
X166928250Y-84624271D01*
X166938159Y-84673858D01*
X166942149Y-84707204D01*
X166939911Y-84732840D01*
X166931137Y-84759295D01*
X166922671Y-84778967D01*
X166884686Y-84836823D01*
X166828727Y-84886324D01*
X166762109Y-84921503D01*
X166738716Y-84929038D01*
X166669992Y-84934870D01*
X166599038Y-84917855D01*
X166529535Y-84879847D01*
X166465162Y-84822701D01*
X166423786Y-84770348D01*
X166403346Y-84742634D01*
X166388481Y-84726583D01*
X166385452Y-84724986D01*
X166372018Y-84731089D01*
X166342025Y-84747568D01*
X166300590Y-84771556D01*
X166272979Y-84787991D01*
X166174152Y-84842698D01*
X166082967Y-84882133D01*
X165990116Y-84909945D01*
X165929400Y-84922631D01*
X165792974Y-84937968D01*
X165664722Y-84932234D01*
X165599200Y-84920904D01*
X165481572Y-84883972D01*
X165377305Y-84827884D01*
X165288880Y-84754478D01*
X165218775Y-84665594D01*
X165193311Y-84619913D01*
X165151430Y-84508901D01*
X165134064Y-84397911D01*
X165136072Y-84365607D01*
X165701181Y-84365607D01*
X165716243Y-84419956D01*
X165747658Y-84467358D01*
X165791242Y-84499984D01*
X165844761Y-84516033D01*
X165912770Y-84521497D01*
X165986747Y-84516534D01*
X166058166Y-84501303D01*
X166078148Y-84494635D01*
X166142933Y-84461706D01*
X166202307Y-84415101D01*
X166249991Y-84360850D01*
X166279706Y-84304981D01*
X166281500Y-84299362D01*
X166290791Y-84259374D01*
X166299728Y-84206636D01*
X166305388Y-84161465D01*
X166309517Y-84115848D01*
X166309658Y-84090442D01*
X166304853Y-84080238D01*
X166294146Y-84080227D01*
X166290078Y-84081334D01*
X166249742Y-84092457D01*
X166196762Y-84105815D01*
X166127538Y-84122277D01*
X166038465Y-84142714D01*
X165997262Y-84152018D01*
X165912913Y-84171914D01*
X165849482Y-84189443D01*
X165802815Y-84206311D01*
X165768758Y-84224222D01*
X165743159Y-84244881D01*
X165727321Y-84262808D01*
X165704273Y-84310997D01*
X165701181Y-84365607D01*
X165136072Y-84365607D01*
X165140817Y-84289303D01*
X165171294Y-84185435D01*
X165225099Y-84088669D01*
X165296012Y-84006845D01*
X165340246Y-83967773D01*
X165385962Y-83934927D01*
X165437003Y-83906740D01*
X165497214Y-83881645D01*
X165570441Y-83858075D01*
X165660528Y-83834462D01*
X165771318Y-83809239D01*
X165791336Y-83804925D01*
X165894009Y-83782792D01*
X165978088Y-83764285D01*
X166049862Y-83747935D01*
X166115622Y-83732278D01*
X166181659Y-83715846D01*
X166254261Y-83697172D01*
X166261126Y-83695385D01*
X166307103Y-83683408D01*
X166296891Y-83628744D01*
X166281063Y-83565491D01*
X166258220Y-83520018D01*
X166224329Y-83489308D01*
X166175354Y-83470344D01*
X166107262Y-83460108D01*
X166067851Y-83457473D01*
X165969202Y-83457879D01*
X165887511Y-83471724D01*
X165817861Y-83501525D01*
X165755329Y-83549800D01*
X165694995Y-83619067D01*
X165662377Y-83664928D01*
X165619150Y-83722813D01*
X165578766Y-83760498D01*
X165535127Y-83781559D01*
X165482136Y-83789571D01*
X165449456Y-83789782D01*
X165389792Y-83782029D01*
X165335800Y-83758879D01*
X165323798Y-83751682D01*
X165268238Y-83706537D01*
X165234162Y-83651837D01*
X165219291Y-83583314D01*
X165218200Y-83553999D01*
X165230397Y-83456149D01*
X165266258Y-83365041D01*
X165324686Y-83281759D01*
X165404581Y-83207386D01*
X165504847Y-83143002D01*
X165624386Y-83089692D01*
X165719850Y-83059294D01*
X165761577Y-83048869D01*
X165802072Y-83041371D01*
X165846772Y-83036343D01*
X165901115Y-83033328D01*
X165970536Y-83031868D01*
X166050050Y-83031505D01*
X166167523Y-83033071D01*
G36*
X163405914Y-82379127D02*
G01*
X163486038Y-82397201D01*
X163551377Y-82435867D01*
X163602748Y-82495675D01*
X163617306Y-82521171D01*
X163627441Y-82541591D01*
X163635259Y-82560940D01*
X163641108Y-82582814D01*
X163645340Y-82610809D01*
X163648304Y-82648522D01*
X163650351Y-82699548D01*
X163651830Y-82767483D01*
X163653092Y-82855923D01*
X163653562Y-82893551D01*
X163657374Y-83202942D01*
X163698012Y-83171972D01*
X163807064Y-83104701D01*
X163928766Y-83059418D01*
X164062981Y-83036167D01*
X164144354Y-83032787D01*
X164277906Y-83043789D01*
X164397659Y-83076073D01*
X164503179Y-83129321D01*
X164594031Y-83203214D01*
X164669781Y-83297433D01*
X164729994Y-83411662D01*
X164755488Y-83480300D01*
X164761060Y-83499723D01*
X164765719Y-83522363D01*
X164769577Y-83550707D01*
X164772745Y-83587244D01*
X164775333Y-83634460D01*
X164777451Y-83694845D01*
X164779212Y-83770886D01*
X164780726Y-83865072D01*
X164782104Y-83979890D01*
X164783341Y-84105309D01*
X164784571Y-84250992D01*
X164785171Y-84373645D01*
X164784884Y-84475636D01*
X164783454Y-84559332D01*
X164780624Y-84627100D01*
X164776138Y-84681308D01*
X164769741Y-84724324D01*
X164761175Y-84758513D01*
X164750185Y-84786245D01*
X164736514Y-84809886D01*
X164719906Y-84831804D01*
X164702548Y-84851668D01*
X164642988Y-84900231D01*
X164573426Y-84929085D01*
X164499045Y-84938412D01*
X164425031Y-84928394D01*
X164356566Y-84899213D01*
X164298835Y-84851051D01*
X164287468Y-84837106D01*
X164272255Y-84815355D01*
X164259851Y-84792554D01*
X164249971Y-84765956D01*
X164242327Y-84732817D01*
X164236634Y-84690391D01*
X164232606Y-84635933D01*
X164229955Y-84566698D01*
X164228396Y-84479940D01*
X164227642Y-84372913D01*
X164227419Y-84261350D01*
X164226963Y-84154543D01*
X164225821Y-84051943D01*
X164224087Y-83957323D01*
X164221856Y-83874453D01*
X164219221Y-83807107D01*
X164216279Y-83759057D01*
X164214347Y-83740650D01*
X164194742Y-83650619D01*
X164165003Y-83580595D01*
X164125935Y-83532172D01*
X164100600Y-83515244D01*
X164034059Y-83495284D01*
X163959775Y-83494809D01*
X163884143Y-83512202D01*
X163813555Y-83545846D01*
X163754407Y-83594125D01*
X163744615Y-83605270D01*
X163725679Y-83629342D01*
X163709990Y-83653315D01*
X163697194Y-83679813D01*
X163686939Y-83711460D01*
X163678872Y-83750880D01*
X163672643Y-83800699D01*
X163667897Y-83863540D01*
X163664283Y-83942027D01*
X163661449Y-84038786D01*
X163659041Y-84156441D01*
X163657383Y-84255000D01*
X163649750Y-84731250D01*
X163614514Y-84794750D01*
X163563738Y-84862648D01*
X163499718Y-84909670D01*
X163425109Y-84934753D01*
X163342566Y-84936829D01*
X163287800Y-84925878D01*
X163220571Y-84894311D01*
X163163332Y-84843061D01*
X163132107Y-84797189D01*
X163103650Y-84743950D01*
X163103650Y-82572250D01*
X163131668Y-82519872D01*
X163180127Y-82451958D01*
X163241299Y-82405936D01*
X163315517Y-82381635D01*
X163403116Y-82378882D01*
X163405914Y-82379127D01*
G37*
X163405914Y-82379127D02*
X163486038Y-82397201D01*
X163551377Y-82435867D01*
X163602748Y-82495675D01*
X163617306Y-82521171D01*
X163627441Y-82541591D01*
X163635259Y-82560940D01*
X163641108Y-82582814D01*
X163645340Y-82610809D01*
X163648304Y-82648522D01*
X163650351Y-82699548D01*
X163651830Y-82767483D01*
X163653092Y-82855923D01*
X163653562Y-82893551D01*
X163657374Y-83202942D01*
X163698012Y-83171972D01*
X163807064Y-83104701D01*
X163928766Y-83059418D01*
X164062981Y-83036167D01*
X164144354Y-83032787D01*
X164277906Y-83043789D01*
X164397659Y-83076073D01*
X164503179Y-83129321D01*
X164594031Y-83203214D01*
X164669781Y-83297433D01*
X164729994Y-83411662D01*
X164755488Y-83480300D01*
X164761060Y-83499723D01*
X164765719Y-83522363D01*
X164769577Y-83550707D01*
X164772745Y-83587244D01*
X164775333Y-83634460D01*
X164777451Y-83694845D01*
X164779212Y-83770886D01*
X164780726Y-83865072D01*
X164782104Y-83979890D01*
X164783341Y-84105309D01*
X164784571Y-84250992D01*
X164785171Y-84373645D01*
X164784884Y-84475636D01*
X164783454Y-84559332D01*
X164780624Y-84627100D01*
X164776138Y-84681308D01*
X164769741Y-84724324D01*
X164761175Y-84758513D01*
X164750185Y-84786245D01*
X164736514Y-84809886D01*
X164719906Y-84831804D01*
X164702548Y-84851668D01*
X164642988Y-84900231D01*
X164573426Y-84929085D01*
X164499045Y-84938412D01*
X164425031Y-84928394D01*
X164356566Y-84899213D01*
X164298835Y-84851051D01*
X164287468Y-84837106D01*
X164272255Y-84815355D01*
X164259851Y-84792554D01*
X164249971Y-84765956D01*
X164242327Y-84732817D01*
X164236634Y-84690391D01*
X164232606Y-84635933D01*
X164229955Y-84566698D01*
X164228396Y-84479940D01*
X164227642Y-84372913D01*
X164227419Y-84261350D01*
X164226963Y-84154543D01*
X164225821Y-84051943D01*
X164224087Y-83957323D01*
X164221856Y-83874453D01*
X164219221Y-83807107D01*
X164216279Y-83759057D01*
X164214347Y-83740650D01*
X164194742Y-83650619D01*
X164165003Y-83580595D01*
X164125935Y-83532172D01*
X164100600Y-83515244D01*
X164034059Y-83495284D01*
X163959775Y-83494809D01*
X163884143Y-83512202D01*
X163813555Y-83545846D01*
X163754407Y-83594125D01*
X163744615Y-83605270D01*
X163725679Y-83629342D01*
X163709990Y-83653315D01*
X163697194Y-83679813D01*
X163686939Y-83711460D01*
X163678872Y-83750880D01*
X163672643Y-83800699D01*
X163667897Y-83863540D01*
X163664283Y-83942027D01*
X163661449Y-84038786D01*
X163659041Y-84156441D01*
X163657383Y-84255000D01*
X163649750Y-84731250D01*
X163614514Y-84794750D01*
X163563738Y-84862648D01*
X163499718Y-84909670D01*
X163425109Y-84934753D01*
X163342566Y-84936829D01*
X163287800Y-84925878D01*
X163220571Y-84894311D01*
X163163332Y-84843061D01*
X163132107Y-84797189D01*
X163103650Y-84743950D01*
X163103650Y-82572250D01*
X163131668Y-82519872D01*
X163180127Y-82451958D01*
X163241299Y-82405936D01*
X163315517Y-82381635D01*
X163403116Y-82378882D01*
X163405914Y-82379127D01*
G36*
X175240801Y-83051071D02*
G01*
X175263900Y-83061565D01*
X175310532Y-83090729D01*
X175344745Y-83128157D01*
X175374092Y-83182195D01*
X175375061Y-83184348D01*
X175398719Y-83237189D01*
X175455134Y-83192422D01*
X175561678Y-83119882D01*
X175670829Y-83070813D01*
X175787744Y-83043416D01*
X175903919Y-83035800D01*
X176044218Y-83047461D01*
X176174326Y-83081621D01*
X176293095Y-83137037D01*
X176399372Y-83212472D01*
X176492008Y-83306684D01*
X176569852Y-83418435D01*
X176631753Y-83546483D01*
X176676562Y-83689590D01*
X176703126Y-83846516D01*
X176707748Y-83901993D01*
X176707595Y-84062833D01*
X176687579Y-84219375D01*
X176648756Y-84367974D01*
X176592182Y-84504987D01*
X176518913Y-84626768D01*
X176485069Y-84670517D01*
X176392529Y-84762404D01*
X176284325Y-84836657D01*
X176164412Y-84891778D01*
X176036745Y-84926264D01*
X175905278Y-84938618D01*
X175797737Y-84931227D01*
X175689946Y-84908056D01*
X175594734Y-84870021D01*
X175502379Y-84813035D01*
X175483747Y-84799271D01*
X175405144Y-84739787D01*
X175401197Y-85065718D01*
X175399869Y-85165887D01*
X175398417Y-85244034D01*
X175396560Y-85303537D01*
X175394017Y-85347772D01*
X175390506Y-85380119D01*
X175385748Y-85403954D01*
X175379460Y-85422655D01*
X175371361Y-85439599D01*
X175369838Y-85442450D01*
X175326418Y-85505409D01*
X175274660Y-85551976D01*
X175224927Y-85576050D01*
X175167198Y-85585528D01*
X175100836Y-85586181D01*
X175040574Y-85578064D01*
X175030274Y-85575311D01*
X174979364Y-85548038D01*
X174934219Y-85501192D01*
X174900374Y-85440601D01*
X174899000Y-85437114D01*
X174895020Y-85425466D01*
X174891537Y-85411377D01*
X174888519Y-85393176D01*
X174885933Y-85369193D01*
X174883746Y-85337757D01*
X174881924Y-85297198D01*
X174880436Y-85245843D01*
X174879247Y-85182024D01*
X174878325Y-85104068D01*
X174877637Y-85010305D01*
X174877150Y-84899064D01*
X174876830Y-84768675D01*
X174876646Y-84617466D01*
X174876564Y-84443768D01*
X174876550Y-84299450D01*
X174876550Y-83948520D01*
X175431442Y-83948520D01*
X175432717Y-84020050D01*
X175447372Y-84143870D01*
X175477955Y-84248107D01*
X175524638Y-84333102D01*
X175587594Y-84399195D01*
X175643407Y-84435432D01*
X175727670Y-84465945D01*
X175814169Y-84471756D01*
X175899614Y-84452859D01*
X175937482Y-84435959D01*
X176006320Y-84385991D01*
X176062339Y-84314563D01*
X176105791Y-84221328D01*
X176116199Y-84189760D01*
X176128005Y-84146479D01*
X176135297Y-84105701D01*
X176138724Y-84059980D01*
X176138937Y-84001873D01*
X176137418Y-83946816D01*
X176130948Y-83846419D01*
X176118074Y-83765711D01*
X176096964Y-83699399D01*
X176065783Y-83642186D01*
X176022697Y-83588776D01*
X176008236Y-83573767D01*
X175937167Y-83517998D01*
X175859940Y-83486502D01*
X175778371Y-83479616D01*
X175694280Y-83497675D01*
X175663950Y-83510248D01*
X175582324Y-83561729D01*
X175518155Y-83631527D01*
X175471549Y-83719412D01*
X175442610Y-83825154D01*
X175431442Y-83948520D01*
X174876550Y-83948520D01*
X174876550Y-83219950D01*
X174905007Y-83166710D01*
X174952491Y-83102498D01*
X175013728Y-83057681D01*
X175084802Y-83033406D01*
X175161798Y-83030820D01*
X175240801Y-83051071D01*
G37*
X175240801Y-83051071D02*
X175263900Y-83061565D01*
X175310532Y-83090729D01*
X175344745Y-83128157D01*
X175374092Y-83182195D01*
X175375061Y-83184348D01*
X175398719Y-83237189D01*
X175455134Y-83192422D01*
X175561678Y-83119882D01*
X175670829Y-83070813D01*
X175787744Y-83043416D01*
X175903919Y-83035800D01*
X176044218Y-83047461D01*
X176174326Y-83081621D01*
X176293095Y-83137037D01*
X176399372Y-83212472D01*
X176492008Y-83306684D01*
X176569852Y-83418435D01*
X176631753Y-83546483D01*
X176676562Y-83689590D01*
X176703126Y-83846516D01*
X176707748Y-83901993D01*
X176707595Y-84062833D01*
X176687579Y-84219375D01*
X176648756Y-84367974D01*
X176592182Y-84504987D01*
X176518913Y-84626768D01*
X176485069Y-84670517D01*
X176392529Y-84762404D01*
X176284325Y-84836657D01*
X176164412Y-84891778D01*
X176036745Y-84926264D01*
X175905278Y-84938618D01*
X175797737Y-84931227D01*
X175689946Y-84908056D01*
X175594734Y-84870021D01*
X175502379Y-84813035D01*
X175483747Y-84799271D01*
X175405144Y-84739787D01*
X175401197Y-85065718D01*
X175399869Y-85165887D01*
X175398417Y-85244034D01*
X175396560Y-85303537D01*
X175394017Y-85347772D01*
X175390506Y-85380119D01*
X175385748Y-85403954D01*
X175379460Y-85422655D01*
X175371361Y-85439599D01*
X175369838Y-85442450D01*
X175326418Y-85505409D01*
X175274660Y-85551976D01*
X175224927Y-85576050D01*
X175167198Y-85585528D01*
X175100836Y-85586181D01*
X175040574Y-85578064D01*
X175030274Y-85575311D01*
X174979364Y-85548038D01*
X174934219Y-85501192D01*
X174900374Y-85440601D01*
X174899000Y-85437114D01*
X174895020Y-85425466D01*
X174891537Y-85411377D01*
X174888519Y-85393176D01*
X174885933Y-85369193D01*
X174883746Y-85337757D01*
X174881924Y-85297198D01*
X174880436Y-85245843D01*
X174879247Y-85182024D01*
X174878325Y-85104068D01*
X174877637Y-85010305D01*
X174877150Y-84899064D01*
X174876830Y-84768675D01*
X174876646Y-84617466D01*
X174876564Y-84443768D01*
X174876550Y-84299450D01*
X174876550Y-83948520D01*
X175431442Y-83948520D01*
X175432717Y-84020050D01*
X175447372Y-84143870D01*
X175477955Y-84248107D01*
X175524638Y-84333102D01*
X175587594Y-84399195D01*
X175643407Y-84435432D01*
X175727670Y-84465945D01*
X175814169Y-84471756D01*
X175899614Y-84452859D01*
X175937482Y-84435959D01*
X176006320Y-84385991D01*
X176062339Y-84314563D01*
X176105791Y-84221328D01*
X176116199Y-84189760D01*
X176128005Y-84146479D01*
X176135297Y-84105701D01*
X176138724Y-84059980D01*
X176138937Y-84001873D01*
X176137418Y-83946816D01*
X176130948Y-83846419D01*
X176118074Y-83765711D01*
X176096964Y-83699399D01*
X176065783Y-83642186D01*
X176022697Y-83588776D01*
X176008236Y-83573767D01*
X175937167Y-83517998D01*
X175859940Y-83486502D01*
X175778371Y-83479616D01*
X175694280Y-83497675D01*
X175663950Y-83510248D01*
X175582324Y-83561729D01*
X175518155Y-83631527D01*
X175471549Y-83719412D01*
X175442610Y-83825154D01*
X175431442Y-83948520D01*
X174876550Y-83948520D01*
X174876550Y-83219950D01*
X174905007Y-83166710D01*
X174952491Y-83102498D01*
X175013728Y-83057681D01*
X175084802Y-83033406D01*
X175161798Y-83030820D01*
X175240801Y-83051071D01*
D13*
G04 #@! TO.C,J3*
X198440000Y-77670000D02*
X198440000Y-85410000D01*
X198440000Y-85410000D02*
X201100000Y-85410000D01*
X201100000Y-85410000D02*
X201100000Y-77670000D01*
X201100000Y-77670000D02*
X198440000Y-77670000D01*
X201100000Y-78620000D02*
X207100000Y-78620000D01*
X207100000Y-78620000D02*
X207100000Y-79380000D01*
X207100000Y-79380000D02*
X201100000Y-79380000D01*
X201100000Y-78680000D02*
X207100000Y-78680000D01*
X201100000Y-78800000D02*
X207100000Y-78800000D01*
X201100000Y-78920000D02*
X207100000Y-78920000D01*
X201100000Y-79040000D02*
X207100000Y-79040000D01*
X201100000Y-79160000D02*
X207100000Y-79160000D01*
X201100000Y-79280000D02*
X207100000Y-79280000D01*
X198110000Y-78620000D02*
X198440000Y-78620000D01*
X198110000Y-79380000D02*
X198440000Y-79380000D01*
X198440000Y-80270000D02*
X201100000Y-80270000D01*
X201100000Y-81160000D02*
X207100000Y-81160000D01*
X207100000Y-81160000D02*
X207100000Y-81920000D01*
X207100000Y-81920000D02*
X201100000Y-81920000D01*
X198042929Y-81160000D02*
X198440000Y-81160000D01*
X198042929Y-81920000D02*
X198440000Y-81920000D01*
X198440000Y-82810000D02*
X201100000Y-82810000D01*
X201100000Y-83700000D02*
X207100000Y-83700000D01*
X207100000Y-83700000D02*
X207100000Y-84460000D01*
X207100000Y-84460000D02*
X201100000Y-84460000D01*
X198042929Y-83700000D02*
X198440000Y-83700000D01*
X198042929Y-84460000D02*
X198440000Y-84460000D01*
X195730000Y-79000000D02*
X195730000Y-77730000D01*
X195730000Y-77730000D02*
X197000000Y-77730000D01*
G04 #@! TO.C,J2*
X181730000Y-72270000D02*
X181730000Y-71000000D01*
X183000000Y-72270000D02*
X181730000Y-72270000D01*
X193540000Y-69957071D02*
X193540000Y-69560000D01*
X192780000Y-69957071D02*
X192780000Y-69560000D01*
X193540000Y-60900000D02*
X193540000Y-66900000D01*
X192780000Y-60900000D02*
X193540000Y-60900000D01*
X192780000Y-66900000D02*
X192780000Y-60900000D01*
X191890000Y-69560000D02*
X191890000Y-66900000D01*
X191000000Y-69957071D02*
X191000000Y-69560000D01*
X190240000Y-69957071D02*
X190240000Y-69560000D01*
X191000000Y-60900000D02*
X191000000Y-66900000D01*
X190240000Y-60900000D02*
X191000000Y-60900000D01*
X190240000Y-66900000D02*
X190240000Y-60900000D01*
X189350000Y-69560000D02*
X189350000Y-66900000D01*
X188460000Y-69957071D02*
X188460000Y-69560000D01*
X187700000Y-69957071D02*
X187700000Y-69560000D01*
X188460000Y-60900000D02*
X188460000Y-66900000D01*
X187700000Y-60900000D02*
X188460000Y-60900000D01*
X187700000Y-66900000D02*
X187700000Y-60900000D01*
X186810000Y-69560000D02*
X186810000Y-66900000D01*
X185920000Y-69957071D02*
X185920000Y-69560000D01*
X185160000Y-69957071D02*
X185160000Y-69560000D01*
X185920000Y-60900000D02*
X185920000Y-66900000D01*
X185160000Y-60900000D02*
X185920000Y-60900000D01*
X185160000Y-66900000D02*
X185160000Y-60900000D01*
X184270000Y-69560000D02*
X184270000Y-66900000D01*
X183380000Y-69890000D02*
X183380000Y-69560000D01*
X182620000Y-69890000D02*
X182620000Y-69560000D01*
X183280000Y-66900000D02*
X183280000Y-60900000D01*
X183160000Y-66900000D02*
X183160000Y-60900000D01*
X183040000Y-66900000D02*
X183040000Y-60900000D01*
X182920000Y-66900000D02*
X182920000Y-60900000D01*
X182800000Y-66900000D02*
X182800000Y-60900000D01*
X182680000Y-66900000D02*
X182680000Y-60900000D01*
X183380000Y-60900000D02*
X183380000Y-66900000D01*
X182620000Y-60900000D02*
X183380000Y-60900000D01*
X182620000Y-66900000D02*
X182620000Y-60900000D01*
X181670000Y-66900000D02*
X181670000Y-69560000D01*
X194490000Y-66900000D02*
X181670000Y-66900000D01*
X194490000Y-69560000D02*
X194490000Y-66900000D01*
X181670000Y-69560000D02*
X194490000Y-69560000D01*
G04 #@! TO.C,SW13*
X106560000Y-85330000D02*
X106560000Y-80130000D01*
X106560000Y-80130000D02*
X103900000Y-80130000D01*
X103900000Y-80130000D02*
X103900000Y-85330000D01*
X103900000Y-85330000D02*
X106560000Y-85330000D01*
X103900000Y-84380000D02*
X97900000Y-84380000D01*
X97900000Y-84380000D02*
X97900000Y-83620000D01*
X97900000Y-83620000D02*
X103900000Y-83620000D01*
X103900000Y-84320000D02*
X97900000Y-84320000D01*
X103900000Y-84200000D02*
X97900000Y-84200000D01*
X103900000Y-84080000D02*
X97900000Y-84080000D01*
X103900000Y-83960000D02*
X97900000Y-83960000D01*
X103900000Y-83840000D02*
X97900000Y-83840000D01*
X103900000Y-83720000D02*
X97900000Y-83720000D01*
X106890000Y-84380000D02*
X106560000Y-84380000D01*
X106890000Y-83620000D02*
X106560000Y-83620000D01*
X106560000Y-82730000D02*
X103900000Y-82730000D01*
X103900000Y-81840000D02*
X97900000Y-81840000D01*
X97900000Y-81840000D02*
X97900000Y-81080000D01*
X97900000Y-81080000D02*
X103900000Y-81080000D01*
X106957071Y-81840000D02*
X106560000Y-81840000D01*
X106957071Y-81080000D02*
X106560000Y-81080000D01*
X109270000Y-84000000D02*
X109270000Y-85270000D01*
X109270000Y-85270000D02*
X108000000Y-85270000D01*
G04 #@! TO.C,SW10*
X183725000Y-112995000D02*
X197695000Y-112995000D01*
X197695000Y-112995000D02*
X197695000Y-126965000D01*
X197695000Y-126965000D02*
X183725000Y-126965000D01*
X183725000Y-126965000D02*
X183725000Y-112995000D01*
G04 #@! TO.C,SW9*
X183755000Y-93915000D02*
X197725000Y-93915000D01*
X197725000Y-93915000D02*
X197725000Y-107885000D01*
X197725000Y-107885000D02*
X183755000Y-107885000D01*
X183755000Y-107885000D02*
X183755000Y-93915000D01*
G04 #@! TO.C,SW8*
X164705000Y-112995000D02*
X178675000Y-112995000D01*
X178675000Y-112995000D02*
X178675000Y-126965000D01*
X178675000Y-126965000D02*
X164705000Y-126965000D01*
X164705000Y-126965000D02*
X164705000Y-112995000D01*
G04 #@! TO.C,SW7*
X164695000Y-93925000D02*
X178665000Y-93925000D01*
X178665000Y-93925000D02*
X178665000Y-107895000D01*
X178665000Y-107895000D02*
X164695000Y-107895000D01*
X164695000Y-107895000D02*
X164695000Y-93925000D01*
G04 #@! TO.C,SW6*
X145635000Y-112975000D02*
X159605000Y-112975000D01*
X159605000Y-112975000D02*
X159605000Y-126945000D01*
X159605000Y-126945000D02*
X145635000Y-126945000D01*
X145635000Y-126945000D02*
X145635000Y-112975000D01*
G04 #@! TO.C,SW5*
X145655000Y-93935000D02*
X159625000Y-93935000D01*
X159625000Y-93935000D02*
X159625000Y-107905000D01*
X159625000Y-107905000D02*
X145655000Y-107905000D01*
X145655000Y-107905000D02*
X145655000Y-93935000D01*
G04 #@! TO.C,SW4*
X126585000Y-112965000D02*
X140555000Y-112965000D01*
X140555000Y-112965000D02*
X140555000Y-126935000D01*
X140555000Y-126935000D02*
X126585000Y-126935000D01*
X126585000Y-126935000D02*
X126585000Y-112965000D01*
G04 #@! TO.C,SW3*
X126605000Y-93945000D02*
X140575000Y-93945000D01*
X140575000Y-93945000D02*
X140575000Y-107915000D01*
X140575000Y-107915000D02*
X126605000Y-107915000D01*
X126605000Y-107915000D02*
X126605000Y-93945000D01*
G04 #@! TO.C,SW2*
X107535000Y-112985000D02*
X121505000Y-112985000D01*
X121505000Y-112985000D02*
X121505000Y-126955000D01*
X121505000Y-126955000D02*
X107535000Y-126955000D01*
X107535000Y-126955000D02*
X107535000Y-112985000D01*
G04 #@! TO.C,SW1*
X107565000Y-93925000D02*
X121535000Y-93925000D01*
X121535000Y-93925000D02*
X121535000Y-107895000D01*
X121535000Y-107895000D02*
X107565000Y-107895000D01*
X107565000Y-107895000D02*
X107565000Y-93925000D01*
G04 #@! TO.C,RV1*
X109670000Y-69560000D02*
X117410000Y-69560000D01*
X117410000Y-69560000D02*
X117410000Y-66900000D01*
X117410000Y-66900000D02*
X109670000Y-66900000D01*
X109670000Y-66900000D02*
X109670000Y-69560000D01*
X110620000Y-66900000D02*
X110620000Y-60900000D01*
X110620000Y-60900000D02*
X111380000Y-60900000D01*
X111380000Y-60900000D02*
X111380000Y-66900000D01*
X110680000Y-66900000D02*
X110680000Y-60900000D01*
X110800000Y-66900000D02*
X110800000Y-60900000D01*
X110920000Y-66900000D02*
X110920000Y-60900000D01*
X111040000Y-66900000D02*
X111040000Y-60900000D01*
X111160000Y-66900000D02*
X111160000Y-60900000D01*
X111280000Y-66900000D02*
X111280000Y-60900000D01*
X110620000Y-69890000D02*
X110620000Y-69560000D01*
X111380000Y-69890000D02*
X111380000Y-69560000D01*
X112270000Y-69560000D02*
X112270000Y-66900000D01*
X113160000Y-66900000D02*
X113160000Y-60900000D01*
X113160000Y-60900000D02*
X113920000Y-60900000D01*
X113920000Y-60900000D02*
X113920000Y-66900000D01*
X113160000Y-69957071D02*
X113160000Y-69560000D01*
X113920000Y-69957071D02*
X113920000Y-69560000D01*
X114810000Y-69560000D02*
X114810000Y-66900000D01*
X115700000Y-66900000D02*
X115700000Y-60900000D01*
X115700000Y-60900000D02*
X116460000Y-60900000D01*
X116460000Y-60900000D02*
X116460000Y-66900000D01*
X115700000Y-69957071D02*
X115700000Y-69560000D01*
X116460000Y-69957071D02*
X116460000Y-69560000D01*
X111000000Y-72270000D02*
X109730000Y-72270000D01*
X109730000Y-72270000D02*
X109730000Y-71000000D01*
G04 #@! TO.C,J1*
X121670000Y-69560000D02*
X139570000Y-69560000D01*
X139570000Y-69560000D02*
X139570000Y-66900000D01*
X139570000Y-66900000D02*
X121670000Y-66900000D01*
X121670000Y-66900000D02*
X121670000Y-69560000D01*
X122620000Y-66900000D02*
X122620000Y-60900000D01*
X122620000Y-60900000D02*
X123380000Y-60900000D01*
X123380000Y-60900000D02*
X123380000Y-66900000D01*
X122680000Y-66900000D02*
X122680000Y-60900000D01*
X122800000Y-66900000D02*
X122800000Y-60900000D01*
X122920000Y-66900000D02*
X122920000Y-60900000D01*
X123040000Y-66900000D02*
X123040000Y-60900000D01*
X123160000Y-66900000D02*
X123160000Y-60900000D01*
X123280000Y-66900000D02*
X123280000Y-60900000D01*
X122620000Y-69890000D02*
X122620000Y-69560000D01*
X123380000Y-69890000D02*
X123380000Y-69560000D01*
X124270000Y-69560000D02*
X124270000Y-66900000D01*
X125160000Y-66900000D02*
X125160000Y-60900000D01*
X125160000Y-60900000D02*
X125920000Y-60900000D01*
X125920000Y-60900000D02*
X125920000Y-66900000D01*
X125160000Y-69957071D02*
X125160000Y-69560000D01*
X125920000Y-69957071D02*
X125920000Y-69560000D01*
X126810000Y-69560000D02*
X126810000Y-66900000D01*
X127700000Y-66900000D02*
X127700000Y-60900000D01*
X127700000Y-60900000D02*
X128460000Y-60900000D01*
X128460000Y-60900000D02*
X128460000Y-66900000D01*
X127700000Y-69957071D02*
X127700000Y-69560000D01*
X128460000Y-69957071D02*
X128460000Y-69560000D01*
X129350000Y-69560000D02*
X129350000Y-66900000D01*
X130240000Y-66900000D02*
X130240000Y-60900000D01*
X130240000Y-60900000D02*
X131000000Y-60900000D01*
X131000000Y-60900000D02*
X131000000Y-66900000D01*
X130240000Y-69957071D02*
X130240000Y-69560000D01*
X131000000Y-69957071D02*
X131000000Y-69560000D01*
X131890000Y-69560000D02*
X131890000Y-66900000D01*
X132780000Y-66900000D02*
X132780000Y-60900000D01*
X132780000Y-60900000D02*
X133540000Y-60900000D01*
X133540000Y-60900000D02*
X133540000Y-66900000D01*
X132780000Y-69957071D02*
X132780000Y-69560000D01*
X133540000Y-69957071D02*
X133540000Y-69560000D01*
X134430000Y-69560000D02*
X134430000Y-66900000D01*
X135320000Y-66900000D02*
X135320000Y-60900000D01*
X135320000Y-60900000D02*
X136080000Y-60900000D01*
X136080000Y-60900000D02*
X136080000Y-66900000D01*
X135320000Y-69957071D02*
X135320000Y-69560000D01*
X136080000Y-69957071D02*
X136080000Y-69560000D01*
X136970000Y-69560000D02*
X136970000Y-66900000D01*
X137860000Y-66900000D02*
X137860000Y-60900000D01*
X137860000Y-60900000D02*
X138620000Y-60900000D01*
X138620000Y-60900000D02*
X138620000Y-66900000D01*
X137860000Y-69957071D02*
X137860000Y-69560000D01*
X138620000Y-69957071D02*
X138620000Y-69560000D01*
X123000000Y-72270000D02*
X121730000Y-72270000D01*
X121730000Y-72270000D02*
X121730000Y-71000000D01*
G04 #@! TO.C,D25*
X186850000Y-127750000D02*
X194150000Y-127750000D01*
X186850000Y-133250000D02*
X194150000Y-133250000D01*
X194150000Y-133250000D02*
X194150000Y-132100000D01*
G04 #@! TO.C,D24*
X186850000Y-87750000D02*
X194150000Y-87750000D01*
X186850000Y-93250000D02*
X194150000Y-93250000D01*
X194150000Y-93250000D02*
X194150000Y-92100000D01*
G04 #@! TO.C,D22*
X167850000Y-127750000D02*
X175150000Y-127750000D01*
X167850000Y-133250000D02*
X175150000Y-133250000D01*
X175150000Y-133250000D02*
X175150000Y-132100000D01*
G04 #@! TO.C,D21*
X167850000Y-87750000D02*
X175150000Y-87750000D01*
X167850000Y-93250000D02*
X175150000Y-93250000D01*
X175150000Y-93250000D02*
X175150000Y-92100000D01*
G04 #@! TO.C,D19*
X148850000Y-127750000D02*
X156150000Y-127750000D01*
X148850000Y-133250000D02*
X156150000Y-133250000D01*
X156150000Y-133250000D02*
X156150000Y-132100000D01*
G04 #@! TO.C,D18*
X148850000Y-87750000D02*
X156150000Y-87750000D01*
X148850000Y-93250000D02*
X156150000Y-93250000D01*
X156150000Y-93250000D02*
X156150000Y-92100000D01*
G04 #@! TO.C,D16*
X129850000Y-127750000D02*
X137150000Y-127750000D01*
X129850000Y-133250000D02*
X137150000Y-133250000D01*
X137150000Y-133250000D02*
X137150000Y-132100000D01*
G04 #@! TO.C,D15*
X129850000Y-87750000D02*
X137150000Y-87750000D01*
X129850000Y-93250000D02*
X137150000Y-93250000D01*
X137150000Y-93250000D02*
X137150000Y-92100000D01*
G04 #@! TO.C,D13*
X110850000Y-127750000D02*
X118150000Y-127750000D01*
X110850000Y-133250000D02*
X118150000Y-133250000D01*
X118150000Y-133250000D02*
X118150000Y-132100000D01*
G04 #@! TO.C,D12*
X110850000Y-87750000D02*
X118150000Y-87750000D01*
X110850000Y-93250000D02*
X118150000Y-93250000D01*
X118150000Y-93250000D02*
X118150000Y-92100000D01*
G04 #@! TD*
G04 #@! TO.C,J3*
D14*
X201051666Y-76182380D02*
X201051666Y-76896666D01*
X201004047Y-77039523D01*
X200908809Y-77134761D01*
X200765952Y-77182380D01*
X200670714Y-77182380D01*
X201432619Y-76182380D02*
X202051666Y-76182380D01*
X201718333Y-76563333D01*
X201861190Y-76563333D01*
X201956428Y-76610952D01*
X202004047Y-76658571D01*
X202051666Y-76753809D01*
X202051666Y-76991904D01*
X202004047Y-77087142D01*
X201956428Y-77134761D01*
X201861190Y-77182380D01*
X201575476Y-77182380D01*
X201480238Y-77134761D01*
X201432619Y-77087142D01*
G04 #@! TO.C,J2*
X180182380Y-66948333D02*
X180896666Y-66948333D01*
X181039523Y-66995952D01*
X181134761Y-67091190D01*
X181182380Y-67234047D01*
X181182380Y-67329285D01*
X180277619Y-66519761D02*
X180230000Y-66472142D01*
X180182380Y-66376904D01*
X180182380Y-66138809D01*
X180230000Y-66043571D01*
X180277619Y-65995952D01*
X180372857Y-65948333D01*
X180468095Y-65948333D01*
X180610952Y-65995952D01*
X181182380Y-66567380D01*
X181182380Y-65948333D01*
G04 #@! TO.C,H4*
X203238095Y-122252380D02*
X203238095Y-121252380D01*
X203238095Y-121728571D02*
X203809523Y-121728571D01*
X203809523Y-122252380D02*
X203809523Y-121252380D01*
X204714285Y-121585714D02*
X204714285Y-122252380D01*
X204476190Y-121204761D02*
X204238095Y-121919047D01*
X204857142Y-121919047D01*
G04 #@! TO.C,H3*
X203238095Y-91252380D02*
X203238095Y-90252380D01*
X203238095Y-90728571D02*
X203809523Y-90728571D01*
X203809523Y-91252380D02*
X203809523Y-90252380D01*
X204190476Y-90252380D02*
X204809523Y-90252380D01*
X204476190Y-90633333D01*
X204619047Y-90633333D01*
X204714285Y-90680952D01*
X204761904Y-90728571D01*
X204809523Y-90823809D01*
X204809523Y-91061904D01*
X204761904Y-91157142D01*
X204714285Y-91204761D01*
X204619047Y-91252380D01*
X204333333Y-91252380D01*
X204238095Y-91204761D01*
X204190476Y-91157142D01*
G04 #@! TO.C,H2*
X100238095Y-122252380D02*
X100238095Y-121252380D01*
X100238095Y-121728571D02*
X100809523Y-121728571D01*
X100809523Y-122252380D02*
X100809523Y-121252380D01*
X101238095Y-121347619D02*
X101285714Y-121300000D01*
X101380952Y-121252380D01*
X101619047Y-121252380D01*
X101714285Y-121300000D01*
X101761904Y-121347619D01*
X101809523Y-121442857D01*
X101809523Y-121538095D01*
X101761904Y-121680952D01*
X101190476Y-122252380D01*
X101809523Y-122252380D01*
G04 #@! TO.C,H1*
X100238095Y-91252380D02*
X100238095Y-90252380D01*
X100238095Y-90728571D02*
X100809523Y-90728571D01*
X100809523Y-91252380D02*
X100809523Y-90252380D01*
X101809523Y-91252380D02*
X101238095Y-91252380D01*
X101523809Y-91252380D02*
X101523809Y-90252380D01*
X101428571Y-90395238D01*
X101333333Y-90490476D01*
X101238095Y-90538095D01*
G04 #@! TO.C,SW13*
X101805476Y-86674761D02*
X101948333Y-86722380D01*
X102186428Y-86722380D01*
X102281666Y-86674761D01*
X102329285Y-86627142D01*
X102376904Y-86531904D01*
X102376904Y-86436666D01*
X102329285Y-86341428D01*
X102281666Y-86293809D01*
X102186428Y-86246190D01*
X101995952Y-86198571D01*
X101900714Y-86150952D01*
X101853095Y-86103333D01*
X101805476Y-86008095D01*
X101805476Y-85912857D01*
X101853095Y-85817619D01*
X101900714Y-85770000D01*
X101995952Y-85722380D01*
X102234047Y-85722380D01*
X102376904Y-85770000D01*
X102710238Y-85722380D02*
X102948333Y-86722380D01*
X103138809Y-86008095D01*
X103329285Y-86722380D01*
X103567380Y-85722380D01*
X104472142Y-86722380D02*
X103900714Y-86722380D01*
X104186428Y-86722380D02*
X104186428Y-85722380D01*
X104091190Y-85865238D01*
X103995952Y-85960476D01*
X103900714Y-86008095D01*
X104805476Y-85722380D02*
X105424523Y-85722380D01*
X105091190Y-86103333D01*
X105234047Y-86103333D01*
X105329285Y-86150952D01*
X105376904Y-86198571D01*
X105424523Y-86293809D01*
X105424523Y-86531904D01*
X105376904Y-86627142D01*
X105329285Y-86674761D01*
X105234047Y-86722380D01*
X104948333Y-86722380D01*
X104853095Y-86674761D01*
X104805476Y-86627142D01*
G04 #@! TO.C,SW10*
X188900476Y-112510761D02*
X189043333Y-112558380D01*
X189281428Y-112558380D01*
X189376666Y-112510761D01*
X189424285Y-112463142D01*
X189471904Y-112367904D01*
X189471904Y-112272666D01*
X189424285Y-112177428D01*
X189376666Y-112129809D01*
X189281428Y-112082190D01*
X189090952Y-112034571D01*
X188995714Y-111986952D01*
X188948095Y-111939333D01*
X188900476Y-111844095D01*
X188900476Y-111748857D01*
X188948095Y-111653619D01*
X188995714Y-111606000D01*
X189090952Y-111558380D01*
X189329047Y-111558380D01*
X189471904Y-111606000D01*
X189805238Y-111558380D02*
X190043333Y-112558380D01*
X190233809Y-111844095D01*
X190424285Y-112558380D01*
X190662380Y-111558380D01*
X191567142Y-112558380D02*
X190995714Y-112558380D01*
X191281428Y-112558380D02*
X191281428Y-111558380D01*
X191186190Y-111701238D01*
X191090952Y-111796476D01*
X190995714Y-111844095D01*
X192186190Y-111558380D02*
X192281428Y-111558380D01*
X192376666Y-111606000D01*
X192424285Y-111653619D01*
X192471904Y-111748857D01*
X192519523Y-111939333D01*
X192519523Y-112177428D01*
X192471904Y-112367904D01*
X192424285Y-112463142D01*
X192376666Y-112510761D01*
X192281428Y-112558380D01*
X192186190Y-112558380D01*
X192090952Y-112510761D01*
X192043333Y-112463142D01*
X191995714Y-112367904D01*
X191948095Y-112177428D01*
X191948095Y-111939333D01*
X191995714Y-111748857D01*
X192043333Y-111653619D01*
X192090952Y-111606000D01*
X192186190Y-111558380D01*
G04 #@! TO.C,SW9*
X189406666Y-93430761D02*
X189549523Y-93478380D01*
X189787619Y-93478380D01*
X189882857Y-93430761D01*
X189930476Y-93383142D01*
X189978095Y-93287904D01*
X189978095Y-93192666D01*
X189930476Y-93097428D01*
X189882857Y-93049809D01*
X189787619Y-93002190D01*
X189597142Y-92954571D01*
X189501904Y-92906952D01*
X189454285Y-92859333D01*
X189406666Y-92764095D01*
X189406666Y-92668857D01*
X189454285Y-92573619D01*
X189501904Y-92526000D01*
X189597142Y-92478380D01*
X189835238Y-92478380D01*
X189978095Y-92526000D01*
X190311428Y-92478380D02*
X190549523Y-93478380D01*
X190740000Y-92764095D01*
X190930476Y-93478380D01*
X191168571Y-92478380D01*
X191597142Y-93478380D02*
X191787619Y-93478380D01*
X191882857Y-93430761D01*
X191930476Y-93383142D01*
X192025714Y-93240285D01*
X192073333Y-93049809D01*
X192073333Y-92668857D01*
X192025714Y-92573619D01*
X191978095Y-92526000D01*
X191882857Y-92478380D01*
X191692380Y-92478380D01*
X191597142Y-92526000D01*
X191549523Y-92573619D01*
X191501904Y-92668857D01*
X191501904Y-92906952D01*
X191549523Y-93002190D01*
X191597142Y-93049809D01*
X191692380Y-93097428D01*
X191882857Y-93097428D01*
X191978095Y-93049809D01*
X192025714Y-93002190D01*
X192073333Y-92906952D01*
G04 #@! TO.C,SW8*
X170356666Y-112510761D02*
X170499523Y-112558380D01*
X170737619Y-112558380D01*
X170832857Y-112510761D01*
X170880476Y-112463142D01*
X170928095Y-112367904D01*
X170928095Y-112272666D01*
X170880476Y-112177428D01*
X170832857Y-112129809D01*
X170737619Y-112082190D01*
X170547142Y-112034571D01*
X170451904Y-111986952D01*
X170404285Y-111939333D01*
X170356666Y-111844095D01*
X170356666Y-111748857D01*
X170404285Y-111653619D01*
X170451904Y-111606000D01*
X170547142Y-111558380D01*
X170785238Y-111558380D01*
X170928095Y-111606000D01*
X171261428Y-111558380D02*
X171499523Y-112558380D01*
X171690000Y-111844095D01*
X171880476Y-112558380D01*
X172118571Y-111558380D01*
X172642380Y-111986952D02*
X172547142Y-111939333D01*
X172499523Y-111891714D01*
X172451904Y-111796476D01*
X172451904Y-111748857D01*
X172499523Y-111653619D01*
X172547142Y-111606000D01*
X172642380Y-111558380D01*
X172832857Y-111558380D01*
X172928095Y-111606000D01*
X172975714Y-111653619D01*
X173023333Y-111748857D01*
X173023333Y-111796476D01*
X172975714Y-111891714D01*
X172928095Y-111939333D01*
X172832857Y-111986952D01*
X172642380Y-111986952D01*
X172547142Y-112034571D01*
X172499523Y-112082190D01*
X172451904Y-112177428D01*
X172451904Y-112367904D01*
X172499523Y-112463142D01*
X172547142Y-112510761D01*
X172642380Y-112558380D01*
X172832857Y-112558380D01*
X172928095Y-112510761D01*
X172975714Y-112463142D01*
X173023333Y-112367904D01*
X173023333Y-112177428D01*
X172975714Y-112082190D01*
X172928095Y-112034571D01*
X172832857Y-111986952D01*
G04 #@! TO.C,SW7*
X170346666Y-93440761D02*
X170489523Y-93488380D01*
X170727619Y-93488380D01*
X170822857Y-93440761D01*
X170870476Y-93393142D01*
X170918095Y-93297904D01*
X170918095Y-93202666D01*
X170870476Y-93107428D01*
X170822857Y-93059809D01*
X170727619Y-93012190D01*
X170537142Y-92964571D01*
X170441904Y-92916952D01*
X170394285Y-92869333D01*
X170346666Y-92774095D01*
X170346666Y-92678857D01*
X170394285Y-92583619D01*
X170441904Y-92536000D01*
X170537142Y-92488380D01*
X170775238Y-92488380D01*
X170918095Y-92536000D01*
X171251428Y-92488380D02*
X171489523Y-93488380D01*
X171680000Y-92774095D01*
X171870476Y-93488380D01*
X172108571Y-92488380D01*
X172394285Y-92488380D02*
X173060952Y-92488380D01*
X172632380Y-93488380D01*
G04 #@! TO.C,SW6*
X151286666Y-112490761D02*
X151429523Y-112538380D01*
X151667619Y-112538380D01*
X151762857Y-112490761D01*
X151810476Y-112443142D01*
X151858095Y-112347904D01*
X151858095Y-112252666D01*
X151810476Y-112157428D01*
X151762857Y-112109809D01*
X151667619Y-112062190D01*
X151477142Y-112014571D01*
X151381904Y-111966952D01*
X151334285Y-111919333D01*
X151286666Y-111824095D01*
X151286666Y-111728857D01*
X151334285Y-111633619D01*
X151381904Y-111586000D01*
X151477142Y-111538380D01*
X151715238Y-111538380D01*
X151858095Y-111586000D01*
X152191428Y-111538380D02*
X152429523Y-112538380D01*
X152620000Y-111824095D01*
X152810476Y-112538380D01*
X153048571Y-111538380D01*
X153858095Y-111538380D02*
X153667619Y-111538380D01*
X153572380Y-111586000D01*
X153524761Y-111633619D01*
X153429523Y-111776476D01*
X153381904Y-111966952D01*
X153381904Y-112347904D01*
X153429523Y-112443142D01*
X153477142Y-112490761D01*
X153572380Y-112538380D01*
X153762857Y-112538380D01*
X153858095Y-112490761D01*
X153905714Y-112443142D01*
X153953333Y-112347904D01*
X153953333Y-112109809D01*
X153905714Y-112014571D01*
X153858095Y-111966952D01*
X153762857Y-111919333D01*
X153572380Y-111919333D01*
X153477142Y-111966952D01*
X153429523Y-112014571D01*
X153381904Y-112109809D01*
G04 #@! TO.C,SW5*
X151306666Y-93450761D02*
X151449523Y-93498380D01*
X151687619Y-93498380D01*
X151782857Y-93450761D01*
X151830476Y-93403142D01*
X151878095Y-93307904D01*
X151878095Y-93212666D01*
X151830476Y-93117428D01*
X151782857Y-93069809D01*
X151687619Y-93022190D01*
X151497142Y-92974571D01*
X151401904Y-92926952D01*
X151354285Y-92879333D01*
X151306666Y-92784095D01*
X151306666Y-92688857D01*
X151354285Y-92593619D01*
X151401904Y-92546000D01*
X151497142Y-92498380D01*
X151735238Y-92498380D01*
X151878095Y-92546000D01*
X152211428Y-92498380D02*
X152449523Y-93498380D01*
X152640000Y-92784095D01*
X152830476Y-93498380D01*
X153068571Y-92498380D01*
X153925714Y-92498380D02*
X153449523Y-92498380D01*
X153401904Y-92974571D01*
X153449523Y-92926952D01*
X153544761Y-92879333D01*
X153782857Y-92879333D01*
X153878095Y-92926952D01*
X153925714Y-92974571D01*
X153973333Y-93069809D01*
X153973333Y-93307904D01*
X153925714Y-93403142D01*
X153878095Y-93450761D01*
X153782857Y-93498380D01*
X153544761Y-93498380D01*
X153449523Y-93450761D01*
X153401904Y-93403142D01*
G04 #@! TO.C,SW4*
X132236666Y-112480761D02*
X132379523Y-112528380D01*
X132617619Y-112528380D01*
X132712857Y-112480761D01*
X132760476Y-112433142D01*
X132808095Y-112337904D01*
X132808095Y-112242666D01*
X132760476Y-112147428D01*
X132712857Y-112099809D01*
X132617619Y-112052190D01*
X132427142Y-112004571D01*
X132331904Y-111956952D01*
X132284285Y-111909333D01*
X132236666Y-111814095D01*
X132236666Y-111718857D01*
X132284285Y-111623619D01*
X132331904Y-111576000D01*
X132427142Y-111528380D01*
X132665238Y-111528380D01*
X132808095Y-111576000D01*
X133141428Y-111528380D02*
X133379523Y-112528380D01*
X133570000Y-111814095D01*
X133760476Y-112528380D01*
X133998571Y-111528380D01*
X134808095Y-111861714D02*
X134808095Y-112528380D01*
X134570000Y-111480761D02*
X134331904Y-112195047D01*
X134950952Y-112195047D01*
G04 #@! TO.C,SW3*
X132256666Y-93460761D02*
X132399523Y-93508380D01*
X132637619Y-93508380D01*
X132732857Y-93460761D01*
X132780476Y-93413142D01*
X132828095Y-93317904D01*
X132828095Y-93222666D01*
X132780476Y-93127428D01*
X132732857Y-93079809D01*
X132637619Y-93032190D01*
X132447142Y-92984571D01*
X132351904Y-92936952D01*
X132304285Y-92889333D01*
X132256666Y-92794095D01*
X132256666Y-92698857D01*
X132304285Y-92603619D01*
X132351904Y-92556000D01*
X132447142Y-92508380D01*
X132685238Y-92508380D01*
X132828095Y-92556000D01*
X133161428Y-92508380D02*
X133399523Y-93508380D01*
X133590000Y-92794095D01*
X133780476Y-93508380D01*
X134018571Y-92508380D01*
X134304285Y-92508380D02*
X134923333Y-92508380D01*
X134590000Y-92889333D01*
X134732857Y-92889333D01*
X134828095Y-92936952D01*
X134875714Y-92984571D01*
X134923333Y-93079809D01*
X134923333Y-93317904D01*
X134875714Y-93413142D01*
X134828095Y-93460761D01*
X134732857Y-93508380D01*
X134447142Y-93508380D01*
X134351904Y-93460761D01*
X134304285Y-93413142D01*
G04 #@! TO.C,SW2*
X113186666Y-112500761D02*
X113329523Y-112548380D01*
X113567619Y-112548380D01*
X113662857Y-112500761D01*
X113710476Y-112453142D01*
X113758095Y-112357904D01*
X113758095Y-112262666D01*
X113710476Y-112167428D01*
X113662857Y-112119809D01*
X113567619Y-112072190D01*
X113377142Y-112024571D01*
X113281904Y-111976952D01*
X113234285Y-111929333D01*
X113186666Y-111834095D01*
X113186666Y-111738857D01*
X113234285Y-111643619D01*
X113281904Y-111596000D01*
X113377142Y-111548380D01*
X113615238Y-111548380D01*
X113758095Y-111596000D01*
X114091428Y-111548380D02*
X114329523Y-112548380D01*
X114520000Y-111834095D01*
X114710476Y-112548380D01*
X114948571Y-111548380D01*
X115281904Y-111643619D02*
X115329523Y-111596000D01*
X115424761Y-111548380D01*
X115662857Y-111548380D01*
X115758095Y-111596000D01*
X115805714Y-111643619D01*
X115853333Y-111738857D01*
X115853333Y-111834095D01*
X115805714Y-111976952D01*
X115234285Y-112548380D01*
X115853333Y-112548380D01*
G04 #@! TO.C,SW1*
X113216666Y-93440761D02*
X113359523Y-93488380D01*
X113597619Y-93488380D01*
X113692857Y-93440761D01*
X113740476Y-93393142D01*
X113788095Y-93297904D01*
X113788095Y-93202666D01*
X113740476Y-93107428D01*
X113692857Y-93059809D01*
X113597619Y-93012190D01*
X113407142Y-92964571D01*
X113311904Y-92916952D01*
X113264285Y-92869333D01*
X113216666Y-92774095D01*
X113216666Y-92678857D01*
X113264285Y-92583619D01*
X113311904Y-92536000D01*
X113407142Y-92488380D01*
X113645238Y-92488380D01*
X113788095Y-92536000D01*
X114121428Y-92488380D02*
X114359523Y-93488380D01*
X114550000Y-92774095D01*
X114740476Y-93488380D01*
X114978571Y-92488380D01*
X115883333Y-93488380D02*
X115311904Y-93488380D01*
X115597619Y-93488380D02*
X115597619Y-92488380D01*
X115502380Y-92631238D01*
X115407142Y-92726476D01*
X115311904Y-92774095D01*
G04 #@! TO.C,RV1*
X109182380Y-67210238D02*
X108706190Y-67543571D01*
X109182380Y-67781666D02*
X108182380Y-67781666D01*
X108182380Y-67400714D01*
X108230000Y-67305476D01*
X108277619Y-67257857D01*
X108372857Y-67210238D01*
X108515714Y-67210238D01*
X108610952Y-67257857D01*
X108658571Y-67305476D01*
X108706190Y-67400714D01*
X108706190Y-67781666D01*
X108182380Y-66924523D02*
X109182380Y-66591190D01*
X108182380Y-66257857D01*
X109182380Y-65400714D02*
X109182380Y-65972142D01*
X109182380Y-65686428D02*
X108182380Y-65686428D01*
X108325238Y-65781666D01*
X108420476Y-65876904D01*
X108468095Y-65972142D01*
G04 #@! TO.C,J1*
X120182380Y-66948333D02*
X120896666Y-66948333D01*
X121039523Y-66995952D01*
X121134761Y-67091190D01*
X121182380Y-67234047D01*
X121182380Y-67329285D01*
X121182380Y-65948333D02*
X121182380Y-66519761D01*
X121182380Y-66234047D02*
X120182380Y-66234047D01*
X120325238Y-66329285D01*
X120420476Y-66424523D01*
X120468095Y-66519761D01*
G04 #@! TO.C,D25*
X189285714Y-127452380D02*
X189285714Y-126452380D01*
X189523809Y-126452380D01*
X189666666Y-126500000D01*
X189761904Y-126595238D01*
X189809523Y-126690476D01*
X189857142Y-126880952D01*
X189857142Y-127023809D01*
X189809523Y-127214285D01*
X189761904Y-127309523D01*
X189666666Y-127404761D01*
X189523809Y-127452380D01*
X189285714Y-127452380D01*
X190238095Y-126547619D02*
X190285714Y-126500000D01*
X190380952Y-126452380D01*
X190619047Y-126452380D01*
X190714285Y-126500000D01*
X190761904Y-126547619D01*
X190809523Y-126642857D01*
X190809523Y-126738095D01*
X190761904Y-126880952D01*
X190190476Y-127452380D01*
X190809523Y-127452380D01*
X191714285Y-126452380D02*
X191238095Y-126452380D01*
X191190476Y-126928571D01*
X191238095Y-126880952D01*
X191333333Y-126833333D01*
X191571428Y-126833333D01*
X191666666Y-126880952D01*
X191714285Y-126928571D01*
X191761904Y-127023809D01*
X191761904Y-127261904D01*
X191714285Y-127357142D01*
X191666666Y-127404761D01*
X191571428Y-127452380D01*
X191333333Y-127452380D01*
X191238095Y-127404761D01*
X191190476Y-127357142D01*
X186635714Y-129352380D02*
X186064285Y-129352380D01*
X186350000Y-129352380D02*
X186350000Y-128352380D01*
X186254761Y-128495238D01*
X186159523Y-128590476D01*
X186064285Y-128638095D01*
G04 #@! TO.C,D24*
X189285714Y-87452380D02*
X189285714Y-86452380D01*
X189523809Y-86452380D01*
X189666666Y-86500000D01*
X189761904Y-86595238D01*
X189809523Y-86690476D01*
X189857142Y-86880952D01*
X189857142Y-87023809D01*
X189809523Y-87214285D01*
X189761904Y-87309523D01*
X189666666Y-87404761D01*
X189523809Y-87452380D01*
X189285714Y-87452380D01*
X190238095Y-86547619D02*
X190285714Y-86500000D01*
X190380952Y-86452380D01*
X190619047Y-86452380D01*
X190714285Y-86500000D01*
X190761904Y-86547619D01*
X190809523Y-86642857D01*
X190809523Y-86738095D01*
X190761904Y-86880952D01*
X190190476Y-87452380D01*
X190809523Y-87452380D01*
X191666666Y-86785714D02*
X191666666Y-87452380D01*
X191428571Y-86404761D02*
X191190476Y-87119047D01*
X191809523Y-87119047D01*
X186635714Y-89352380D02*
X186064285Y-89352380D01*
X186350000Y-89352380D02*
X186350000Y-88352380D01*
X186254761Y-88495238D01*
X186159523Y-88590476D01*
X186064285Y-88638095D01*
G04 #@! TO.C,D22*
X170285714Y-127452380D02*
X170285714Y-126452380D01*
X170523809Y-126452380D01*
X170666666Y-126500000D01*
X170761904Y-126595238D01*
X170809523Y-126690476D01*
X170857142Y-126880952D01*
X170857142Y-127023809D01*
X170809523Y-127214285D01*
X170761904Y-127309523D01*
X170666666Y-127404761D01*
X170523809Y-127452380D01*
X170285714Y-127452380D01*
X171238095Y-126547619D02*
X171285714Y-126500000D01*
X171380952Y-126452380D01*
X171619047Y-126452380D01*
X171714285Y-126500000D01*
X171761904Y-126547619D01*
X171809523Y-126642857D01*
X171809523Y-126738095D01*
X171761904Y-126880952D01*
X171190476Y-127452380D01*
X171809523Y-127452380D01*
X172190476Y-126547619D02*
X172238095Y-126500000D01*
X172333333Y-126452380D01*
X172571428Y-126452380D01*
X172666666Y-126500000D01*
X172714285Y-126547619D01*
X172761904Y-126642857D01*
X172761904Y-126738095D01*
X172714285Y-126880952D01*
X172142857Y-127452380D01*
X172761904Y-127452380D01*
X167635714Y-129352380D02*
X167064285Y-129352380D01*
X167350000Y-129352380D02*
X167350000Y-128352380D01*
X167254761Y-128495238D01*
X167159523Y-128590476D01*
X167064285Y-128638095D01*
G04 #@! TO.C,D21*
X170285714Y-87452380D02*
X170285714Y-86452380D01*
X170523809Y-86452380D01*
X170666666Y-86500000D01*
X170761904Y-86595238D01*
X170809523Y-86690476D01*
X170857142Y-86880952D01*
X170857142Y-87023809D01*
X170809523Y-87214285D01*
X170761904Y-87309523D01*
X170666666Y-87404761D01*
X170523809Y-87452380D01*
X170285714Y-87452380D01*
X171238095Y-86547619D02*
X171285714Y-86500000D01*
X171380952Y-86452380D01*
X171619047Y-86452380D01*
X171714285Y-86500000D01*
X171761904Y-86547619D01*
X171809523Y-86642857D01*
X171809523Y-86738095D01*
X171761904Y-86880952D01*
X171190476Y-87452380D01*
X171809523Y-87452380D01*
X172761904Y-87452380D02*
X172190476Y-87452380D01*
X172476190Y-87452380D02*
X172476190Y-86452380D01*
X172380952Y-86595238D01*
X172285714Y-86690476D01*
X172190476Y-86738095D01*
X167635714Y-89352380D02*
X167064285Y-89352380D01*
X167350000Y-89352380D02*
X167350000Y-88352380D01*
X167254761Y-88495238D01*
X167159523Y-88590476D01*
X167064285Y-88638095D01*
G04 #@! TO.C,D19*
X151285714Y-127452380D02*
X151285714Y-126452380D01*
X151523809Y-126452380D01*
X151666666Y-126500000D01*
X151761904Y-126595238D01*
X151809523Y-126690476D01*
X151857142Y-126880952D01*
X151857142Y-127023809D01*
X151809523Y-127214285D01*
X151761904Y-127309523D01*
X151666666Y-127404761D01*
X151523809Y-127452380D01*
X151285714Y-127452380D01*
X152809523Y-127452380D02*
X152238095Y-127452380D01*
X152523809Y-127452380D02*
X152523809Y-126452380D01*
X152428571Y-126595238D01*
X152333333Y-126690476D01*
X152238095Y-126738095D01*
X153285714Y-127452380D02*
X153476190Y-127452380D01*
X153571428Y-127404761D01*
X153619047Y-127357142D01*
X153714285Y-127214285D01*
X153761904Y-127023809D01*
X153761904Y-126642857D01*
X153714285Y-126547619D01*
X153666666Y-126500000D01*
X153571428Y-126452380D01*
X153380952Y-126452380D01*
X153285714Y-126500000D01*
X153238095Y-126547619D01*
X153190476Y-126642857D01*
X153190476Y-126880952D01*
X153238095Y-126976190D01*
X153285714Y-127023809D01*
X153380952Y-127071428D01*
X153571428Y-127071428D01*
X153666666Y-127023809D01*
X153714285Y-126976190D01*
X153761904Y-126880952D01*
X148635714Y-129352380D02*
X148064285Y-129352380D01*
X148350000Y-129352380D02*
X148350000Y-128352380D01*
X148254761Y-128495238D01*
X148159523Y-128590476D01*
X148064285Y-128638095D01*
G04 #@! TO.C,D18*
X151285714Y-87452380D02*
X151285714Y-86452380D01*
X151523809Y-86452380D01*
X151666666Y-86500000D01*
X151761904Y-86595238D01*
X151809523Y-86690476D01*
X151857142Y-86880952D01*
X151857142Y-87023809D01*
X151809523Y-87214285D01*
X151761904Y-87309523D01*
X151666666Y-87404761D01*
X151523809Y-87452380D01*
X151285714Y-87452380D01*
X152809523Y-87452380D02*
X152238095Y-87452380D01*
X152523809Y-87452380D02*
X152523809Y-86452380D01*
X152428571Y-86595238D01*
X152333333Y-86690476D01*
X152238095Y-86738095D01*
X153380952Y-86880952D02*
X153285714Y-86833333D01*
X153238095Y-86785714D01*
X153190476Y-86690476D01*
X153190476Y-86642857D01*
X153238095Y-86547619D01*
X153285714Y-86500000D01*
X153380952Y-86452380D01*
X153571428Y-86452380D01*
X153666666Y-86500000D01*
X153714285Y-86547619D01*
X153761904Y-86642857D01*
X153761904Y-86690476D01*
X153714285Y-86785714D01*
X153666666Y-86833333D01*
X153571428Y-86880952D01*
X153380952Y-86880952D01*
X153285714Y-86928571D01*
X153238095Y-86976190D01*
X153190476Y-87071428D01*
X153190476Y-87261904D01*
X153238095Y-87357142D01*
X153285714Y-87404761D01*
X153380952Y-87452380D01*
X153571428Y-87452380D01*
X153666666Y-87404761D01*
X153714285Y-87357142D01*
X153761904Y-87261904D01*
X153761904Y-87071428D01*
X153714285Y-86976190D01*
X153666666Y-86928571D01*
X153571428Y-86880952D01*
X148635714Y-89352380D02*
X148064285Y-89352380D01*
X148350000Y-89352380D02*
X148350000Y-88352380D01*
X148254761Y-88495238D01*
X148159523Y-88590476D01*
X148064285Y-88638095D01*
G04 #@! TO.C,D16*
X132285714Y-127452380D02*
X132285714Y-126452380D01*
X132523809Y-126452380D01*
X132666666Y-126500000D01*
X132761904Y-126595238D01*
X132809523Y-126690476D01*
X132857142Y-126880952D01*
X132857142Y-127023809D01*
X132809523Y-127214285D01*
X132761904Y-127309523D01*
X132666666Y-127404761D01*
X132523809Y-127452380D01*
X132285714Y-127452380D01*
X133809523Y-127452380D02*
X133238095Y-127452380D01*
X133523809Y-127452380D02*
X133523809Y-126452380D01*
X133428571Y-126595238D01*
X133333333Y-126690476D01*
X133238095Y-126738095D01*
X134666666Y-126452380D02*
X134476190Y-126452380D01*
X134380952Y-126500000D01*
X134333333Y-126547619D01*
X134238095Y-126690476D01*
X134190476Y-126880952D01*
X134190476Y-127261904D01*
X134238095Y-127357142D01*
X134285714Y-127404761D01*
X134380952Y-127452380D01*
X134571428Y-127452380D01*
X134666666Y-127404761D01*
X134714285Y-127357142D01*
X134761904Y-127261904D01*
X134761904Y-127023809D01*
X134714285Y-126928571D01*
X134666666Y-126880952D01*
X134571428Y-126833333D01*
X134380952Y-126833333D01*
X134285714Y-126880952D01*
X134238095Y-126928571D01*
X134190476Y-127023809D01*
X129635714Y-129352380D02*
X129064285Y-129352380D01*
X129350000Y-129352380D02*
X129350000Y-128352380D01*
X129254761Y-128495238D01*
X129159523Y-128590476D01*
X129064285Y-128638095D01*
G04 #@! TO.C,D15*
X132285714Y-87452380D02*
X132285714Y-86452380D01*
X132523809Y-86452380D01*
X132666666Y-86500000D01*
X132761904Y-86595238D01*
X132809523Y-86690476D01*
X132857142Y-86880952D01*
X132857142Y-87023809D01*
X132809523Y-87214285D01*
X132761904Y-87309523D01*
X132666666Y-87404761D01*
X132523809Y-87452380D01*
X132285714Y-87452380D01*
X133809523Y-87452380D02*
X133238095Y-87452380D01*
X133523809Y-87452380D02*
X133523809Y-86452380D01*
X133428571Y-86595238D01*
X133333333Y-86690476D01*
X133238095Y-86738095D01*
X134714285Y-86452380D02*
X134238095Y-86452380D01*
X134190476Y-86928571D01*
X134238095Y-86880952D01*
X134333333Y-86833333D01*
X134571428Y-86833333D01*
X134666666Y-86880952D01*
X134714285Y-86928571D01*
X134761904Y-87023809D01*
X134761904Y-87261904D01*
X134714285Y-87357142D01*
X134666666Y-87404761D01*
X134571428Y-87452380D01*
X134333333Y-87452380D01*
X134238095Y-87404761D01*
X134190476Y-87357142D01*
X129635714Y-89352380D02*
X129064285Y-89352380D01*
X129350000Y-89352380D02*
X129350000Y-88352380D01*
X129254761Y-88495238D01*
X129159523Y-88590476D01*
X129064285Y-88638095D01*
G04 #@! TO.C,D13*
X113285714Y-127452380D02*
X113285714Y-126452380D01*
X113523809Y-126452380D01*
X113666666Y-126500000D01*
X113761904Y-126595238D01*
X113809523Y-126690476D01*
X113857142Y-126880952D01*
X113857142Y-127023809D01*
X113809523Y-127214285D01*
X113761904Y-127309523D01*
X113666666Y-127404761D01*
X113523809Y-127452380D01*
X113285714Y-127452380D01*
X114809523Y-127452380D02*
X114238095Y-127452380D01*
X114523809Y-127452380D02*
X114523809Y-126452380D01*
X114428571Y-126595238D01*
X114333333Y-126690476D01*
X114238095Y-126738095D01*
X115142857Y-126452380D02*
X115761904Y-126452380D01*
X115428571Y-126833333D01*
X115571428Y-126833333D01*
X115666666Y-126880952D01*
X115714285Y-126928571D01*
X115761904Y-127023809D01*
X115761904Y-127261904D01*
X115714285Y-127357142D01*
X115666666Y-127404761D01*
X115571428Y-127452380D01*
X115285714Y-127452380D01*
X115190476Y-127404761D01*
X115142857Y-127357142D01*
X110635714Y-129352380D02*
X110064285Y-129352380D01*
X110350000Y-129352380D02*
X110350000Y-128352380D01*
X110254761Y-128495238D01*
X110159523Y-128590476D01*
X110064285Y-128638095D01*
G04 #@! TO.C,D12*
X113285714Y-87452380D02*
X113285714Y-86452380D01*
X113523809Y-86452380D01*
X113666666Y-86500000D01*
X113761904Y-86595238D01*
X113809523Y-86690476D01*
X113857142Y-86880952D01*
X113857142Y-87023809D01*
X113809523Y-87214285D01*
X113761904Y-87309523D01*
X113666666Y-87404761D01*
X113523809Y-87452380D01*
X113285714Y-87452380D01*
X114809523Y-87452380D02*
X114238095Y-87452380D01*
X114523809Y-87452380D02*
X114523809Y-86452380D01*
X114428571Y-86595238D01*
X114333333Y-86690476D01*
X114238095Y-86738095D01*
X115190476Y-86547619D02*
X115238095Y-86500000D01*
X115333333Y-86452380D01*
X115571428Y-86452380D01*
X115666666Y-86500000D01*
X115714285Y-86547619D01*
X115761904Y-86642857D01*
X115761904Y-86738095D01*
X115714285Y-86880952D01*
X115142857Y-87452380D01*
X115761904Y-87452380D01*
X110635714Y-89352380D02*
X110064285Y-89352380D01*
X110350000Y-89352380D02*
X110350000Y-88352380D01*
X110254761Y-88495238D01*
X110159523Y-88590476D01*
X110064285Y-88638095D01*
G04 #@! TD*
M02*
